<?xml version="1.0" encoding="utf-8"?>
<!-- Generator: Adobe Illustrator 26.1.0, SVG Export Plug-In . SVG Version: 6.00 Build 0)  -->
<svg version="1.1" id="Ebene_1" xmlns="http://www.w3.org/2000/svg" xmlns:xlink="http://www.w3.org/1999/xlink" x="0px" y="0px"
	 viewBox="0 0 399.8 99.2" style="enable-background:new 0 0 399.8 99.2;" xml:space="preserve">
<style type="text/css">
	.st0{fill:#003254;}
</style>
<path class="st0" d="M36.4,52.5H22.8l7.3-23.7L36.4,52.5z M15.7,78.6L20.4,63h18.4l4.4,15.6h17L43.2,19.2c-1-3.5-3.1-5.1-6.8-5.1
	H12.3v5.6h2c2.5,0,3.9,1,3.9,2.9c0,1.3-0.3,2.3-1.3,5.2L0,78.6H15.7z"/>
<path class="st0" d="M79.8,78.6V19c0-3.1-1.8-5-4.8-5H60v5.6h1c2.5,0,3.6,1.1,3.6,3.6v55.4H79.8z"/>
<path class="st0" d="M105.6,78.6V19c0-3.1-1.9-5-4.8-5H85.9v5.6h1c2.5,0,3.6,1.1,3.6,3.6v55.4H105.6z"/>
<path class="st0" d="M132.1,19.9c0-4.3-3.2-7-8.7-7c-5.5,0-8.7,2.6-8.7,7s3.3,7,8.7,7C128.8,26.9,132.1,24.3,132.1,19.9 M131.8,78.6
	V35.2c0-3.1-1.8-4.9-4.9-4.9h-14.7v5.5h0.9c2.5,0,3.6,1.2,3.6,3.7v39.2H131.8z"/>
<path class="st0" d="M165.1,55.4v9.4c-2.5,2.6-5.6,4.2-8.2,4.2c-2.6,0-3.7-1.3-3.7-5c0-3.7,0.8-5.2,3.5-6.3
	C159.4,56.6,162.2,55.8,165.1,55.4 M144.7,44.1c4.6-2.3,9.7-3.6,14.9-3.8c4.1,0,5.5,1.5,5.5,5.7v1.1c-6.2,1-8.1,1.4-11.6,2.2
	c-2,0.4-3.9,1-5.7,1.8c-6.1,2.5-9,7.2-9,14.4c0,9.2,4,13.6,12.2,13.6c2.8,0,5.5-0.5,8.1-1.5c2.4-1.1,4.5-2.5,6.5-4.2v0.7
	c0,3,1.5,4.5,4.6,4.5H184v-5.2h-0.7c-2.6,0-3.6-1.2-3.6-4.3V46.1c0-12.3-4.3-16.6-16.6-16.6c-3.9,0-7.8,0.5-11.6,1.4
	c-3.6,0.8-7,2.1-10.3,3.9L144.7,44.1z"/>
<path class="st0" d="M206.1,78.6V45.9c2.5-2.8,5.1-4.1,8.1-4.1c3.2,0,4,1.3,4,6.1v30.7h15.1V45.7c0-7.7-0.6-10.1-3-12.7
	c-2-2.3-5.1-3.4-9.1-3.4c-5.9,0-10.1,1.8-15.7,7.1v-1.9c0-3-1.6-4.6-4.7-4.6h-14.4v5.5h0.9c2.5,0,3.6,1.2,3.6,3.7v39.2H206.1z"/>
<path class="st0" d="M278.1,68.5H257l20.2-28.3v-10h-31.6c-3.6,0-5.2,1.6-5.2,5.2v8.8h5.6v-0.9c0-2.2,1.2-3.3,3.6-3.3h10.9L240,68.7
	v10h38L278.1,68.5z"/>
<path class="st0" d="M357.3,77.4V22.7c0-4.4-1.6-5.8-5.8-5.8h-12.8V23h0.8c2.9,0,3.5,0.7,3.5,4.2v50.2H357.3z M363.7,77.4h14.2V34.8
	c0-4.3-1.7-5.8-5.8-5.8h-8.4V77.4z M336.7,77.4V29h-8.4c-4.2,0-5.8,1.5-5.8,5.8v42.6H336.7z M391.3,49.6c0,24.1-17.3,41.6-41.2,41.6
	c-23.8,0-41.2-17.5-41.2-41.6s17.4-41.6,41.2-41.6C374,7.9,391.3,25.6,391.3,49.6 M399.8,49.6c0-28.4-21.2-49.6-49.6-49.6
	c-28.4,0-49.6,21.2-49.6,49.6s21.2,49.6,49.6,49.6C378.6,99.2,399.8,78,399.8,49.6"/>
</svg>
