<?xml version="1.0" encoding="utf-8"?>
<!-- Generator: Adobe Illustrator 26.1.0, SVG Export Plug-In . SVG Version: 6.00 Build 0)  -->
<svg version="1.1" id="Ebene_1" xmlns="http://www.w3.org/2000/svg" xmlns:xlink="http://www.w3.org/1999/xlink" x="0px" y="0px"
	 viewBox="0 0 2500 2500" style="enable-background:new 0 0 2500 2500;" xml:space="preserve">
<style type="text/css">
	.st0{fill:#FFE300;}
</style>
<g>
	<polygon class="st0" points="739.7,1877.7 916.5,1877.7 916.5,1831.7 796.2,1831.7 796.2,1815.6 916.5,1815.6 916.5,1769.6 
		796.2,1769.6 796.2,1753.6 916.5,1753.6 916.5,1707.2 739.7,1707.2 	"/>
	<polygon class="st0" points="1731.1,1324.1 1074.2,1324.1 1074.2,1243.9 1731.1,1243.9 1731.1,966.6 1074.2,966.6 1074.2,883.6 
		1731.1,883.6 1731.1,622.3 757.5,622.3 757.5,1600.5 1731.1,1600.5 	"/>
	<path class="st0" d="M1060.3,1707.5l-107.8-0.4v170.6h92.7c28.6,0.4,53.7-8.4,72.9-29.7c22.4-25.1,24.4-67.7,10.8-97.3
		C1116.4,1723.6,1088.2,1710.3,1060.3,1707.5z M1076.3,1809c-11.5,27.1-44.9,19.9-71.5,20.6v-76.1c37.3,0,55.8-5,69.4,15.7
		C1081.9,1780.1,1081.2,1797.1,1076.3,1809z"/>
	<path class="st0" d="M1693.1,1699.2h-79.6l-55.1,178.6l54.4-0.4l13.3-31.9h63.9l14,32.3h56.5L1693.1,1699.2z M1643.9,1792.3
		l11.8-34.9l17.1,34.9H1643.9z"/>
	<polygon class="st0" points="1544.5,1707.2 1469.4,1707.2 1419.6,1763.7 1419.6,1707.2 1359.6,1707.2 1359.6,1877.7 1419.6,1877.7 
		1419.6,1849.8 1442.9,1823.4 1484.8,1877.7 1555.3,1877.7 1483,1784.6 	"/>
	<polygon class="st0" points="1154.5,1877.7 1331.3,1877.7 1331.3,1831.7 1211,1831.7 1211,1815.6 1331.3,1815.6 1331.3,1769.6 
		1211,1769.6 1211,1753.6 1331.3,1753.6 1331.3,1707.2 1154.5,1707.2 	"/>
</g>
</svg>
