<?xml version="1.0" encoding="utf-8"?>
<!-- Generator: Adobe Illustrator 26.2.0, SVG Export Plug-In . SVG Version: 6.00 Build 0)  -->
<svg version="1.1" id="Ebene_1" xmlns="http://www.w3.org/2000/svg" xmlns:xlink="http://www.w3.org/1999/xlink" x="0px" y="0px"
	 viewBox="0 0 130 160" style="enable-background:new 0 0 130 160;" xml:space="preserve">
<style type="text/css">
	.st0{clip-path:url(#SVGID_00000119092189310261396600000013420205293230471858_);}
	.st1{clip-path:url(#SVGID_00000109746911251735726200000001898126331493852841_);}
	.st2{clip-path:url(#SVGID_00000077323061460007392810000014618113232813100423_);}
	.st3{clip-path:url(#SVGID_00000113347029318590551460000011220717059663966890_);}
	.st4{clip-path:url(#SVGID_00000174573693987658719020000018258996317505789351_);}
	.st5{clip-path:url(#SVGID_00000107552254946503134590000000475103433766004617_);}
	.st6{clip-path:url(#SVGID_00000173842987443036174560000016065623947211295657_);}
	.st7{clip-path:url(#SVGID_00000076561944878959721830000015596424554067675812_);}
	.st8{clip-path:url(#SVGID_00000013883766813650477050000000188263180296520884_);}
	.st9{clip-path:url(#SVGID_00000101063656211227715800000004660003344323652238_);}
	.st10{clip-path:url(#SVGID_00000132065751738234476080000014524110877421137802_);}
	.st11{clip-path:url(#SVGID_00000082351948924450690290000003135334001783766956_);}
	.st12{clip-path:url(#SVGID_00000132048370745568827000000012938050223019610763_);fill:#A4B9C9;}
	.st13{clip-path:url(#SVGID_00000002373262717363492790000009259829365828485266_);fill:none;stroke:#000000;stroke-width:0.261;}
	.st14{clip-path:url(#SVGID_00000013910878949643501780000002082553421803147960_);fill:#A4B9C9;}
	.st15{clip-path:url(#SVGID_00000122722384041324991990000017036930560185247386_);fill:none;stroke:#000000;stroke-width:0.261;}
	.st16{clip-path:url(#SVGID_00000098942776323774638520000018067535042445659812_);fill:#A4B9C9;}
	.st17{clip-path:url(#SVGID_00000139990079088323237210000008147259156637597601_);fill:none;stroke:#000000;stroke-width:0.261;}
	.st18{clip-path:url(#SVGID_00000142868214455371465570000004002338729896275897_);}
</style>
<g>
	<polygon points="39.8,112.9 39.8,109.1 42.3,109.1 42.3,118.9 39.8,118.9 39.8,114.9 36.2,114.9 36.2,118.9 33.6,118.9 33.6,109.1 
		36.2,109.1 36.2,112.9 	"/>
	<path d="M51.3,117.2l-0.7,1.7h-2.7l3.7-9.7h2.8l3.7,9.7h-2.7l-0.6-1.7H51.3z M53.1,112.2L53.1,112.2l-1.1,3.1h2.1L53.1,112.2z"/>
	<g>
		<g>
			<defs>
				<rect id="SVGID_1_" x="33.3" y="32.9" width="63.4" height="94.1"/>
			</defs>
			<clipPath id="SVGID_00000047769341298092371650000005440773931366781828_">
				<use xlink:href="#SVGID_1_"  style="overflow:visible;"/>
			</clipPath>
			<path style="clip-path:url(#SVGID_00000047769341298092371650000005440773931366781828_);" d="M69.2,111.7
				c-0.4-0.4-1.1-0.6-1.7-0.6c-0.4,0-1.1,0.2-1.1,0.8c0,0.6,0.7,0.8,1.1,0.9l0.6,0.2c1.4,0.4,2.4,1.1,2.4,2.7c0,1-0.2,2-1,2.6
				s-1.8,0.9-2.7,0.9c-1.2,0-2.4-0.4-3.4-1.1l1.1-2c0.6,0.6,1.4,1,2.2,1c0.6,0,1.2-0.3,1.2-1c0-0.7-1-0.9-1.6-1.1
				c-1.6-0.4-2.6-0.9-2.6-2.7c0-2,1.4-3.3,3.3-3.3c1,0,2.2,0.3,3,0.8L69.2,111.7z"/>
		</g>
		<g>
			<defs>
				<rect id="SVGID_00000174600133063435583740000016484441369774590639_" x="33.3" y="32.9" width="63.4" height="94.1"/>
			</defs>
			<clipPath id="SVGID_00000023972009014977788520000005120807126133066675_">
				<use xlink:href="#SVGID_00000174600133063435583740000016484441369774590639_"  style="overflow:visible;"/>
			</clipPath>
			<polygon style="clip-path:url(#SVGID_00000023972009014977788520000005120807126133066675_);" points="79.1,111.3 79.1,112.9 
				82,112.9 82,115 79.1,115 79.1,116.7 82.2,116.7 82.2,118.9 76.7,118.9 76.7,109.1 82.2,109.1 82.2,111.3 			"/>
		</g>
		<g>
			<defs>
				<rect id="SVGID_00000148655346423180113540000001287978930619369114_" x="33.3" y="32.9" width="63.4" height="94.1"/>
			</defs>
			<clipPath id="SVGID_00000070836299142956246860000005354217910118064294_">
				<use xlink:href="#SVGID_00000148655346423180113540000001287978930619369114_"  style="overflow:visible;"/>
			</clipPath>
			<path style="clip-path:url(#SVGID_00000070836299142956246860000005354217910118064294_);" d="M96.7,118.9h-3.2l-2.4-3.7l0,0v3.7
				h-2.5v-9.7h3.8c1.9,0,3.3,0.9,3.3,3c0,1.4-0.7,2.5-2.1,2.7L96.7,118.9z M91.1,113.5h0.2c0.8,0,1.7-0.1,1.7-1.2
				c0-1.1-0.9-1.2-1.7-1.2h-0.2V113.5z"/>
		</g>
		<g>
			<defs>
				<rect id="SVGID_00000090974774908964824590000005818278144866070186_" x="33.3" y="32.9" width="63.4" height="94.1"/>
			</defs>
			<clipPath id="SVGID_00000117645912990918092670000001610908515096937660_">
				<use xlink:href="#SVGID_00000090974774908964824590000005818278144866070186_"  style="overflow:visible;"/>
			</clipPath>
			<polygon style="clip-path:url(#SVGID_00000117645912990918092670000001610908515096937660_);" points="38.3,122.4 38.3,122.4 
				36.4,127.1 34.5,122.4 34.5,122.4 33.6,126.9 33.3,126.9 34.5,121.4 36.4,126.2 38.4,121.4 39.6,126.9 39.2,126.9 			"/>
		</g>
		<g>
			<defs>
				<rect id="SVGID_00000182525630365559531090000003868672039842585243_" x="33.3" y="32.9" width="63.4" height="94.1"/>
			</defs>
			<clipPath id="SVGID_00000098218908931447829910000008268962868705956506_">
				<use xlink:href="#SVGID_00000182525630365559531090000003868672039842585243_"  style="overflow:visible;"/>
			</clipPath>
			<polygon style="clip-path:url(#SVGID_00000098218908931447829910000008268962868705956506_);" points="44.1,121.9 44.1,123.8 
				46.3,123.8 46.3,124.1 44.1,124.1 44.1,126.6 46.3,126.6 46.3,126.9 43.7,126.9 43.7,121.5 46.3,121.5 46.3,121.9 			"/>
		</g>
		<g>
			<defs>
				<rect id="SVGID_00000039835626420170507160000002973878747425394587_" x="33.3" y="32.9" width="63.4" height="94.1"/>
			</defs>
			<clipPath id="SVGID_00000117662607361406705530000001647948049208733061_">
				<use xlink:href="#SVGID_00000039835626420170507160000002973878747425394587_"  style="overflow:visible;"/>
			</clipPath>
			<polygon style="clip-path:url(#SVGID_00000117662607361406705530000001647948049208733061_);" points="52.1,126.9 51.7,126.9 
				51.7,121.9 50.4,121.9 50.4,121.5 53.5,121.5 53.5,121.9 52.1,121.9 			"/>
		</g>
		<g>
			<defs>
				<rect id="SVGID_00000090253609159531158940000007109804927280577693_" x="33.3" y="32.9" width="63.4" height="94.1"/>
			</defs>
			<clipPath id="SVGID_00000155104465536629610300000008997265942787366811_">
				<use xlink:href="#SVGID_00000090253609159531158940000007109804927280577693_"  style="overflow:visible;"/>
			</clipPath>
			<path style="clip-path:url(#SVGID_00000155104465536629610300000008997265942787366811_);" d="M57.6,125.1l-0.7,1.7h-0.4l2.2-5.5
				l2.2,5.5h-0.3l-0.7-1.7H57.6z M58.8,122.2l-1.1,2.6h2.1L58.8,122.2z"/>
		</g>
		<g>
			<defs>
				<rect id="SVGID_00000039818800928957414850000005243557013456243861_" x="33.3" y="32.9" width="63.4" height="94.1"/>
			</defs>
			<clipPath id="SVGID_00000135681612843383625120000016400548860388721059_">
				<use xlink:href="#SVGID_00000039818800928957414850000005243557013456243861_"  style="overflow:visible;"/>
			</clipPath>
			<polygon style="clip-path:url(#SVGID_00000135681612843383625120000016400548860388721059_);" points="65.5,126.6 66.9,126.6 
				66.9,126.9 65.2,126.9 65.2,121.5 65.5,121.5 			"/>
		</g>
		<g>
			<defs>
				<rect id="SVGID_00000009562847087206496150000005069019724165635254_" x="33.3" y="32.9" width="63.4" height="94.1"/>
			</defs>
			<clipPath id="SVGID_00000055686235071880352000000011367172530040966074_">
				<use xlink:href="#SVGID_00000009562847087206496150000005069019724165635254_"  style="overflow:visible;"/>
			</clipPath>
			<polygon style="clip-path:url(#SVGID_00000055686235071880352000000011367172530040966074_);" points="71.4,126.6 72.8,126.6 
				72.8,126.9 71.1,126.9 71.1,121.5 71.4,121.5 			"/>
		</g>
		<g>
			<defs>
				<rect id="SVGID_00000043414857437297572820000018036059219361765791_" x="33.3" y="32.9" width="63.4" height="94.1"/>
			</defs>
			<clipPath id="SVGID_00000107589527523316096850000009645738259566249363_">
				<use xlink:href="#SVGID_00000043414857437297572820000018036059219361765791_"  style="overflow:visible;"/>
			</clipPath>
			<path style="clip-path:url(#SVGID_00000107589527523316096850000009645738259566249363_);" d="M76.9,126.9v-5.3H78
				c0.4,0,0.8,0,1.1,0.3c0.3,0.3,0.4,0.7,0.4,1.1c0,0.5-0.2,0.9-0.6,1.1c0.7,0.1,1.1,0.7,1.1,1.4c0,0.4-0.2,0.8-0.5,1.1
				c-0.4,0.3-0.7,0.4-1.2,0.4L76.9,126.9L76.9,126.9z M77.3,124h0.6c0.4,0,0.7,0,0.9-0.2c0.3-0.2,0.4-0.5,0.4-0.9
				c0-0.4-0.1-0.7-0.4-0.9c-0.2-0.2-0.6-0.2-0.9-0.2h-0.6L77.3,124L77.3,124z M77.3,126.6h0.8c0.4,0,0.7,0,1.1-0.2
				c0.3-0.2,0.5-0.6,0.5-0.9s-0.2-0.8-0.6-0.9c-0.3-0.2-0.7-0.2-1.1-0.2h-0.7C77.3,124.3,77.3,126.6,77.3,126.6z"/>
		</g>
		<g>
			<defs>
				<rect id="SVGID_00000061439964110248870290000009241101764801787296_" x="33.3" y="32.9" width="63.4" height="94.1"/>
			</defs>
			<clipPath id="SVGID_00000029006348531197617830000001288428979442647703_">
				<use xlink:href="#SVGID_00000061439964110248870290000009241101764801787296_"  style="overflow:visible;"/>
			</clipPath>
			<path style="clip-path:url(#SVGID_00000029006348531197617830000001288428979442647703_);" d="M85,125.1l-0.7,1.7h-0.4l2.2-5.5
				l2.2,5.5H88l-0.7-1.7H85z M86.2,122.2l-1.1,2.6h2.1L86.2,122.2z"/>
		</g>
		<g>
			<defs>
				<rect id="SVGID_00000056392449035827780750000008423430124375415176_" x="33.3" y="32.9" width="63.4" height="94.1"/>
			</defs>
			<clipPath id="SVGID_00000049220467246120917980000016642965550041742729_">
				<use xlink:href="#SVGID_00000056392449035827780750000008423430124375415176_"  style="overflow:visible;"/>
			</clipPath>
			<path style="clip-path:url(#SVGID_00000049220467246120917980000016642965550041742729_);" d="M95.8,121.5h0.3v3.3
				c0,0.6,0,1-0.4,1.5c-0.4,0.4-0.9,0.6-1.4,0.6c-0.6,0-1.1-0.2-1.4-0.6c-0.4-0.4-0.4-0.9-0.4-1.5v-3.3h0.3v3.2c0,0.5,0,1,0.2,1.4
				c0.2,0.3,0.8,0.5,1.2,0.5c0.4,0,0.9-0.2,1.2-0.5c0.2-0.4,0.2-0.9,0.2-1.4v-3.2H95.8z"/>
		</g>
		<g>
			<defs>
				<rect id="SVGID_00000154421533275031374510000008218187655479129277_" x="33.3" y="32.9" width="63.4" height="94.1"/>
			</defs>
			<clipPath id="SVGID_00000114058732434023121780000012189436117310893246_">
				<use xlink:href="#SVGID_00000154421533275031374510000008218187655479129277_"  style="overflow:visible;"/>
			</clipPath>
			
				<rect x="33.7" y="33.1" style="clip-path:url(#SVGID_00000114058732434023121780000012189436117310893246_);fill:#A4B9C9;" width="18.9" height="68"/>
		</g>
		<g>
			<defs>
				<rect id="SVGID_00000075848033130562548230000005892020641734874755_" x="33.3" y="32.9" width="63.4" height="94.1"/>
			</defs>
			<clipPath id="SVGID_00000176033977695476362390000010642862155352043418_">
				<use xlink:href="#SVGID_00000075848033130562548230000005892020641734874755_"  style="overflow:visible;"/>
			</clipPath>
			
				<rect x="33.7" y="33.1" style="clip-path:url(#SVGID_00000176033977695476362390000010642862155352043418_);fill:none;stroke:#000000;stroke-width:0.261;" width="18.9" height="68"/>
		</g>
		<g>
			<defs>
				<rect id="SVGID_00000027592615949714239920000009131255423983119796_" x="33.3" y="32.9" width="63.4" height="94.1"/>
			</defs>
			<clipPath id="SVGID_00000065770729522409847660000014105177472531174282_">
				<use xlink:href="#SVGID_00000027592615949714239920000009131255423983119796_"  style="overflow:visible;"/>
			</clipPath>
			
				<rect x="55.5" y="33.1" style="clip-path:url(#SVGID_00000065770729522409847660000014105177472531174282_);fill:#A4B9C9;" width="18.9" height="68"/>
		</g>
		<g>
			<defs>
				<rect id="SVGID_00000059272924599649456070000001722143627452309410_" x="33.3" y="32.9" width="63.4" height="94.1"/>
			</defs>
			<clipPath id="SVGID_00000152967736141324839220000015957949636716711812_">
				<use xlink:href="#SVGID_00000059272924599649456070000001722143627452309410_"  style="overflow:visible;"/>
			</clipPath>
			
				<rect x="55.5" y="33.1" style="clip-path:url(#SVGID_00000152967736141324839220000015957949636716711812_);fill:none;stroke:#000000;stroke-width:0.261;" width="18.9" height="68"/>
		</g>
		<g>
			<defs>
				<rect id="SVGID_00000146471086796279288600000011719937377603636369_" x="33.3" y="32.9" width="63.4" height="94.1"/>
			</defs>
			<clipPath id="SVGID_00000092452293468617238780000016005545353574974342_">
				<use xlink:href="#SVGID_00000146471086796279288600000011719937377603636369_"  style="overflow:visible;"/>
			</clipPath>
			
				<rect x="77.3" y="33.1" style="clip-path:url(#SVGID_00000092452293468617238780000016005545353574974342_);fill:#A4B9C9;" width="18.9" height="68"/>
		</g>
		<g>
			<defs>
				<rect id="SVGID_00000068658086510223906660000007490006140441067425_" x="33.3" y="32.9" width="63.4" height="94.1"/>
			</defs>
			<clipPath id="SVGID_00000133516098161201349750000014515657347848297126_">
				<use xlink:href="#SVGID_00000068658086510223906660000007490006140441067425_"  style="overflow:visible;"/>
			</clipPath>
			
				<rect x="77.3" y="33.1" style="clip-path:url(#SVGID_00000133516098161201349750000014515657347848297126_);fill:none;stroke:#000000;stroke-width:0.261;" width="18.9" height="68"/>
		</g>
		<g>
			<defs>
				<rect id="SVGID_00000060012968207910143450000002297895723137411232_" x="33.3" y="32.9" width="63.4" height="94.1"/>
			</defs>
			<clipPath id="SVGID_00000154414716365784675630000013418124100568581765_">
				<use xlink:href="#SVGID_00000060012968207910143450000002297895723137411232_"  style="overflow:visible;"/>
			</clipPath>
			<polygon style="clip-path:url(#SVGID_00000154414716365784675630000013418124100568581765_);" points="74.3,65.5 74.3,51.5 
				77.3,51.5 77.3,85.3 74.2,85.3 74.2,68.8 55.5,68.8 55.5,85.3 52.5,85.3 52.5,51.5 55.6,51.5 55.6,65.5 			"/>
		</g>
	</g>
</g>
</svg>
