<?xml version="1.0" encoding="utf-8"?>
<!-- Generator: Adobe Illustrator 26.1.0, SVG Export Plug-In . SVG Version: 6.00 Build 0)  -->
<svg version="1.1" id="Logo" xmlns="http://www.w3.org/2000/svg" xmlns:xlink="http://www.w3.org/1999/xlink" x="0px" y="0px"
	 viewBox="0 0 389 158.9" style="enable-background:new 0 0 389 158.9;" xml:space="preserve">
<style type="text/css">
	.st0{fill:#1C1D42;}
	.st1{fill:#FF6200;}
</style>
<g>
	<path class="st0" d="M210.7,88v13.5c-7.6,3.8-14.7,5.7-21.9,5.7c-19.8,0-31.7-11.6-31.7-26.3c0-15.9,13.6-29,30.9-29
		c4.3,0,7.5,0.8,10.9,1.9c2.4,0.8,3.9,1.6,5.5,1.6c1.3,0,1.7-2.2,1.9-3.5h1.9l1.7,18.3h-2.3c-0.9-3.6-2.6-6.6-4.9-8.7
		c-3.6-3.6-8.5-5.5-14.1-5.5c-11.9,0-18.8,9.4-18.8,23.6c0,14,8.5,23.5,19.8,23.5c3.3,0,6.4-0.8,10.1-2.5V86.6
		c0-4.5-0.7-6.2-7.2-6.2v-2.1h23.9v2.1C210.5,80.5,210.7,82.4,210.7,88z M144.9,65.7v40.5h-3.1l-40.5-41.9c0.2,1.1,0.2,2.1,0.2,3.2
		v25.5c0,7.8,0,10.6,7.1,10.6v2.1h-19v-2.1c7.2,0,7.2-3.4,7.2-10.6V64c0-4.3,0-9.1-7.6-9.1v-2h17.9l33.3,34.2
		c-0.2-0.9-0.2-1.5-0.2-2.9V65.7c0-7.5,0.2-10.7-7-10.7v-2h19v2C145.3,55,144.9,58,144.9,65.7z M52.8,105.8v-2.1
		c4.6,0,7.8-0.4,7.8-7V62c0-6.8-2.5-7-7.8-7v-2h26.8v2c-5.5,0-7.8,0.2-7.8,7v34.8c0,6.6,2.9,7,7.8,7v2.1
		C79.6,105.8,52.8,105.8,52.8,105.8z"/>
	<path class="st1" d="M263.2,105.8c-1-1.7-1.1-4.4-1.1-4.9c0-0.9,0-2.3,0.6-3.2l-2.1,0.4c-0.6,0.7-0.8,1.1-0.8,1.5l1-0.4
		c0.2,0,0.4,0.4,0.6,0.8c-0.2,0.9-1.3,0.9-1.7,1.3c-0.6,1.9,1.1,3,1.3,4.6L263.2,105.8L263.2,105.8z M336.3,81.4
		c0-8.3-3.4-16.6-9.5-22.6c-2.6-2.7-5.5-3.9-7.8-6.6c-1.1-1.1-2-2.3-2.8-3.8c-1-1-1.5-1.5-2.7-2.1c0.2,0.6,0.4,1.1,0.6,1.7h-0.2
		c-1,0-1.9-0.6-2.7-1.1l0.8-0.8c-0.2-0.4-0.8-0.4-1.1-0.4c-3-0.5-5.8,1.1-8.8,1.7v0.4c1.9,0.6,2.2,2.9,3.3,4c0.2,0,0.4,0,1.1,0
		c0.4,0,1,0.4,1.3,0.4c0-0.4-0.4-1.1-0.4-1.1c0.4-0.4,0.8-0.4,1.1,0c0.9,0.6,2.3-0.4,3.2,1.1c-1.1,0-2.3,0-3.2,0.6
		c0,0.2,0.6,0.5,0.4,0.9c-0.9-0.4-2.1,0-2.5-0.7l-0.2,0.1c1.1,1.3,2.9,2.4,4.6,3c2.5,0.4,4.6-0.8,7-0.2c8.6,4.2,14.7,14,14.7,23.8
		c0,14-8,19.5-13,19.5c-1,0-2.4-0.6-3-1.1c0.6-1.9,0.9-4.2,0.9-7.6c0-8.1-3.2-16.8-7.6-21.3c-2.1-2.1-4.3-3.8-6.7-3.8
		c-1.1,0-2.3,0-3,0.9c-1,0.8-1.5,2.3-1.3,3.2c-1.5,1.1-4,1.7-5.9,1.7c-2.1,0-4.8-0.8-7.1-2.7c0-0.8,0-1.7,0-2.9
		c-0.5-0.2-2.4-1.3-1.5-2.2c0.6,0.2,1,0.5,1.1,0.7c-0.2-1.2-0.2-2.8-1.1-3.9c-0.4,0-0.9,0-1.5-0.4c-0.6-0.6-1.2-1.3-1.2-2.3
		c0.6,1,1.5,0.6,2.1,1.1c-0.9-2.3-0.6-3.2-2.3-6.6c-0.4-1.7-2.1-2.7-3.2-3.8c-0.6-0.4-0.8-1-1.5-1c-0.8-0.2-0.8-1.1-0.8-1.7
		c0.2,0,0.8,0.4,1.1,0.5c-1.1-2.6-1.9-5.4-4.4-6.9l-0.6,0.4c-0.9,0-2.1,0-3,0c0.4-0.4,1.1-0.6,1.7-0.9c-0.6-0.6-0.9-0.8-2.1-0.8
		c-0.5,0.2-1.2,0.8-1.9,0.8h-0.2c0-0.6-0.2-1.3,0.9-1.7c-1.1-0.2-2.1-0.2-3.4,0c-0.2,0.9-0.8,1.5-0.8,2.3c-0.6,0.4-0.8,1-1.3,1.5
		c0-1.1,0.6-2.3,0.8-3.4c-0.8,0.2-1.7,0.8-2.1,0.8c-1.5-0.8-3.4-1.5-4.2-1.5c1.1,0.8,0.6,2.1,0.8,3l-0.8-0.4
		c-0.2-0.8-1.1-1.3-1.3-2.3c-1.1,0-1.9,0.4-2.9,0.9v0.2c0.6,0,1.3,0.6,1.7,1.1c-1.3,0-2.3-0.6-3.6-0.6c0,0,0-0.2-0.2-0.2
		c-0.5,0.2-1,0.8-1.4,1.1c-1.3,1.1-2.3,2.1-2.9,3.8c0.4,0,1,0,1.1,0.2c-0.8,0.2-1.1,1.1-1.9,1.3c0,0.7,0,1.8,0,2.8
		c-0.6,0.6-1.3,1.1-1.7,2.3c-1,3-1.1,6.4-1.1,10.2c-0.2,0.8-0.6,1-0.9,1.1v2.9c0,0,1.1-1.1,1.7-1.4c0,0.8,0,1.8,0,2.4
		c-0.8,0-1.3,0.9-1.3,1.5c0,0.8,0.2,1.5,0.2,2.3c0,0.4,0,0.4,0.2,0.8c0-0.4,0.4-0.8,1-0.9c0,0,0.4-0.4,1.1-0.4
		c-0.6,0.6-0.8,1.3-1.1,2.1c-0.6,0.6-0.6,0.6-0.6,0.6s-0.2,0.4-0.2,0.6c0.8,3.9,1.9,7.3,3.4,11c-1.5,2.5-3.2,7.2-4.4,11.8
		c-1-0.9-2.3-1.1-3.4-1.1c-1.1,0.2-2.2,0.6-3,1.7c-1.1-0.6-2.7-0.4-3.4,0.4c-1.6,1.4-1.6,2.1-1.6,3.2c-0.4,0.4-1.2,1.3-1.2,2.7
		c0,1.7,0.2,2.9,1.2,4.4h28.5c-0.2-0.6-0.6-1.3-1-1.7c-0.6-1.1-0.2-2.7-0.2-3.8c0.6-1.1,1.1-2.2,1.9-3.2c0.2-0.6,0-0.6,0.2-0.8
		l1.3-0.2c0.8,0,1.3-0.6,2.3-0.6c0.6,0.8,0.6-0.6,1.5-1c2.1-0.4,4,0,5.2,1.5c0,0.2,0.2,0.2,0.2,0.4c-0.2,0-0.6,0-1,0
		c-1.1-0.4-2.3-1-3.6-0.4c0,0.4-0.2,0.4-0.2,1c0,0.4,0,0.4,0,1c0.8,0,1.3,0.7,2.1,1.1c0.3-0.6,1.4-1.1,2.1-1.1c1,0,2.3,0.5,2.3,2.1
		c0,0.8,0,1.5,0,2.1c0.8,0.8,1.7,0.9,2.7,1.3c-0.4,0.8-1,0.8-1.5,0.8h-1.5c-0.2-0.2-0.6-0.2-0.6-0.8c-0.6,0.8-0.9,1.5-1.3,2.3h22
		c-0.4-0.8-0.8-1.3-0.9-1.7c-0.4-1.1-0.4-2.7-0.4-3.8l2.1-2.8c1.1,0,2.1-0.4,4.2-0.6c0.4-0.6,0-0.8,1.7-0.8c1.3,0,2.3,0.2,2.7,0.4
		c0.2,0.4,0.2,0.4,0,0.8c-0.4,0.4-1.1-0.4-1.7-0.2c-0.4,0.4,0.2,0.6,0.2,1c0.4,0.3-1.7-0.4-1.7-0.4s-0.4,1.1-0.6,1.5
		c0,0,0.8,0.8,1.1,1.1c0.4,0.6-0.6,1.1-0.6,1.7c-0.4-0.2-1.1-0.8-1.1-0.6c-0.4,1.5,0,2.9-0.2,4.4c0.8,0,1.3,0,2.1,0l0.2-3.2
		c0.2-1.9,2.5-5.3,3.8-5.3c0.8,0,1.3,0.4,1.9,0.8c0.3,0.7,1.2,1.1,1.2,1.5c0,0.4-0.5,0.6-1.4,0.6c-0.4,0-0.4-0.6-0.9-0.9l-1.1,1.1
		c0,0,1.3,1.1,1.3,1.9c0,0.9-0.2,1.3-0.8,1.9l-1.1-2.3c-0.6,0-1.5,1.1-1.5,1.7c0,0.8-0.4,1.1-0.4,2.3h11.6c1.3,0,2.5-0.4,3.8-1.1
		c0.8,0,1.3,0,2.3,0c4.7,0,8.3-1.3,11.8-4.8C333.6,95.6,336.3,88.4,336.3,81.4z M295.4,98.6l-1.9,0.2c0.8,0.4,0.8,1.3,0.8,1.5
		c0,0.6-0.4,1.1-0.8,1.5c-0.4-0.4-0.4-1-0.8-1.5c-0.4,0-0.6,1-0.6,1.3c0,1.7,0.8,3,1.3,4.2h1.7c-0.2-1.5-0.6-2.8-0.6-4.6
		C294.6,100.3,295.2,99.2,295.4,98.6z M270.5,100.9c0-0.8-0.6-0.9-1.3-0.9c-0.4,0-1.2,0.6-1.2,0.9c0,0.8-0.4,4.9-0.4,4.9h1.2
		C269.4,104.1,270.5,101.9,270.5,100.9z M266.5,100.7c-0.2,0,0.2,0.4-1.7-1.5c-0.4,0-1,1.1-1,1.5c0,1.5,0.4,3.6,1,5.1h1.5
		C266.3,104.1,266.5,102.2,266.5,100.7z M316.2,53c-0.4-0.8-1.1-1.2-1.7-1.2c-0.6-0.8-1.3-1.7-2.1-1.7c0.6,0,1.3-0.6,2.3-0.6
		c0.4,1,1.1,1.5,1.3,2.3L316.2,53z M310.4,49c-0.8,0-1.3,0-2.1,0c-0.4-0.6-1,0-1.3,0c-0.4,0-0.6,0-1.3-0.6c1.1,0,1.7-0.6,2.6-1
		C309.1,48,309.9,48.2,310.4,49z M305.9,70.7c-1.2-0.4-1.9-0.9-3.1-0.9c-0.4,0-2.1,0.6-2.3,0.9c-0.6-0.8,0.4-2.3,1.1-2.7
		c0.8-0.4,1.1-0.2,1.5,0c0,1.1,1.3,0.6,2,1C305.5,69.5,305.7,69.9,305.9,70.7z M305.7,73.4c-1.1,0-1.2-0.2-2-0.2
		c-1,0-2.1,0.3-2.7,1.3c-0.4-0.8-0.2-1.1,0-1.6c0.6-0.6,1.5-1.3,2.3-1.3C304.6,71.6,305.7,72.6,305.7,73.4z M310.1,77.6
		c-1.5-0.9-3.8-1.5-5.1-1.5c-0.7,0-3,1-3.7,1.7l-0.4-1.7c1.1-0.2,1.1-1.1,1.9-1.1c0.6,0,1.3-0.2,1.8-0.2c0.5,0,0.9-0.4,1.1-0.4
		c0.9,0,0.5,0.9,1.1,0.9c0.6,0,1-0.4,1.3-0.4C309.1,74.9,309.9,76.5,310.1,77.6z M310.6,81.8c-1.3,0-2.7-0.4-2.9-0.9
		c-0.4-0.4,0-1.1-1-1.1c-0.4,0-0.9,0.6-0.9,0.6c-0.4,0.2-1.4-0.6-1.4,0c0,0.9-0.7,1.3-1.7,1.3c-0.4,0-0.8,0-1.1-0.2
		c0-0.6,0-1.3,0-1.9c2.5,0,2.3-0.8,3.3-0.8c0.7,0,1.3,0.4,1.8,0.4c1,0,0.4-0.4,1.3-0.4c1,0,1.3,0.8,1.9,0.9
		C310.1,80.3,310.6,81,310.6,81.8z M308.9,85.9c-0.6-0.2-1.9-0.4-1.9-0.9c0-0.8-0.4-1-1.3-1c-0.7,0-1.2,0.2-2.3,0.6
		c0,0-0.6-0.8-0.8-1.5c0.4-0.2,1.9-0.6,2.6-0.6c1.3,0,2.6,0,2.6,0.6C307.8,83.8,308.9,84,308.9,85.9z M276,56.3
		c0,0.2-0.4,1.9-0.4,1.9l-1.5,0.4l0.9-4.1C275.5,55.2,276,55.9,276,56.3z M312.5,92.5c0,1.1,0,1.5-0.6,2.5l-1.1-1.7
		c0.4-0.6,0.4-1.3,1-2.3C312,91,312.5,92.3,312.5,92.5z M308,90.1c-1.3,0-0.6-2.7-3.3-2.7c-0.5,0-0.9,1-1.6,1.1
		c0-0.2,0.2-1.3,0.2-1.3c0-0.4,0.2-1.1,0.9-1.5c1.4,0,1.1,0.6,2.1,0.9c0.6,0.2,1,0.6,1.7,0.6L308,90.1L308,90.1z M296.1,79.3
		c-1.7-0.9-2.7-2.7-4.2-4.4c1.5,0,1.9,1.5,3,1.7c0.4,0.4,0.8,0.6,1.1,1.1C296.1,78.4,296.1,78.8,296.1,79.3z M279.9,65.3
		c-1.1,0-1.7-0.6-2.3-1.6c0-0.6-0.2-1.3,0-2.3c0.4,0.8,0.4,1.1,0.8,1.5c0.8-0.4,0.8,0.6,0.9,0.8C279.6,64.2,279.9,64.8,279.9,65.3z
		 M311.2,97.5c-0.4,0.6-0.4,0.6-0.6,1.1c0-0.9-1.1-1.5-1.9-3l0.8-1.3c0.6,0.4,1.3,1,1.3,1.9c0,0-0.2,0.4,0,0.8
		C310.8,97.1,311.2,97.1,311.2,97.5z M307.4,92.2c0,0.8-0.2,1-0.4,1.9c-1.3-0.2-1.3-1.7-1.5-1.9c-0.9-1.1-2.2-0.2-3.1-0.2
		c-0.4-1.1,0.2-1.1,0.2-1.9c0.6,0,1.1-0.4,1.7,0c0.9-0.4,1.4,0.6,2.3,0.6C306.8,91,307.2,92,307.4,92.2z M297.9,84.4
		c0,0.8-0.4,1.3-0.2,2.1c-0.4-1.1-1.1-2.3-1.5-3.4c0-0.2-0.2-0.2,0.2-0.4c0.2,0,0.9,0,0.9,0.2C297.5,83.2,297.9,83.8,297.9,84.4z
		 M281.3,69.5c-0.2,0.8-1,0-1.1,0c-0.6,0-1.3,0-1.7,0c-0.2-0.4-0.4-0.6-0.4-1c0.8-0.2,1.3-0.6,1.9-0.2
		C280.3,69,280.7,69.5,281.3,69.5z M285.5,73.8c-0.6,0.6-2.1,0.8-3.2-0.2l1.5-0.7C284.3,73.4,285.1,73.6,285.5,73.8z M295.2,84.5
		c0,1.1-0.2,2.5-0.2,3.8c-0.6,0-0.6-0.4-0.6-1.1c-0.2-1.1-0.6-2.1-1-3.2c-0.4-1.5-1.3-2.8-2.1-4.5c-0.2-0.8-1.1-1.1-1.9-1.7
		c0.9,0,1.9,0,2.7,0.8c0,0.4,0.2,0.6,0.8,1.1c1.3,0,0.9,1.7,2.1,2.5c-0.6,0.5-0.8,0.9-1.1,1.2C294.4,83.8,295,84,295.2,84.5z
		 M287.8,78.9c0,0.6-0.4,0.8-0.7,1.1c0,0-0.7-1-0.7-1.3c0-0.8,0-1.1,0.2-1.7C287,77.6,287.8,78.4,287.8,78.9z M305.5,96.2
		c0,0.1-0.4,0.4-0.4,0.4c-0.9-0.4-1.4-0.6-2.6-0.6c0-0.8-0.6-1.7-0.9-1.7c-1.1,0-1,0.8-1.9,0.8l1.7-1.7c0.2-0.4,0.2-0.4,0.6-0.4
		c0.6,0.4,0.8,0.6,1.3,0.6c0,0.4,0,0.6-0.2,1.1c0.6,0.4,0.9-0.2,1.3,0.4C305,95.2,305.5,95.4,305.5,96.2z M290.2,83
		c0,0.4-0.6,0.7-0.8,0.7c0,0-1-0.9-1.1-1.8c-0.2-0.8,0.6-2.1,0.6-2.1c0.2,0,0.4,0.4,0.6,0.4c0.2,0.2,0,0.8,0.2,1.3
		C290.2,82,290.6,82.7,290.2,83z M275.6,64.8c-2.3-1.3-4.8-2.2-7.5-2.4c0,0.6,0,1.1-0.2,1.3c2.2,1.1,4.3,2,6.2,3.7v1.7
		c-1.9-1.9-4-3.8-6.4-4.4c-0.2,0.4-0.9,0.8-1.1,1.5c-1.3-0.9-2.9-1.9-4.4-2.1c-0.6,0-1-2-1-2c1-0.4,1.5-1,1.9-1.9c0.2,0,0.6,0,0.8,0
		c0.6,0,0.6-0.4,0.6-0.9c0-1.1-2.5-1.1-3.6-1.1c-1.3,0-2.3,0-3.1,0.6c-0.4,0-0.2,0.6-0.2,1c0,0.2,0.6,0.6,0.6,0.6
		c0.4,0,0.8-0.4,1.1-0.4c-0.2,1.1,0.2,1.7,1.3,2.3l-0.2,1.8c-2.3,0-3.8,0.9-5.5,1.7c-0.6-0.4-1-0.9-1.3-1.5
		c-2.3,0.8-6.1,3.8-6.1,3.8s0-0.8,0-1.3c1.7-1.5,3.8-2.3,5.6-3.2v-1.3c-0.8-0.4-1.5,0-2.3,0c-1.6,0.2-3.3,0.9-4.4,1.8
		c0-0.5-0.2-1.3-0.2-1.3c2.1-1.1,4.6-2.1,7.1-1.7c0-0.2,0-0.8,0-0.8c-0.2-0.4-0.2-0.9-0.6-0.9c-1.1-1.1-2.3-2.9-2.3-4l0.8-0.4
		c-0.4-1.1-0.8-3.9,0-4.9c-1.1-0.6-2.1-1.5-2.5-2.3c-0.4-1-0.8-1.5-1-2.6c0.6-1.1,1-1.5,1.5-2.6c0.3,0,0.9-0.2,1-0.6
		c0.9-0.2,1.5-1.1,2.6-0.6c0.8,0,1.5,0.4,2.1,0.6c0,0.4,0,0.6,0.4,1c1.1,0,1.1,1.1,1.7,2.1c0.6,0.2,1.1,0.2,1.5,0.2
		c1.1,0.4,2.1,0.4,2.5,0.9c1.5-0.9,3-1.1,4.8-0.9c0.2-0.6,0.6-1.3,0.8-2.3c0.2,0.6,0.2,0,0.6,0c0.7-0.6,1.6-1.5,2.9-1.1
		c0.8,0.6,2.1,0.2,2.9,1.1c0.6,0.7,1,1.9,1.5,2.8c-0.6,1.1,0,2.6-1.1,3.2l-1.1,1.1c-0.4,0-0.4,0.4-0.9,0.4c0.6,1.3,0.2,3.2-0.4,4.5
		c0.4-0.2,0.9-0.2,0.9-0.7c0.2,0.2,0,0.5,0,0.7c0,0.4,0,0.6,0,0.6c0,1-0.6,1.9-1.3,2.7c-0.4,1.1-1.3,2.7-2.6,2.9v0.4
		c2.8,0,5,0.8,7.7,2.1L275.6,64.8L275.6,64.8z M283.4,76.7l-1,0.4c-2.1,0-3-0.6-4-1.3c0.8,0,1.7-1,1.7-1
		C281.1,75.7,282.4,76.5,283.4,76.7z M278,72.4c-1.1,0-2.4,0.6-3-0.6c0.4-0.2,0.8-0.8,1.1-1.1L278,72.4z M293.5,90.1
		c0,1-1.1,2.1-1.5,2.9c0.4-0.9,0.4-2.9,0-2.9c-0.4-0.2-1.1,0-1.1-0.4c0-0.6,0.2-1.3,0.2-1.7c0-0.8-0.6-1.1-0.6-1.5
		c0-1.1,1.3-1.3,1.7-2.1c0.2,0.8,0.2,1.5,0.2,2.5c0,0.4,0.6,1.5,0,2.5C292.3,89.9,293.5,89.5,293.5,90.1z M289.1,88
		c0,1.1-0.8,2.1-0.9,3.2c0-1.1-0.2-2.1-0.9-2.9c0-0.4,0.5-0.4,0.2-1c0,0-1.1-0.6-1.1-1.3c0-0.8,0.7-1.3,1.1-1.9
		c0-0.2,0.8,0.4,0.8,1.5c0,0.2,0,0.8-0.2,1.1C287.8,87.4,289.1,87.4,289.1,88z M273.5,74.6c-0.9,0.2-1.7-0.8-2.7-1.1
		c-0.4-1-0.4-2.2-0.8-2.8c0.8,0.6,2.5,0.6,2.1,2.3C272.2,73.4,273,73.8,273.5,74.6z M278.8,79.9c-0.8,0-2,0-2.8-0.6
		c-1.1-0.6-1.5-0.9-2.1-1.5c0.8-0.6,1.7-0.6,2.1-0.8C276.8,77.8,277.5,79.1,278.8,79.9z M247,50.7l-1.3,0.4l0.2-1
		c0.4-0.6,0.6-1.1,1.1-1.7L247,50.7L247,50.7z M271.3,77c-0.8,0.2-2.1,0.6-2.5-0.4c-1-1.7-0.5-3.2,0-4.5c0.4,1.1,0.6,2.2,0.7,3.1
		C269.7,76.1,270.9,76.5,271.3,77z M265.9,66.7c-0.2,1.1-0.6,2.9-1.7,3.6c0-0.8-0.4-1.1-0.8-1.7c-0.2,0,0,0.6-0.2,0.6
		c0,0.4-0.4,1.1-0.4,1.9c-0.4,0.2-1.2,0.6-1.9,0.2v-0.6c-0.2-0.4-0.2-1.1-0.2-1.5l-0.2-0.2c-0.6,0.2-0.6,0.6-0.6,0.9
		c-0.2,0.4-0.6,0.8-0.6,1.3c-0.8,0-1.1-0.2-1.7-0.6V69c0-0.4,0-0.4-0.2-0.4l-1,1c-0.8-0.6-1-2.1-1-3c3.1-1.7,6.9-1.1,9.1-0.2
		C265.1,66.5,265.5,66.5,265.9,66.7z M275.6,82c0,0-0.4,0-0.6,0c-2.1,0.7-3.8-0.6-5.5-1.7c1-0.4,2.3-0.6,3.4-0.6l0.6,1.1
		C274.1,81,275.1,81.6,275.6,82z M247.4,53.3l-1,1.2c0.2,1.8-0.6,3.2-0.6,4.9l-1-3c0.2-0.8,0.4-1.5,1-2.4L247.4,53.3z M266.9,77.8
		c-1-0.6-2.7-0.8-2.3-1.9c0.4-1,1-1.1,1.3-1.5C266.1,75.7,266.3,76.7,266.9,77.8z M284.3,97.1h-0.2c-0.4-0.6-0.6-1-1-1
		c0.6-2.1-0.6-3.8-0.9-5.5v-0.6c0.6,1,2.1,1.9,1.9,2.9C284.3,94.6,284.3,96.2,284.3,97.1z M279.9,90.1c-1,0-1.7,0-2.3-1
		c-0.2,0-0.5-0.6-0.7-0.2c-0.9,0.8-1.9-0.6-3-0.4c-0.6,0.6-1.1,1-2.1,1.1v-0.2c0-0.6,0.4-1.1,1.1-1.5c1.1,0.4,2.1-2.1,3.2-0.8
		c0.6,0.2,1.1,0.2,1.4,0.2C279,88,279.4,89.1,279.9,90.1z M262.7,74.7c0,1.3-0.2,3-1.5,3.6l-0.4-1.9
		C261.3,76.1,261.9,75.7,262.7,74.7z M269,83c-0.4,0.4-1.4,0.7-2.1,0.7c-1.1-0.9-1.9-2-3-3.5l3,0.6C267.4,81.2,268.5,82.5,269,83z
		 M280.3,93.9c-0.8-0.6-1.9-0.6-2.3-1.5c-0.7-0.2-1.3-0.2-2.2-0.2c-0.8,0.2-1.7,0.2-2.5,0.2c-0.2,0,0-0.2-0.4-0.4
		c-1.1,0.4-2.3,0.4-3.4,1.5l1-2.3c0.8,0,1.3-0.4,1.7-0.4c0.8-0.2,1.3-0.2,1.9-0.2v0.2c2.1,0,4.5-0.2,6,1.5L280.3,93.9z M258.7,77.8
		c-1.1-1.1-2.1-2.1-2.1-3.2c0.6,0,1.1,0,1.7,0.4C258.3,75.9,258.7,76.7,258.7,77.8z M255.1,72.4l-0.6,2.4c-0.6-1.1-1.1-2.2-1.3-3.5
		L255.1,72.4z M282.2,97.7c-0.2,0.4-0.6,1.5-0.8,2.3c-0.4-1.1-0.8-2.8-2.1-2.8c-0.2-0.8-0.4-1-1.1-1.5l-1.5-0.2
		c0.2,0.8,1.3,0.8,0.5,1.7c0.7,0.6,1.3,0.6,1.7,1.5c0.4,0.6,0,1.3,0.2,1.7l-1.1,0.6c0-0.9,0.2-2.8-1.1-3.2c-1.1,0.4-1.3-1.1-2.1-1.6
		c-0.4,0-0.4-0.9-0.9-0.6c-1,0.6-2.1,0-3,0.6l0.9-1.5c0.8-0.6,1.5-0.4,2.3-0.6l1.5-0.2c1.5,0,2.8,0.8,4.3,1.3
		c0.8,0.4,1.1,0.9,1.1,1.7C281.5,97.1,282.2,97.1,282.2,97.7z M267.2,88.9h-0.4c-0.2,0-1.5-0.6-1.9-0.9c-0.2-0.6-0.2-1.1-0.2-1.1
		c0.6,0,0.9,0,1.5,0L267.2,88.9z M252.6,75.3c-1.1-0.4-2.4-1.5-3-2.4c-0.3-0.8-0.5-1.7-0.5-2.3c0.7,0,1.2,0.6,1.4,0.9v0.2
		C251.4,72.9,252.4,73.8,252.6,75.3z M261.7,82c-0.2,1.1-0.8,1.4-1.7,2.8c-0.6,0.4-1.7,0.6-2.8,1.1c0.2-0.6,0.7-0.8,1.1-1.3
		c0.4-0.6,1.1-1.5,1.3-2.1C260.6,82,261,82,261.7,82z M275.6,100.3l-0.6,0.6c-0.6-0.6-0.2-2.1-1.1-2.3c-1,0-1.7-0.9-2.1-1.1l0.8-0.4
		c0,0,0.4-0.2,0.8,0c0.4,0.4,0.8,0.6,0.8,1c0.4,0.5,0.9,0,1.3,0.5C275.6,99.2,275.8,100,275.6,100.3z M258.3,80.5
		c-0.6,1.1-1.1,2.2-2.3,2.6c-0.6,0-1.5,0.4-2.7,0c0.6-0.4,1.1-0.6,1.9-1.1l1.5-1.5H258.3z M262.1,89.1c-0.8,0.6-1.3,0.6-2.3,0.4
		l-1.1-1.5c0.9,0,2.1,0,2.9,0L262.1,89.1z M248.4,74.7c-1,1-1.9,1.3-2.3,2.5c0-0.6-0.2-1.1-0.4-1.5c0.2-0.8,0.8-1.1,0.9-1.3
		C247.2,74.6,247.6,74.6,248.4,74.7z M250.5,77.6c0,0.8-0.3,1.7-1.2,2.7c-0.2,0.2-0.7,0.6-0.7,0.6c0-1.1,0.5-2.1,0.5-3.1
		C249.6,77.6,250.1,77.2,250.5,77.6z M253.1,79.9l-0.8,2.8c-1,0.7-2.2,0.4-3.3,0.4c1.4-0.4,2.5-2,3.3-3.2
		C252.6,79.7,252.8,79.9,253.1,79.9z M254.1,89.5c0,0.6-0.2,2.8-0.2,2.8c-0.4-1.3-1.3-2.7-2.5-2.7c-0.6-0.6-1.1-1.1-1.3-1.7
		c-0.5-0.6-1,0-1.8-0.6c-0.8,0-1.7,0-2.5,0.6v-0.6l1.3-1.5c1.3,0.2,2.9,0,3.3,1c0.9,0.6,1.9,1.1,2.1,1.5c0,0.2,0,0.2,0,0.6
		C253,89.1,253.7,89.3,254.1,89.5z M253.1,95.4l-1.3,1.2c-0.4-0.4,0-1.4-0.6-1.9c0-0.4,0.4-0.6,0.2-0.8c-0.2-0.4-2.3-1.1-2.3-1.1
		c-0.7-0.6-1.7-1.2-2.5-1.9c-0.8-0.2-1.3,0.2-2.3,0.4c0-0.2,0-0.4,0-0.4c0.4-0.8,0.4-1.7,1.5-1.7c0.6,0,1.3,0,1.7,0.6
		c0.8,0,1.1,0.8,1.7,1c0.9,0.9,1.6,1.3,2.2,1.7c0,0.6,0.2,1,0.6,1.1C253.1,93.5,252.8,94.6,253.1,95.4z M250.3,98.1l-0.5,1.9
		l-1.2-3.4c-1.5-1.4-3.2-1.5-4.2-2.3c-0.8-0.2-0.8,0.4-1.1,0c0-0.4,0-0.9,0.6-1.5h1.1l1.1,0.6c0.6,0.6,1.9,0.6,1.9,1.7
		c0,0.2-0.2,0.4,0.4,1.1l1.8,0.4L250.3,98.1z M245.1,100c0,1.5-2.5,3.6-2.5,3.6c0-0.9,0.6-2.1,0.6-3.2c0,0-0.8-0.8-1.5-0.8
		c-0.6,0.4-0.6,0.8-0.8,1.3c-0.6,1.1-1.7,2.3-1.9,3.4c-0.2,0-0.2-0.2-0.2-0.2c0-1.9,0.2-5.1,1.3-6.4c1-1.1,1.7-1.1,2.9-1.3l1,0.2
		l-0.8,1.1C244,98.1,245.1,98.8,245.1,100z M238.5,98.8c0,0.8-0.2,1.5-0.6,2.1c-0.2-0.8-0.7-1.7-1.6-1.7c-0.8,1.5-0.9,2.1-0.2,4.4
		c-0.6,0.6-1,0.8-1.7,1.1c-0.4-0.8-0.4-2.1-0.4-2.9c0-1.3,0.2-2.7,0.6-3.8c0.6-0.6,1-1.5,1.5-1.9h2c-0.9,0-0.9,0.8-0.9,1.4
		C237.7,97.7,238.5,97.9,238.5,98.8z M233.6,100.9c-0.2,0-0.8-0.6-1.3-0.6c-0.5,1.1,0,1.9,0,3.2c0,0.6-0.2,1.1-0.2,1.1
		c-0.3,0-1-0.8-1.2-1.5v-3l1.6-2.1C233.6,98.8,234,100,233.6,100.9z M272.6,48.4c0.4-1,0.4-2.6-0.4-3.5c-0.4-0.8-1.3-1.1-2.3-1.9
		l-1.3,0.7c-0.7,0.4-1,1.1-1,2c1.2,0.5,2.5,2.1,3.1,3.2h0.6C271.8,48.4,272.2,49,272.6,48.4z M266.3,49.6c0-0.6-0.2-0.6-0.4-0.6
		c-1,0-1-1.5-1.7-1.1c-0.4,0-0.8-0.4-1.3,0c0,0.2,0,0.2,0.4,0.2c0.9,0,0.6,1.3,1.3,1.5C264.9,49.6,265.7,49.6,266.3,49.6z
		 M269.2,51.8c0,0,0.4,0,0-0.2l-4-0.6c-0.4,0.6-1.3,0.6-1.3,1.1h-0.4c0.4,1.5,0.4,3.1,0.4,4.9c0.8,0.2,1.5,0.6,1.5,1.7
		c0.8,0.4,1.5,0.6,2.2,1.1c0.4-0.2,0.5-0.8,0.7-1.3c-0.7-1-2.4-0.4-2.4-2.1l-1.1-0.4c0-1.1,0-2.2-0.2-3l0.2-0.1
		c0,0.1,0.2,0.3,0.6,0.7c0.8,0,1.5,0.2,2.2-0.4c0.4-0.2,0.4-1.1,0.7-1.1C268.6,52.2,269,52.2,269.2,51.8z M259.8,47.8
		c-0.4-0.4-1.5,0.2-2.1,0.4c-0.8,0.2-1.3,0.8-1.3,1.3h2.1C258.7,49,259.4,48.2,259.8,47.8z M255.6,45.8c-0.2-1.8-2.3-2-3.2-2.8h-0.8
		c-1.5,0.6-1.8,2.1-2,3.3c0.5,1.7,1.6,0.6,2.4,1.7C252.8,47.5,254.7,46.1,255.6,45.8z M266.9,63.1v-0.9h-1.9l-0.2,0.2L266.9,63.1z
		 M258.3,52.2c0-0.4-0.4-0.8-0.9-1.1c-1.5,0-2.9,0-4.2,0h-0.4c0,0.8,0.6,1.1,1.1,1.1c0,0.8,0.6,0.9,0.8,1.1c0.6,0.4,0.8,0.4,1.3,0
		c0.6,0.4,0.8-0.3,1,0c0,1.2,0,1.7-0.2,2.6c-0.2,1.3-1.3,1.1-2.3,1.7c0,0.6-0.6,1.5,0,2.1c0.6-0.4,1-0.6,1.9-1
		c0-0.6,0.6-1.1,1.3-1.5C257.7,55.5,258.3,53.9,258.3,52.2z M256.8,62.2c-0.4-0.8-1.3,0-2.3-0.4c0,0.4,0,0.8,0.6,1.1
		C255.6,62.4,256.6,62.2,256.8,62.2z"/>
</g>
</svg>
