<?xml version="1.0" encoding="utf-8"?>
<!-- Generator: Adobe Illustrator 26.2.0, SVG Export Plug-In . SVG Version: 6.00 Build 0)  -->
<svg version="1.1" id="Ebene_1" xmlns="http://www.w3.org/2000/svg" xmlns:xlink="http://www.w3.org/1999/xlink" x="0px" y="0px"
	 viewBox="0 0 300 160" style="enable-background:new 0 0 300 160;" xml:space="preserve">
<style type="text/css">
	.st0{fill:#878787;}
	.st1{clip-path:url(#SVGID_00000144335803631327884960000010830054054490760320_);fill:#878787;}
	.st2{clip-path:url(#SVGID_00000144335803631327884960000010830054054490760320_);fill:#E3051F;}
</style>
<g>
	<g>
		<g>
			<polygon class="st0" points="24.3,72.3 24.3,94.3 27,92.9 27,71.4 44.1,66.1 44.1,98 36.8,101.8 43.8,104.2 43.8,134.7 
				27.2,134.7 27.3,113.2 24.3,114.1 24.3,134.7 7,134.7 7,77.7 			"/>
			<polygon class="st0" points="66.2,59.1 66.2,134.7 47.3,134.7 47.3,65.1 			"/>
			<polygon class="st0" points="94.4,50.3 94.4,74.2 89,75.8 89,82.1 94.4,82.1 94.4,105.1 89.4,106.5 89.4,112.9 94.4,112.9 
				94.4,134.7 69.7,134.7 69.6,58.1 			"/>
			<polygon class="st0" points="144,34.8 144,134.7 122.2,134.7 122.2,66.8 118.7,68.4 118.7,134.7 97.9,134.7 97.9,49.2 			"/>
			<g>
				<defs>
					<rect id="SVGID_1_" x="-53.3" y="-46.9" width="436.6" height="218.9"/>
				</defs>
				<clipPath id="SVGID_00000029732312497888717850000008755305488275227579_">
					<use xlink:href="#SVGID_1_"  style="overflow:visible;"/>
				</clipPath>
				<path style="clip-path:url(#SVGID_00000029732312497888717850000008755305488275227579_);fill:#878787;" d="M178.3,24l-5.2,81.6
					h6.3v29.1h-31.7l5.3-73.2l-6.5,0.4V34C146.4,34,178.2,24.1,178.3,24"/>
				<polygon style="clip-path:url(#SVGID_00000029732312497888717850000008755305488275227579_);fill:#878787;" points="182.9,2.9 
					208.7,14.1 208.8,107.5 211.8,108.3 211.8,134.7 182.9,134.7 				"/>
				<polygon style="clip-path:url(#SVGID_00000029732312497888717850000008755305488275227579_);fill:#878787;" points="215.3,37.4 
					246.6,51.1 246.6,74.7 239.5,74 239.6,79.9 246.6,81.9 246.6,106.9 240,106.9 239.9,111.6 246.6,113.1 246.6,134.7 215.3,134.7 
									"/>
				<path style="clip-path:url(#SVGID_00000029732312497888717850000008755305488275227579_);fill:#878787;" d="M250.2,53.3
					l43.1,19.1l0,27l-7.9,2.4l7.9,4.4l0,28.4l-19.8,0.1v-24.1l-3.5-0.8v25h-19.7V53.3z M269.5,83.4l-0.1,5.8l3.6,1l0.1-5.8
					L269.5,83.4z"/>
				
					<rect x="7" y="141.7" style="clip-path:url(#SVGID_00000029732312497888717850000008755305488275227579_);fill:#E3051F;" width="286.3" height="3.3"/>
				<polygon style="clip-path:url(#SVGID_00000029732312497888717850000008755305488275227579_);fill:#E3051F;" points="178.7,7.7 
					7,61.4 7,58 178.7,4.3 				"/>
				<polygon style="clip-path:url(#SVGID_00000029732312497888717850000008755305488275227579_);fill:#E3051F;" points="178.7,15.6 
					7,69.3 7,66 178.7,12.2 				"/>
				
					<rect x="7" y="149.4" style="clip-path:url(#SVGID_00000029732312497888717850000008755305488275227579_);fill:#E3051F;" width="286.3" height="3.3"/>
				<polygon style="clip-path:url(#SVGID_00000029732312497888717850000008755305488275227579_);fill:#E3051F;" points="293.3,54.4 
					215.5,20.3 215.5,16.9 293.3,50.9 				"/>
				<polygon style="clip-path:url(#SVGID_00000029732312497888717850000008755305488275227579_);fill:#E3051F;" points="293.3,63.1 
					215.5,29.1 215.5,25.7 293.3,59.7 				"/>
			</g>
		</g>
	</g>
</g>
</svg>
