<?xml version="1.0" encoding="utf-8"?>
<!-- Generator: Adobe Illustrator 26.1.0, SVG Export Plug-In . SVG Version: 6.00 Build 0)  -->
<svg version="1.1" id="Ebene_1" xmlns="http://www.w3.org/2000/svg" xmlns:xlink="http://www.w3.org/1999/xlink" x="0px" y="0px"
	 viewBox="0 0 547 123" style="enable-background:new 0 0 547 123;" xml:space="preserve">
<style type="text/css">
	.st0{fill:#1D1D1B;}
</style>
<g>
	<path class="st0" d="M517.5,75.2c-2.1,0-4-0.9-5.6-2.7c-1.6-1.8-2.4-4.1-2.4-6.8c0-2.2,0.6-4.1,1.9-5.9c1.3-1.8,3.4-3.5,6.4-5.2
		c1.7-0.9,5.3-2.5,11-4.8v19.7C524.1,73.3,520.3,75.2,517.5,75.2 M530.5,79.8c1.1,1.3,2.6,1.9,4.4,1.9c3.8,0,7.9-2.8,12.1-8.5V70
		c-2.3,2.3-3.8,3.6-4.6,4.1c-0.5,0.3-1,0.4-1.6,0.4s-1.1-0.2-1.5-0.6s-0.7-1.1-0.9-2.2s-0.3-4.1-0.3-9.1V45.1c0-5-0.3-8.3-1-10
		c-1.1-2.5-2.7-4.3-4.9-5.5c-2.9-1.5-6.7-2.3-11.3-2.3c-6,0-10.7,1.4-14,4.1s-5,5.7-5,8.9c0,1.7,0.4,3,1.3,4s2,1.5,3.4,1.5
		s2.6-0.5,3.5-1.4s1.3-2.3,1.3-4l-0.1-3.3c0-1.7,0.7-3.1,2.1-4.4c1.4-1.3,3.3-1.9,5.7-1.9c3.1,0,5.5,1,7.2,2.9
		c1.6,1.9,2.5,5.5,2.5,10.6v2c-8.9,3.2-15.3,6-19.1,8.3c-3.8,2.3-6.5,4.7-8.1,7.2c-1.1,1.8-1.7,4-1.7,6.6c0,4,1.2,7.2,3.5,9.7
		c2.3,2.4,5.3,3.7,8.9,3.7c2.3,0,4.5-0.5,6.5-1.4c1.3-0.6,4.7-3,10-7.1C528.8,76.3,529.4,78.5,530.5,79.8 M456.6,27.4h-2.4
		l-15.6,6.3l0.8,2c1.5-0.6,2.7-0.8,3.8-0.8c1,0,1.8,0.2,2.4,0.7s1,1.4,1.3,2.8c0.3,1.4,0.4,5.2,0.4,11.4V69c0,3.8-0.5,6.3-1.4,7.7
		c-0.9,1.3-2.7,2-5.4,2h-1.1v2H465v-2c-2.8,0-4.7-0.2-5.6-0.8c-0.9-0.5-1.6-1.3-2.2-2.4c-0.4-0.8-0.6-3-0.6-6.5V41.7
		c4.5-4.9,8.9-7.4,13.4-7.4c2.9,0,5,1.1,6.2,3.2c1.2,2.1,1.8,5.5,1.8,10.3V69c0,3-0.1,4.8-0.2,5.3c-0.4,1.4-1.1,2.5-2,3.2
		s-2.6,1.1-5.1,1.1h-1.1v2h25.6v-2c-2.5,0-4.2-0.3-5.1-0.8s-1.6-1.3-2-2.2c-0.5-1.2-0.8-3.4-0.8-6.7v-22c0-4.7-0.4-8.2-1.2-10.4
		c-1.2-3.2-2.8-5.6-4.9-7c-2-1.4-4.5-2.1-7.3-2.1c-5.5,0-11.3,3.6-17.4,11L456.6,27.4L456.6,27.4z M413.4,27.4l-15.7,6.3l0.6,2
		c1.5-0.6,2.8-0.8,4-0.8c1,0,1.8,0.3,2.5,0.8c0.6,0.5,1.1,1.4,1.4,2.5s0.4,4.7,0.4,10.8v20.1c0,3-0.1,4.8-0.3,5.5
		c-0.4,1.3-1,2.3-2,2.9c-1.3,0.8-3.2,1.2-5.9,1.2v2h26.5v-2c-2.3,0-4.1-0.3-5.4-1c-1.2-0.7-2.1-1.5-2.6-2.6
		c-0.7-1.5-1.1-3.6-1.1-6.5V43.8c1.8-3.5,3.6-6.1,5.3-7.6c0.8-0.8,1.5-1.1,2.2-1.1c0.8,0,2,0.7,3.6,2s3.1,2,4.4,2
		c1.4,0,2.5-0.5,3.5-1.5s1.5-2.3,1.5-3.7c0-1.7-0.7-3.1-2-4.4c-1.4-1.3-3.1-1.9-5.1-1.9c-4.6,0-9,3.9-13.4,11.7V27.4H413.4z
		 M362.2,35c2.5-2.4,5.3-3.6,8.4-3.6c2,0,4,0.6,5.9,1.8s3.3,2.9,4.2,5c0.6,1.4,1,3.7,1.2,7h-24C358.3,40.8,359.8,37.4,362.2,35
		 M393.7,48.4c0-6.4-1.9-11.5-5.6-15.4c-3.7-3.8-8.5-5.7-14.3-5.7c-6.9,0-12.6,2.5-17.1,7.4c-4.5,5-6.8,11.9-6.8,20.7
		c0,8.2,2.2,14.7,6.6,19.5s9.8,7.3,16,7.3c5.7,0,10.5-2.1,14.3-6.4c3.8-4.2,6.1-8.9,6.9-14.1l-1.8-1.1c-1.7,4.5-3.8,7.7-6.3,9.6
		s-5.5,2.8-8.9,2.8c-5.1,0-9.5-2.2-13.3-6.6s-5.6-10.4-5.6-18.1L393.7,48.4L393.7,48.4z M330.3,11.9c-1.5,3.8-2.8,6.4-3.6,7.9
		c-1.7,2.7-3.6,5.1-5.8,7c-2.2,2-4.3,3.4-6.4,4.2v1.9h8.2v34.8c0,3.7,0.4,6.5,1.2,8.3c0.8,1.8,2,3.2,3.7,4.1c1.7,1,3.4,1.4,5.1,1.4
		c2.6,0,5-0.9,7.5-2.8c2.4-1.9,4.3-4.6,5.6-8.3h-2.2c-0.6,1.5-1.5,2.7-2.7,3.4c-1.2,0.8-2.4,1.2-3.6,1.2c-1.5,0-2.7-0.6-3.7-1.8
		c-1-1.2-1.4-3.4-1.4-6.8V32.9h12.1v-4h-12.1v-17C332.2,11.9,330.3,11.9,330.3,11.9z M287.9,8.2c3.8,0,6.5,0.3,8,0.9
		c1.9,0.8,3.3,1.9,4.3,3.4s1.8,4.3,2.6,8.3h2.2L304.1,4H245v2.1h2.7c3.2,0,5.4,0.8,6.8,2.3c1,1.1,1.5,4.1,1.5,9v49.8
		c0,3.7-0.2,6.2-0.7,7.4c-0.4,1.2-1.2,2.1-2.5,2.7c-1.6,0.9-3.3,1.3-5.1,1.3H245v2.1h59.1l6.6-19.2h-2.3c-2.5,4.7-4.8,8.2-7.2,10.6
		c-1.8,1.8-3.7,3-5.6,3.6c-2,0.6-5.1,0.9-9.5,0.9h-13c-2.1,0-3.5-0.2-4.3-0.7c-0.8-0.4-1.3-1-1.6-1.8c-0.3-0.7-0.5-2.8-0.5-6.2V42.7
		h16.9c3.2,0,5.6,0.4,7.1,1.1c1.5,0.8,2.7,1.8,3.3,3.1c0.5,1.1,1.1,3.5,1.6,7.2h2.1V27.4h-2.1c-0.2,4.4-1.3,7.4-3.3,9.2
		c-1.5,1.3-4.4,2-8.8,2h-16.9V8.2H287.9z M208.7,59H238v-8.5h-29.2V59H208.7z M183.6,36.5c4,5.3,5.9,12.5,5.9,21.7
		c0,7.3-1.2,12.5-3.6,15.6c-2.4,3-5.4,4.5-9.1,4.5c-4.9,0-8.9-2.7-11.9-8.2s-4.5-12-4.5-19.5c0-4.7,0.6-8.5,1.9-11.5
		c1.2-3,2.9-5.1,4.9-6.2c2-1.2,4-1.8,6-1.8C177.5,31,180.9,32.9,183.6,36.5 M162.9,30.7c-3.8,2.2-6.9,5.7-9.3,10.4
		c-2.4,4.7-3.5,9.4-3.5,14.2c0,6.5,1.9,12.4,5.8,17.6c4.6,6.2,10.8,9.3,18.6,9.3c4.8,0,9.1-1.2,13-3.6s7-6,9.2-10.8
		s3.3-9.5,3.3-14.1c0-6.6-2-12.5-6.1-17.5c-4.8-6-11.1-8.9-18.9-8.9C170.8,27.4,166.7,28.5,162.9,30.7 M132.9,27.4l-15.6,6.3l0.8,2
		c1.5-0.6,2.8-0.8,3.8-0.8s1.8,0.2,2.3,0.7c0.6,0.5,1,1.3,1.2,2.5c0.3,1.7,0.5,5.3,0.5,10.9v20c0,3.2-0.2,5.4-0.8,6.5
		c-0.5,1.1-1.2,1.9-2.1,2.4s-2.6,0.7-5.1,0.7v2h25.2v-2c-2.4,0-4.1-0.3-5.1-0.8s-1.6-1.3-2.1-2.4s-0.7-3.2-0.7-6.5V27.4H132.9z
		 M126.6,2c-1.1,1.1-1.6,2.4-1.6,4s0.6,2.9,1.7,4.1s2.5,1.7,4.1,1.7s2.9-0.6,4-1.7s1.7-2.5,1.7-4.1s-0.6-2.9-1.7-4.1
		c-1.1-1.1-2.5-1.7-4-1.7C129.1,0.3,127.7,0.8,126.6,2 M100.6,0.3L85.2,6.6l1,2C87.7,8,89,7.7,89.9,7.7c0.9,0,1.7,0.2,2.2,0.7
		c0.6,0.5,1,1.4,1.3,2.8c0.3,1.3,0.4,4.9,0.4,10.8v47c0,3.2-0.2,5.4-0.7,6.5s-1.2,1.9-2,2.4s-2.5,0.7-4.9,0.7v2h25.4v-2
		c-2.7,0-4.5-0.3-5.5-0.8c-1-0.6-1.7-1.3-2.2-2.4s-0.7-3.2-0.7-6.4V0.3H100.6z M44.4,26.5c6.8-7,10.6-10.8,11.5-11.6
		c2.9-2.6,5.3-4.6,7.2-5.7c1.9-1.1,3.6-2,5-2.4s2.9-0.6,4.5-0.7V4H44.5v2.1h1.8c1.9,0,3.2,0.3,4,1s1.2,1.4,1.2,2.3
		c0,1.1-0.5,2.4-1.5,4c-2.3,3.4-9.1,10.3-20.3,20.5c-4.4,4.1-7,6.5-7.8,7.2V17.6c0-3.8,0.2-6.3,0.7-7.5C23,8.9,23.8,8,25,7.4
		c1.7-0.9,3.4-1.3,5.1-1.3h2.6V4H0v2.1h2.7c1.8,0,3.6,0.4,5.2,1.4C9.1,8.2,9.8,9,10.2,9.9c0.5,1.3,0.7,3.9,0.7,7.8v49.6
		c0,4.6-0.4,7.5-1.4,8.7c-1.4,1.8-3.7,2.8-6.9,2.8H0v2.1h32.7v-2.1h-2.6c-1.8,0-3.5-0.4-5.1-1.4c-1.2-0.7-2-1.5-2.4-2.4
		c-0.5-1.2-0.7-3.8-0.7-7.7V42.4l26.5,26.2c2,2,3.2,3.3,3.5,4c0.4,0.7,0.5,1.5,0.5,2.4s-0.5,1.7-1.4,2.5c-1,0.7-2.5,1.1-4.7,1.1v2.1
		h36.5v-2.1c-3.3-0.2-6.6-1.2-9.8-2.9s-7.2-4.8-11.9-9.5l-28.4-28L44.4,26.5z"/>
	<path class="st0" d="M337,94.5c-7.3,0-9,7.6-9,14c0,5.7,1.2,14,9,14s9-8.2,9-14C346,102.1,344.3,94.5,337,94.5 M337,96.9
		c5.7,0,6.3,7.1,6.3,11.6s-0.6,11.6-6.3,11.6s-6.3-7.1-6.3-11.6S331.3,96.9,337,96.9 M315.1,94.5c-7.3,0-9,7.6-9,14
		c0,5.7,1.2,14,9,14s9-8.2,9-14C324.1,102.1,322.4,94.5,315.1,94.5 M315.1,96.9c5.7,0,6.3,7.1,6.3,11.6s-0.6,11.6-6.3,11.6
		c-5.7,0-6.3-7.1-6.3-11.6S309.4,96.9,315.1,96.9 M292.8,109.8c-3.8,0-5.8-2.4-5.8-6.4c0-3.7,2.2-6.5,6.2-6.5s5.9,3.4,5.9,6.8
		C299.1,107.3,296.7,109.8,292.8,109.8 M293.2,94.5c-5.6,0-9,3.7-9,9c0,6.8,4.9,8.6,8.5,8.6c2.6,0,5-1.1,6.5-3.4h0.1
		c0,5.6-2.2,11.5-9.3,11.4c-1.6,0-3.4-0.4-4.5-0.9l-0.2,2.6c1.5,0.3,2.9,0.6,4.4,0.6c9.3,0,12.4-6.7,12.4-15
		C302,101.1,300.5,94.5,293.2,94.5 M265.3,100l1.5,1.8l4.4-3.9v24.4h2.7V94.8h-2.4L265.3,100z M248.5,122.2h3.2v-3.3h-3.2V122.2z
		 M243.3,102.2h-4.6v-5.7l-2.5,0.9v4.8h-3.9v2.1h3.9V116c0,3.7,0.2,6.7,4.6,6.7c1.2,0,2.4-0.3,3-0.6l-0.2-2
		c-0.7,0.3-1.3,0.5-2.3,0.5c-2,0-2.7-1.5-2.7-3.3v-13h4.6L243.3,102.2L243.3,102.2z M217.6,121.8c1.8,0.7,3.7,0.9,5.6,0.9
		c3,0,7-1.5,7-5.7c0-6.6-9.9-6.1-9.9-9.8c0-2.6,1.8-3.3,4.3-3.3c1.4,0,3.1,0.3,4.4,0.9l0.2-2.2c-1.8-0.7-3.9-0.9-4.9-0.9
		c-3.3,0-6.5,1.5-6.5,5.5c0,5.8,9.6,5.1,9.6,9.8c0,2.3-2.1,3.6-4.4,3.6c-1.9,0-3.7-0.5-5.2-1.3L217.6,121.8z M200,122.2h13.9v-2.4
		h-11.2v-10.6h10.2v-2.4h-10.2V97h10.7v-2.4H200V122.2z"/>
</g>
</svg>
