<?xml version="1.0" encoding="utf-8"?>
<!-- Generator: Adobe Illustrator 19.0.0, SVG Export Plug-In . SVG Version: 6.00 Build 0)  -->
<svg version="1.1" id="layer" xmlns="http://www.w3.org/2000/svg" xmlns:xlink="http://www.w3.org/1999/xlink" x="0px" y="0px"
	 viewBox="-153 -46 652 652" style="enable-background:new -153 -46 652 652;" xml:space="preserve">
<style type="text/css">
	.st0{fill:#E3000B;}
	.st1{fill-rule:evenodd;clip-rule:evenodd;fill:#E3000B;}
</style>
<g>
	<path class="st0" d="M-131.1,289.1l62.5-0.2c0,0,4.3,0,4.3-4.3c0-4.3-4.3-4.3-4.3-4.3h-52.2c0,0-10.4-0.1-10.4-10.5v-29.4
		c0,0,0-10.4,10.4-10.4h77.1v20.7h-62.6c0,0-4.3,0.1-4.3,4.3c0,4.2,4.3,4.3,4.3,4.3h52.2c0,0,10.4-0.1,10.4,10.4v29.6
		c0,0,0,10.4-10.4,10.4h-77.1V289.1z"/>
	<path class="st0" d="M57.9,230.1H37.1v59H-9.1v-59h-20.7v69.4c0,0,0.1,10.4,10.4,10.4h77.4V230.1z"/>
	<path class="st1" d="M71.4,230.1h77.7c0,0,10.4-0.1,10.4,10.4v59c0,0-0.2,10.4-10.4,10.4h-57v41.3H71.4V230.1z M92.4,250.9h46.3
		v38.3H92.4V250.9z"/>
	<path class="st0" d="M172.9,309.8h20.9v-58.9h41.5v-20.7h-37.2c0,0-4.3,0.3-4.3-4.1c0-4.4,4.5-4.5,4.5-4.5h37V201h-51.9
		c0,0-10.5,0-10.5,10.5V309.8z"/>
	<path class="st0" d="M279.8,309.9h20.8v-59h46.2v59h20.7v-69.4c0,0-0.1-10.4-10.4-10.4h-77.4V309.9z"/>
	<rect x="245.5" y="230.1" class="st0" width="20.7" height="79.7"/>
	<rect x="245.5" y="201" class="st0" width="20.7" height="20.7"/>
	<path class="st1" d="M381.1,230.1h77.5c0,0,10.4,0.1,10.4,10.4v69.4h-77.5c0,0-10.4-0.1-10.4-10.4v-29.6c0,0,0.1-10.4,10.4-10.4
		h52.7c0,0,4.1-0.2,4.1-4.4c0-4.2-4.2-4.2-4.2-4.2h-62.9V230.1z M406.1,280.3c0,0-4.3-0.1-4.3,4.3c0,4.4,4.3,4.3,4.3,4.3h38.1
		c0,0,4.3-0.1,4.3-4.3c0-4.3-4.3-4.3-4.3-4.3H406.1z"/>
</g>
</svg>
