<?xml version="1.0" encoding="UTF-8" standalone="no"?>
<!-- Created with Inkscape (http://www.inkscape.org/) -->
<svg xmlns:svg="http://www.w3.org/2000/svg" xmlns="http://www.w3.org/2000/svg" version="1.0" width="302" height="71">
  <path d="M 0,0 L 34.5625,70.8125 L 53.4375,70.8125 L 80.8125,14.8125 L 80.8125,70.8125 L 147.0625,70.8125 L 147.0625,54.875 L 101,54.875 L 101,41.0625 L 131.125,41.0625 L 131.125,27.625 L 101,27.625 L 101,14.875 L 145.25,14.875 L 145.25,0 L 67.1875,0 L 44,47.5625 L 20.8125,0 L 0,0 z M 151.625,0 L 151.625,70.8125 L 234,70.8125 L 240.875,54.875 L 275.0625,54.875 L 281.875,70.8125 L 301.1875,70.8125 L 270.75,0 L 245.1875,0 L 217.875,63.4375 L 217.875,27.625 L 186,27.625 L 186,41.0625 L 201.9375,41.0625 L 201.9375,54.875 L 171.875,54.875 L 171.875,14.875 L 216.8125,14.875 L 216.8125,0 L 151.625,0 z M 257.9375,14.25 L 269.5,41.0625 L 246.4375,41.0625 L 257.9375,14.25 z" style="fill:#ffdc00;fill-opacity:1;fill-rule:nonzero;stroke:none"/>
</svg>