<?xml version="1.0" encoding="utf-8"?>
<!-- Generator: Adobe Illustrator 26.1.0, SVG Export Plug-In . SVG Version: 6.00 Build 0)  -->
<svg version="1.1" id="layer" xmlns="http://www.w3.org/2000/svg" xmlns:xlink="http://www.w3.org/1999/xlink" x="0px" y="0px"
	 viewBox="0 0 652 175.7" style="enable-background:new 0 0 652 175.7;" xml:space="preserve">
<style type="text/css">
	.st0{fill:#ED1D24;}
</style>
<path class="st0" d="M63.7,34.3c0-2.7,0.5-5.2,1.5-7.5s2.3-4.4,4.1-6.1c1.7-1.7,3.7-3.1,6-4.1s4.8-1.5,7.4-1.5s5.1,0.5,7.4,1.5
	s4.3,2.4,6,4.1c1.7,1.7,3,3.8,4,6.1s1.5,4.8,1.5,7.5s-0.5,5.2-1.5,7.5s-2.3,4.4-4,6.1s-3.7,3.1-6,4.1s-4.7,1.5-7.4,1.5
	c-2.6,0-5.1-0.5-7.4-1.5s-4.3-2.4-6-4.1s-3.1-3.8-4.1-6.1C64.2,39.5,63.7,37,63.7,34.3 M44.8,165.6c-2.6,0-5-0.5-7.3-1.5
	s-4.3-2.4-6-4.1c-1.7-1.7-3-3.8-4-6.1S26,149,26,146.3v-7.7h86.8V127H26V84.6c0-2.7,0.5-5.2,1.5-7.5s2.3-4.4,4-6.1
	c1.7-1.7,3.7-3.1,6-4.1s4.7-1.5,7.3-1.5h75.7c2.6,0,5.1,0.5,7.4,1.5c2.3,1,4.3,2.4,6,4.1s3,3.8,4,6.1s1.5,4.8,1.5,7.5v7.7h-87v11.5
	h87v42.5c0,2.7-0.5,5.2-1.5,7.5s-2.3,4.4-4,6.1s-3.7,3.1-6,4.1s-4.8,1.5-7.4,1.5L44.8,165.6L44.8,165.6z"/>
<g>
	<path class="st0" d="M212.6,144.5c-2.8,0-5.4-0.2-7.7-0.5c-2.3-0.3-4.4-0.7-6.3-1.2c-1.9-0.5-3.4-0.9-4.7-1.5
		c-1.3-0.5-2.2-0.9-2.9-1.2l2.8-8c0.9,0.5,2.4,1.1,4.5,1.8c2.1,0.7,4.2,1.2,6.6,1.6c2.4,0.4,4.6,0.6,6.6,0.6c4.1,0,7.3-0.6,9.7-1.8
		c2.3-1.2,3.8-2.7,4.4-4.5c0.6-1.8,0.9-3.5,0.9-5.1c0-2.7-0.9-4.9-2.6-6.6c-1.8-1.7-3.9-3-6.3-4c-2.5-1-4.7-1.9-6.7-2.7
		c-1.9-0.7-3.7-1.4-5.4-2.1s-3.4-1.7-5.1-2.9c-1.7-1.2-3.2-2.6-4.4-4.2s-2-3.3-2.4-4.9s-0.6-3.4-0.6-5.2c0-2.9,0.5-5.6,1.6-7.9
		c1.1-2.4,2.6-4.4,4.6-6.1c2-1.6,4.4-2.9,7.3-3.8c2.9-0.9,6.1-1.3,9.7-1.3c2.7,0,5.3,0.2,7.6,0.5s4.3,0.7,5.8,1.2
		c1.5,0.4,2.7,0.7,3.3,0.9v8.8c-1.6-0.6-3.4-1.1-5.2-1.6c-1.9-0.5-3.8-0.8-5.8-1.1c-2-0.3-3.9-0.4-5.8-0.4c-4.3,0-7.6,0.9-9.9,2.7
		c-2.4,1.8-3.5,4.4-3.5,7.7c0,1.7,0.4,3.1,1.1,4.3c0.7,1.2,1.8,2.2,3.2,3.1c1.3,0.9,3,1.7,4.8,2.5c1.9,0.7,4,1.5,6.2,2.3
		c2.5,0.9,4.9,1.9,7.2,3c2.3,1,4.3,2.3,6,3.9c1.7,1.5,3.1,3.4,4.2,5.7c1,2.2,1.6,5,1.6,8.3c0,3.2-0.5,6.1-1.6,8.6s-2.7,4.6-4.8,6.3
		c-2.1,1.7-4.6,3-7.6,3.9C219.9,144.1,216.5,144.5,212.6,144.5"/>
	<path class="st0" d="M249.3,163.5V92.9h9.1l0.2,7.3c0.8-1.7,2.1-3.2,3.6-4.6c1.6-1.3,3.3-2.3,5.2-2.9c1.9-0.6,3.9-0.9,5.9-0.9
		c4.6,0,8.4,1.2,11.4,3.7c3,2.4,5.1,5.7,6.2,9.7s1.6,8.1,1.6,12.2c0,4.3-0.5,8.1-1.4,11.4c-0.9,3.3-2.3,6.2-4.1,8.4
		c-1.8,2.3-4,4-6.7,5.2c-2.7,1.2-5.7,1.8-9.1,1.8c-2.8,0-5.2-0.4-7.3-1.1c-2-0.7-3.8-1.7-5.2-3v23.2h-9.4L249.3,163.5L249.3,163.5z
		 M269.3,136.4c2.3,0,4.3-0.4,6-1.4c1.7-0.9,3-2,3.8-3.4s1.4-2.7,1.9-4c0.5-1.5,0.8-3,1-4.7s0.3-3.5,0.3-5.3c0-4-0.5-7.4-1.4-10.1
		c-1-2.7-2.4-4.7-4.2-5.8c-1.9-1.1-3.9-1.7-6-1.7c-1.9,0-3.6,0.5-5.1,1.4s-2.7,2.2-3.8,3.9c-1,1.7-1.8,3.6-2.3,5.9s-0.8,4.8-0.8,7.5
		v13c1.4,1.5,3,2.6,4.7,3.5C265.2,136,267.1,136.4,269.3,136.4"/>
	<path class="st0" d="M318.1,144.3c-2.1,0-4-0.3-5.9-0.8s-3.5-1.4-4.9-2.7c-1.4-1.2-2.5-2.8-3.3-4.7s-1.2-4.3-1.2-7
		c0-3.8,0.9-7,2.6-9.5s4.2-4.4,7.6-5.8c1.9-0.7,4-1.3,6.3-1.7c2.3-0.4,5-0.6,7.8-0.6c0.1,0,0.4,0,0.9,0s1,0,1.5,0s1.1,0,1.5,0
		c0.5,0,0.8,0,1,0v-2.7c0-2.5-0.5-4.5-1.4-5.9s-2.3-2.3-4.2-2.8c-1.9-0.5-3.9-0.7-6-0.7c-2.7,0-5.1,0.3-7.4,0.8
		c-2.3,0.6-4.4,1.2-6.5,2v-8.1c2.7-0.7,4.6-1.2,5.8-1.4c1.2-0.2,2.8-0.4,4.6-0.6c1.9-0.2,3.6-0.3,5.3-0.3c3.3,0,6.1,0.3,8.5,1
		c2.4,0.6,4.4,1.7,5.9,3c1.6,1.4,2.7,3.1,3.4,5.2c0.7,2.1,1.1,4.6,1.1,7.5v34.7h-9l-0.2-4.3c-1,1-2.2,1.9-3.6,2.7
		c-1.5,0.8-3.2,1.4-5.2,1.9C321.6,144,319.8,144.3,318.1,144.3 M320.7,136.8c1.7,0,3.4-0.3,5.1-0.8c1.7-0.6,3-1.2,4-1.9
		c1-0.7,1.8-1.4,2.3-2v-13.7h-3.4c-2.8,0-5.2,0.2-7.2,0.5s-3.7,0.9-5.1,1.7s-2.4,1.9-3,3.2c-0.7,1.3-1,2.9-1,4.8
		c0,1.7,0.3,3.2,1,4.5c0.7,1.3,1.7,2.3,3,2.9C317.7,136.5,319.1,136.8,320.7,136.8"/>
	<path class="st0" d="M357.3,143.3V92.8h9.1l0.2,9.5c1.1-2.3,2.5-4.2,4.1-5.8c1.6-1.5,3.2-2.6,4.9-3.2c1.7-0.6,3.4-0.9,5-0.9
		s2.9,0.1,3.7,0.3v9.2c-0.7-0.2-1.9-0.3-3.4-0.3c-2.4,0-4.4,0.4-6.2,1.3c-1.8,0.9-3.2,2-4.4,3.4c-1.2,1.4-2.1,2.9-2.6,4.6
		c-0.6,1.7-0.9,3.3-0.9,4.9v27.3h-9.5L357.3,143.3L357.3,143.3z"/>
	<path class="st0" d="M393.5,143.3V70h9.5v42.4l18.5-19.5h11.4l-20.8,21.8c2,1.8,4.1,3.9,6.2,6.1c2.1,2.3,4.1,4.7,6,7.2
		c2,2.5,3.9,5,5.7,7.6c1.8,2.6,3.5,5.2,5.2,7.7h-11.9c-2-2.9-4.2-6-6.7-9.2c-2.5-3.2-4.9-6.1-7.2-8.8c-2.3-2.6-4.4-4.9-6.4-6.9v24.8
		L393.5,143.3L393.5,143.3z"/>
	<path class="st0" d="M454.9,144.3c-2.1,0-4-0.3-5.9-0.8s-3.5-1.4-4.9-2.7c-1.4-1.2-2.5-2.8-3.3-4.7s-1.2-4.3-1.2-7
		c0-3.8,0.9-7,2.6-9.5s4.2-4.4,7.6-5.8c1.9-0.7,4-1.3,6.3-1.7c2.3-0.4,5-0.6,7.8-0.6c0.1,0,0.4,0,0.9,0s1,0,1.5,0s1.1,0,1.5,0
		c0.5,0,0.8,0,1,0v-2.7c0-2.5-0.5-4.5-1.4-5.9s-2.3-2.3-4.2-2.8c-1.9-0.5-3.9-0.7-6-0.7c-2.7,0-5.1,0.3-7.4,0.8
		c-2.3,0.6-4.4,1.2-6.5,2v-8.1c2.7-0.7,4.6-1.2,5.8-1.4c1.2-0.2,2.8-0.4,4.6-0.6c1.9-0.2,3.6-0.3,5.3-0.3c3.3,0,6.1,0.3,8.5,1
		c2.4,0.6,4.4,1.7,5.9,3c1.6,1.4,2.7,3.1,3.4,5.2c0.7,2.1,1.1,4.6,1.1,7.5v34.7h-9l-0.2-4.3c-1,1-2.2,1.9-3.6,2.7
		c-1.5,0.8-3.2,1.4-5.2,1.9C458.4,144,456.6,144.3,454.9,144.3 M457.6,136.8c1.7,0,3.4-0.3,5.1-0.8c1.7-0.6,3-1.2,4-1.9
		c1-0.7,1.8-1.4,2.3-2v-13.7h-3.5c-2.8,0-5.2,0.2-7.2,0.5s-3.7,0.9-5.1,1.7s-2.4,1.9-3,3.2c-0.7,1.3-1,2.9-1,4.8
		c0,1.7,0.3,3.2,1,4.5c0.7,1.3,1.7,2.3,3,2.9C454.5,136.5,456,136.8,457.6,136.8"/>
	<path class="st0" d="M507.9,144.3c-2.2,0-4.3-0.1-6.1-0.4c-1.9-0.2-3.5-0.5-5-0.9c-1.5-0.3-2.8-0.7-3.8-1.1c-1.1-0.4-2-0.7-2.6-1.1
		l2.5-7.3c1.7,0.7,3.1,1.2,4.5,1.6c1.4,0.4,2.9,0.7,4.7,1c1.8,0.3,3.5,0.4,5.3,0.4c2.9,0,5.1-0.3,6.8-1c1.7-0.7,2.8-1.6,3.3-2.7
		c0.5-1.1,0.8-2.2,0.8-3.3c0-1.8-0.7-3.2-2-4.2s-3-1.9-5-2.5c-2-0.7-3.8-1.3-5.5-1.9c-2-0.7-3.9-1.4-5.5-2.1
		c-1.7-0.7-3.2-1.6-4.4-2.7c-1.3-1.1-2.2-2.4-2.9-3.9c-0.7-1.5-1-3.4-1-5.6c0-2.4,0.4-4.5,1.3-6.3s2.1-3.4,3.7-4.6s3.5-2.2,5.8-2.8
		c2.2-0.6,4.8-1,7.5-1c3.2,0,6.1,0.2,8.4,0.6c2.4,0.4,4.5,0.9,6.3,1.4v8c-2.1-0.7-4.2-1.3-6.6-1.7c-2.3-0.4-4.8-0.6-7.6-0.6
		c-3.3,0-5.7,0.5-7.2,1.6c-1.6,1-2.3,2.6-2.3,4.7c0,1.1,0.3,2,0.8,2.7c0.6,0.7,1.4,1.4,2.4,2s2.3,1.1,3.7,1.6c1.5,0.5,3.1,1,5,1.6
		c3.8,1.2,6.8,2.5,9,3.8c2.2,1.3,3.7,3,4.6,5c0.9,2,1.3,4.1,1.3,6.5c0,2.6-0.5,4.8-1.4,6.7s-2.3,3.5-4.1,4.8
		c-1.7,1.3-3.8,2.2-6.3,2.8C513.6,143.9,510.9,144.3,507.9,144.3"/>
	<path class="st0" d="M553.7,144.3c-2.2,0-4.3-0.1-6.1-0.4c-1.9-0.2-3.5-0.5-5-0.9c-1.5-0.3-2.8-0.7-3.8-1.1c-1.1-0.4-2-0.7-2.6-1.1
		l2.5-7.3c1.7,0.7,3.1,1.2,4.5,1.6c1.4,0.4,2.9,0.7,4.7,1c1.8,0.3,3.5,0.4,5.3,0.4c2.9,0,5.1-0.3,6.8-1c1.7-0.7,2.8-1.6,3.3-2.7
		c0.5-1.1,0.8-2.2,0.8-3.3c0-1.8-0.7-3.2-2-4.2s-3-1.9-5-2.5c-2-0.7-3.8-1.3-5.5-1.9c-2-0.7-3.9-1.4-5.5-2.1
		c-1.7-0.7-3.2-1.6-4.4-2.7c-1.3-1.1-2.2-2.4-2.9-3.9s-1-3.4-1-5.6c0-2.4,0.4-4.5,1.3-6.3c0.9-1.8,2.1-3.4,3.7-4.6
		c1.6-1.2,3.5-2.2,5.8-2.8c2.2-0.6,4.8-1,7.5-1c3.2,0,6.1,0.2,8.4,0.6c2.4,0.4,4.5,0.9,6.3,1.4v8c-2.1-0.7-4.2-1.3-6.6-1.7
		c-2.3-0.4-4.8-0.6-7.6-0.6c-3.3,0-5.7,0.5-7.2,1.6c-1.6,1-2.3,2.6-2.3,4.7c0,1.1,0.3,2,0.8,2.7c0.6,0.7,1.4,1.4,2.4,2
		s2.3,1.1,3.7,1.6c1.5,0.5,3.1,1,5,1.6c3.8,1.2,6.8,2.5,9,3.8c2.2,1.3,3.7,3,4.6,5c0.9,2,1.3,4.1,1.3,6.5c0,2.6-0.5,4.8-1.4,6.7
		s-2.3,3.5-4.1,4.8c-1.7,1.3-3.8,2.2-6.3,2.8C559.4,143.9,556.7,144.3,553.7,144.3"/>
	<path class="st0" d="M607.8,144.5c-3.8,0-7.1-0.6-10-1.8c-2.9-1.2-5.4-3-7.4-5.3c-2-2.3-3.5-5.1-4.6-8.3c-1-3.3-1.6-6.9-1.6-10.9
		c0-3.9,0.5-7.5,1.4-10.8c1-3.3,2.4-6.1,4.2-8.4s4.1-4.2,6.9-5.4c2.7-1.3,5.9-1.9,9.4-1.9c6.6,0,11.5,2,14.9,6.1
		c3.3,4.1,5,9.9,5,17.4c0,2.2-0.1,4.2-0.2,5.9h-31.5c0.4,5.1,1.8,9,4.2,11.7c2.4,2.7,6,4.1,10.7,4.1c2.2,0,4.3-0.2,6.4-0.5
		c2.1-0.3,3.9-0.7,5.4-1.1l1.9,7.4c-2,0.6-4.3,1.1-6.7,1.4C613.8,144.3,611,144.5,607.8,144.5 M594.1,114.1H616v-2.3
		c0-4.2-0.8-7.4-2.5-9.6c-1.6-2.3-4.2-3.4-7.7-3.4c-3.7,0-6.5,1.3-8.4,4C595.5,105.5,594.4,109.2,594.1,114.1"/>
</g>
</svg>
