<?xml version="1.0" encoding="utf-8"?>
<!-- Generator: Adobe Illustrator 26.1.0, SVG Export Plug-In . SVG Version: 6.00 Build 0)  -->
<svg version="1.1" id="layer" xmlns="http://www.w3.org/2000/svg" xmlns:xlink="http://www.w3.org/1999/xlink" x="0px" y="0px"
	 viewBox="0 0 652 107.7" style="enable-background:new 0 0 652 107.7;" xml:space="preserve">
<style type="text/css">
	.st0{fill:#FF6600;}
	.st1{fill:#0066B3;}
</style>
<g>
	<path class="st0" d="M170.8,87.1h-55c-1.5,8.3-2.8,15.3-3.2,18.1h58.3V87.1H170.8z M26,87.1v18.1h58.3l-3.9-18.1H26z"/>
	<path class="st1" d="M54.5,44.9l-4.3-18.6h36.1L98,79.4h0.5l7.3-33.8c3.7-15.5,5.1-19.2,26-19.2h15c0,0-3,14.3-6.8,29.9
		c-1.5,5.9-14,5.2-13.4-0.3c0.1-0.6,0.7-4.7,1.1-7.7c0.7-4.3-4.1-4.8-4.9-0.6c-0.6,3-3.3,17.7-5.8,31.8h53.8V3.4H26v76.1h52.6
		l-7.4-34.6H54.5L54.5,44.9z"/>
	<g>
		<path class="st1" d="M210.4,5.9h-7.7L215,43.4h8.9l12.2-37.5H229l-6.4,20.9c-1,3.3-1.9,6.5-2.8,9.8c-0.5-1.8-0.9-3.2-1.5-5
			c-0.5-1.9-0.9-3.3-1.5-5.2L210.4,5.9z M249.6,15.1c-2.6,0-5.1,0.7-7.4,1.9c-0.9,0.6-1.7,1.2-2.5,1.9c-2.6,2.8-4.1,6.6-4,10.5
			c-0.3,6,3.3,11.5,8.9,13.6c1.6,0.5,3.3,0.8,5,0.8c1.8,0,3.7-0.3,5.4-0.9c5.4-2.2,8.8-7.6,8.4-13.4c0-1.3-0.1-2.6-0.4-3.8
			c-0.9-4.1-3.6-7.6-7.4-9.4C253.7,15.4,251.6,15,249.6,15.1L249.6,15.1z M249.7,20.4c1.6,0,3.1,0.6,4.1,1.8
			c1.6,1.9,2.4,4.4,2.3,6.9c0.3,2.8-0.5,5.6-2.4,7.8c-1,1.1-2.5,1.7-4,1.7c-0.9,0-1.9-0.2-2.7-0.7c-0.8-0.4-1.4-1-1.9-1.7
			c-1.4-2-2.1-4.4-1.9-6.9c-0.2-2.7,0.7-5.4,2.6-7.3c0.5-0.5,1.2-0.9,1.8-1.1C248.2,20.5,248.9,20.3,249.7,20.4L249.7,20.4z
			 M269.3,2.8v40.5h6.9V2.8H269.3z M290.5,2.8h-6.8v40.5h6.8V29.5c1.2,2,2.1,3.4,3.4,5.3l5.8,8.5h8.4l-11.2-15.6l10-12.2h-8l-6,7.8
			c-1,1.2-1.6,2.1-2.5,3.4L290.5,2.8L290.5,2.8z M327.6,16.2c-2.3-0.6-4.7-1-7-1c-3.1-0.1-6.1,0.9-8.4,2.9c-1.5,1.5-2.3,3.5-2.3,5.6
			c0,1.8,0.6,3.6,1.7,5c2,1.8,4.4,3.1,7,3.7c1.2,0.5,3.2,1.1,3.2,2.9s-1.9,3-4.8,3c-2.3-0.1-4.6-0.7-6.6-1.8l-0.4,6
			c2.5,0.8,5.2,1.2,7.8,1.2c1.7,0,3.4-0.2,5.1-0.7c1.7-0.6,3.1-1.7,4.2-3.2c1.1-1.4,1.7-3.2,1.6-5.1c0.1-3-1.6-5.9-4.3-7.2
			c-0.8-0.3-1.9-0.7-3.7-1.2c-1.2-0.4-2.4-0.9-3.5-1.7c-0.4-0.3-0.6-0.8-0.7-1.4c0-1.9,1.9-2.9,4.8-2.9c2,0.1,3.9,0.4,5.7,1
			L327.6,16.2L327.6,16.2z M334.4,2.8v40.5h6.6V39c0.3,0.6,0.6,1.2,1,1.7c1.8,2.1,4.5,3.2,7.3,3c1.6,0,3.1-0.4,4.5-1
			c0.8-0.3,1.6-0.8,2.3-1.5c3.2-3.3,4.7-7.8,4.3-12.3c0-2-0.2-4-0.8-5.9c-0.9-4.8-5.3-8.2-10.2-8c-2.6-0.1-5.2,1-6.9,2.9
			c-0.5,0.5-0.9,1.2-1.3,1.8V2.6h-6.8V2.8z M347.7,20.9c1.4,0,2.6,0.6,3.6,1.6c0.5,0.5,0.8,1.1,1.1,1.7c0.7,1.6,1.1,3.4,1.1,5.2
			c0.1,2.7-0.9,5.4-2.7,7.4c-0.9,0.8-2,1.3-3.2,1.2c-1.5,0.1-3-0.5-3.9-1.7c-0.6-0.5-1-1.2-1.3-1.9c-0.7-1.5-1-3.1-1-4.7
			c0-2.5,0.7-6.8,4.3-8.3C346.3,21.1,347,21,347.7,20.9L347.7,20.9z M388.6,43.4c-0.1-3.4-0.2-5.8-0.2-9.1v-6.5
			c0.1-2.2-0.1-4.4-0.6-6.5c-0.5-1.3-1.3-2.5-2.3-3.5c-2.4-1.9-5.5-2.8-8.6-2.6c-3.1,0-6.2,0.6-9.1,1.9l0.2,6.2
			c0.8-0.7,1.7-1.3,2.7-1.7c1.7-0.8,3.5-1.2,5.4-1.2h0.6c1.7-0.1,3.3,0.7,4.3,2c0.7,1.2,1,2.6,1,4.1c-1.3-0.1-2.3-0.1-3.6-0.1h-0.3
			c-5.3,0-8.9,1-11,3c-3.4,3.2-3.5,8.6-0.2,12c1.7,1.8,4.1,2.7,6.6,2.6c2.1,0.1,4.2-0.4,6-1.5c1.2-0.7,2.3-1.8,2.9-3v4.1L388.6,43.4
			L388.6,43.4z M382.3,30.9c0,0-0.1,1.2-0.2,2c-0.2,3.4-2.9,6-6.3,6.1c-2,0.2-3.9-1.2-4.1-3.3c0-0.2,0-0.4,0-0.6
			c0-0.6,0.1-1.2,0.3-1.7c1.2-2.1,3.9-2.7,7.6-2.7C380.5,30.7,381.4,30.8,382.3,30.9L382.3,30.9z M420.6,43.4V29.2
			c-0.1-5.1-0.1-8-1.7-10.3c-0.6-0.9-1.3-1.8-2.3-2.4c-1.6-0.9-3.4-1.4-5.2-1.4c-2-0.1-3.9,0.4-5.6,1.5c-1,0.5-1.8,1.2-2.6,2
			c-0.3,0.5-0.7,0.8-1,1.2v-4.3h-6.6c0.1,2.5,0.1,4.2,0.1,6.7v21.1h7v-13c0-3.3,0.2-6.2,2.7-8.1c0.9-0.9,2.2-1.3,3.5-1.2
			c0.7,0,1.3,0.1,1.9,0.3c0.9,0.5,1.6,1.2,2.1,2c0.8,2.1,1.1,4.3,0.9,6.5v13.4h6.8L420.6,43.4L420.6,43.4z M434.9,2.8H428v40.5h6.9
			V29.5c1.2,2,1.9,3.4,3.2,5.3l5.8,8.5h8.6l-11.2-15.6l9.9-12.2h-7.9l-6.1,7.8c-0.9,1.2-1.5,2.1-2.4,3.4L434.9,2.8L434.9,2.8z
			 M479.2,32c0.1-0.9,0.1-1.9,0.1-2.8c0-7.4-3.4-14.1-12-14.1c-3.8-0.1-7.4,1.5-9.7,4.5c-0.4,0.4-0.7,0.9-1,1.4c0,0.1-0.5,1-0.8,1.6
			c-1,2.3-1.5,4.8-1.4,7.3c0,7.4,3.8,11.4,8,13.1c1.9,0.7,3.9,1,6,1c3.2,0,6.3-0.7,9.2-2l-0.1-6.2c-0.7,0.4-1.3,0.8-2.1,1.1
			c-1.9,1-4.1,1.6-6.3,1.6c-2.9,0.1-5.6-1.3-7-3.7c-0.5-0.8-0.8-1.8-1-2.7L479.2,32z M461.1,26.9c0-1.4,0.5-2.8,1.2-4.1
			c1.1-1.7,3-2.7,5-2.7c1.7,0,3.4,0.8,4.3,2.3c0.9,1.3,1.3,2.9,1.3,4.5L461.1,26.9L461.1,26.9z M510,43.4V29.2
			c-0.1-5.1-0.2-8-1.7-10.3c-0.6-0.9-1.4-1.7-2.3-2.4c-1.6-1-3.4-1.4-5.3-1.4c-2-0.1-3.9,0.4-5.6,1.5c-1,0.5-1.8,1.2-2.5,2
			c-0.4,0.5-0.6,0.8-1.1,1.2v-4.3h-6.6c0.1,2.5,0.2,4.2,0.2,6.7v21.1h6.9v-13c0.1-3.3,0.2-6.2,2.7-8.1c0.9-0.9,2.2-1.3,3.5-1.2
			c0.7,0,1.4,0.1,2.1,0.3c0.9,0.4,1.5,1.2,1.9,2c0.8,2.1,1.1,4.3,0.9,6.5v13.4h6.9V43.4z"/>
	</g>
	<g>
		<path class="st1" d="M229.2,88.6c-0.5-1.5-1.5-3.8-3.4-4.5c-0.4-0.1-0.9-0.2-1.3-0.2c1.2-0.1,2.3-0.4,3.4-0.9
			c0.4-0.1,0.8-0.4,1.1-0.7c2.3-1.7,3.5-4.4,3.4-7.2c0-1.7-0.3-3.3-1.1-4.8c-0.3-0.6-0.7-1.2-1.2-1.7c-3-3.3-8.2-3.3-11.4-3.3h-11
			v37.4h7.3V87.1c1.3,0,2.6,0,3.9,0.1c0.5,0.2,1,0.4,1.5,0.7c1.4,1.6,2.4,3.4,2.9,5.4l3.5,9.4h8L229.2,88.6L229.2,88.6z M214.9,71
			h3.4c0.5,0,0.8,0.1,1.3,0.1c1.7-0.1,3.4,0.6,4.4,1.9c0.6,0.8,0.9,1.8,0.9,2.8s-0.3,2-0.9,2.9c-1.4,1.8-3.6,2.7-5.8,2.4h-3.3
			L214.9,71L214.9,71z M261.6,102.6c-0.1-3.4-0.2-5.8-0.2-9v-6.7c0.1-2.2-0.1-4.4-0.7-6.5c-0.5-1.3-1.3-2.5-2.3-3.5
			c-2.4-1.9-5.5-2.8-8.6-2.6c-3.1,0-6.2,0.6-9.1,1.9l0.2,6.2c0.8-0.7,1.7-1.3,2.7-1.7c1.7-0.8,3.5-1.2,5.4-1.2h0.7
			c1.7-0.1,3.3,0.7,4.3,2c0.7,1.2,1,2.6,1,4.1c-1.3-0.1-2.3-0.1-3.6-0.1h-0.3c-5.3,0-8.9,1-11,3c-3.4,3.2-3.5,8.6-0.2,12
			c1.7,1.8,4.1,2.7,6.6,2.6c2.1,0.1,4.2-0.4,6-1.5c1.2-0.7,2.3-1.8,2.9-3v4.1L261.6,102.6z M255.3,90.1c0,0-0.1,1.2-0.2,2
			c-0.2,3.4-2.9,6-6.3,6.1c-2.1,0.2-4-1.2-4.2-3.3c0-0.1,0-0.3,0-0.4c0-0.6,0.1-1.3,0.4-1.8c1.2-2.1,3.9-2.7,7.6-2.7
			C253.5,89.9,254.4,90,255.3,90.1L255.3,90.1z M268.7,63.1v6.7h6.9v-6.7C275.6,63.1,268.7,63.1,268.7,63.1z M268.7,74.8v27.7h6.9
			V74.8H268.7z M298.6,62.4c-1.2-0.3-2.5-0.4-3.8-0.5c-1.6,0-3.3,0.3-4.8,1c-2,0.9-3.5,2.7-4,4.8c-0.6,2.3-0.8,4.6-0.8,7H280v5.4
			h5.2v22.3h6.9V80.1h6v-5.4h-6c0-2.8,0.1-4.7,1.3-6c0.7-0.7,1.7-1.1,2.7-1c0.7,0.1,1.3,0.2,1.9,0.3L298.6,62.4L298.6,62.4z
			 M319.2,62.4c-1.2-0.3-2.5-0.4-3.8-0.5c-1.6,0-3.3,0.3-4.8,1c-2,0.9-3.5,2.7-4,4.8c-0.6,2.3-0.8,4.6-0.8,7h-5.2v5.4h5.2v22.3h6.9
			V80.1h6v-5.4h-6c0-2.8,0.1-4.7,1.3-6c0.7-0.7,1.7-1.1,2.7-1c0.7,0.1,1.3,0.2,1.9,0.3L319.2,62.4L319.2,62.4z M346.4,91.2v-2.8
			c0-7.4-3.4-14.1-11.9-14.1c-3.8-0.2-7.4,1.5-9.7,4.5c-0.4,0.4-0.8,0.8-1,1.4c-0.1,0.1-0.5,1-0.9,1.6c-1,2.3-1.5,4.8-1.4,7.3
			c0,7.4,3.8,11.4,8,13.1c1.9,0.7,3.9,1,6,1c3.2,0.1,6.3-0.6,9.2-2l-0.1-6.2c-0.1,0.1-1.2,0.8-1.9,1.2c-2,1-4.1,1.5-6.3,1.5
			c-2.9,0.2-5.7-1.2-7.1-3.7c-0.4-0.9-0.8-1.8-1-2.7L346.4,91.2z M328.2,86.1c0.2-1.4,0.6-2.8,1.3-4.1c1.1-1.7,3-2.7,5-2.7
			c1.7,0,3.3,0.8,4.2,2.3c0.9,1.3,1.4,2.9,1.4,4.5L328.2,86.1L328.2,86.1z M352.1,63.1v6.7h6.9v-6.7C359,63.1,352.1,63.1,352.1,63.1
			z M352.1,74.8v27.7h6.9V74.8H352.1z M382.4,75.5c-2.3-0.7-4.7-1.1-7-1.1c-3.1-0.1-6.1,0.9-8.6,2.9c-1.5,1.5-2.3,3.5-2.3,5.6
			c0,1.8,0.6,3.6,1.8,5c1.9,1.9,4.4,3.2,7,3.7c1.2,0.5,3.2,1.1,3.2,2.9s-1.9,3-4.8,3c-2.3-0.1-4.6-0.7-6.7-1.8l-0.3,6
			c2.5,0.8,5.2,1.2,7.8,1.2c1.7,0,3.4-0.2,5-0.7c1.7-0.6,3.2-1.7,4.3-3.2c1.1-1.4,1.7-3.2,1.6-5.1c0-3.1-1.7-5.9-4.4-7.2
			c-0.8-0.3-1.8-0.7-3.6-1.2c-1.2-0.4-2.4-0.9-3.6-1.6c-0.3-0.4-0.5-0.9-0.5-1.5c0-1.9,1.9-2.9,4.8-2.9c1.9,0.1,3.8,0.4,5.6,1
			L382.4,75.5L382.4,75.5z M412.4,91.2c0.1-0.9,0.1-1.9,0.1-2.8c0-7.4-3.4-14.1-12-14.1c-3.8-0.1-7.4,1.5-9.7,4.5
			c-0.4,0.4-0.7,0.9-1,1.4c0,0.1-0.5,1-0.8,1.6c-1,2.3-1.5,4.8-1.4,7.3c0,7.4,3.8,11.4,8,13.1c1.9,0.7,3.9,1.1,6,1
			c3.2,0,6.3-0.7,9.2-2l-0.1-6.2c-0.2,0.1-1.2,0.8-2.1,1.2c-2,1-4.1,1.5-6.3,1.5c-2.9,0.2-5.6-1.2-7-3.7c-0.5-0.8-0.8-1.8-1-2.7
			L412.4,91.2z M394.3,86.1c0-1.4,0.5-2.8,1.2-4.1c1.1-1.7,3-2.7,5-2.7c1.7,0,3.4,0.8,4.3,2.3c0.9,1.3,1.3,2.9,1.3,4.5L394.3,86.1
			L394.3,86.1z M443.2,102.6V88.4c-0.1-5.1-0.2-8-1.7-10.3c-0.6-0.9-1.4-1.7-2.3-2.4c-1.6-1-3.4-1.4-5.3-1.4c-2,0-3.9,0.5-5.6,1.5
			c-1,0.5-1.8,1.2-2.5,2c-0.4,0.5-0.7,0.8-1.1,1.2v-4.3H418c0.1,2.5,0.2,4.2,0.2,6.7v21.1h6.9v-13c0.1-3.3,0.2-6.2,2.7-8.1
			c0.9-0.9,2.2-1.3,3.5-1.2c0.7,0,1.4,0.1,2.1,0.5c0.9,0.4,1.6,1.1,1.9,1.9c0.8,2.1,1.1,4.3,0.9,6.5v13.4L443.2,102.6z M450.5,62.1
			v40.5h6.5v-4.3c0.1,0.1,0.5,1,1.1,1.7c1.8,2.1,4.5,3.3,7.3,3c1.6,0,3.1-0.3,4.5-0.9c0.8-0.4,1.5-1,2.2-1.6
			c3.1-3.3,4.8-7.8,4.4-12.3c0.1-2-0.2-4-0.9-5.9c-0.9-4.8-5.2-8.2-10.1-8c-2.7-0.1-5.2,1-7,2.9c-0.3,0.5-0.7,0.9-1.2,1.8V62
			L450.5,62.1L450.5,62.1z M463.7,80.1c1.3,0.1,2.6,0.6,3.6,1.6c0.4,0.5,0.8,1.1,1.1,1.7c0.7,1.6,1,3.4,1,5.2
			c0.1,2.8-0.8,5.5-2.7,7.6c-2.2,1.7-5.3,1.5-7.1-0.6c-0.5-0.6-0.9-1.2-1.2-1.9c-0.7-1.5-1-3.1-1-4.7c0-2.5,0.6-6.8,4.2-8.3
			C462.3,80.3,463,80.2,463.7,80.1L463.7,80.1z M504.6,102.6c-0.1-3.4-0.1-5.8-0.1-9v-6.7c0.1-2.2-0.1-4.4-0.8-6.5
			c-0.5-1.3-1.3-2.5-2.3-3.5c-2.4-1.9-5.4-2.8-8.4-2.6c-3.1,0-6.2,0.6-9.1,1.9l0.1,6.2c0.8-0.7,1.7-1.2,2.7-1.7
			c1.7-0.8,3.5-1.2,5.4-1.2h0.8c1.7-0.1,3.3,0.7,4.3,2c0.7,1.2,1,2.6,1,4.1c-1.3-0.1-2.3-0.1-3.6-0.1h-0.3c-5.3,0-8.9,1-11.2,3
			c-1.7,1.5-2.6,3.7-2.5,6c-0.1,3.4,1.6,8.6,9,8.6c2.1,0.1,4.2-0.4,6-1.5c1.2-0.7,2.2-1.8,2.9-3v4.1L504.6,102.6z M498.3,90.1
			c0,0.7,0,1.4-0.1,2c-0.2,3.3-2.9,6-6.3,6.1c-2.1,0.2-4-1.2-4.2-3.3c0-0.1,0-0.3,0-0.4c0-0.6,0.1-1.3,0.4-1.8
			c1.2-2.1,3.9-2.7,7.6-2.7C496.6,89.9,497.5,90,498.3,90.1L498.3,90.1z M536.7,102.6V88.4c-0.1-5.1-0.1-8-1.7-10.3
			c-0.6-1-1.3-1.8-2.3-2.4c-1.6-0.9-3.4-1.4-5.2-1.4c-2-0.1-3.9,0.4-5.6,1.5c-1,0.5-1.9,1.2-2.6,2c-0.4,0.4-0.7,0.8-1,1.2v-4.3h-6.7
			c0.1,2.5,0.2,4.2,0.2,6.7v21.1h6.9v-13c0.1-3.3,0.3-6.2,2.7-8.1c0.9-0.9,2.2-1.3,3.5-1.2c0.7,0,1.4,0.1,2.1,0.5
			c0.9,0.4,1.6,1.1,1.9,1.9c0.8,2.1,1.1,4.3,1,6.5v13.4L536.7,102.6z M550.9,62.1h-6.8v40.5h6.8V88.8c1.2,2,2.1,3.4,3.4,5.3l5.8,8.5
			h8.6L557.4,87l10-12.2h-8l-6,7.8c-1,1.2-1.6,2.1-2.5,3.4V62.1L550.9,62.1z M595.4,91.2v-2.8c0-7.4-3.4-14.1-11.9-14.1
			c-3.8-0.2-7.4,1.5-9.7,4.5c-0.4,0.4-0.7,0.9-1,1.4c-0.1,0.1-0.5,1-0.9,1.6c-0.9,2.3-1.3,4.8-1.3,7.3c0,7.4,3.7,11.4,7.9,13.1
			c1.9,0.7,4,1,6.1,1c3.1,0,6.3-0.6,9.1-2V95c-0.2,0.1-1.3,0.8-2.1,1.2c-2,1-4.1,1.5-6.3,1.5c-2.9,0.2-5.7-1.2-7.1-3.7
			c-0.4-0.9-0.8-1.8-1-2.7L595.4,91.2z M577.1,86.1c0.2-1.4,0.6-2.8,1.3-4.1c1.1-1.7,3-2.7,5-2.7c1.7,0,3.4,0.8,4.3,2.3
			c0.8,1.4,1.3,2.9,1.3,4.5L577.1,86.1L577.1,86.1z M626,102.6V88.4c-0.1-5.1-0.1-8-1.7-10.3c-0.6-1-1.3-1.8-2.3-2.4
			c-1.6-0.9-3.4-1.4-5.2-1.4c-2,0-3.9,0.5-5.6,1.5c-1,0.5-1.8,1.2-2.6,2c-0.3,0.5-0.7,0.8-1,1.2v-4.3H601c0.1,2.5,0.1,4.2,0.1,6.7
			v21.1h7v-13c0-3.3,0.2-6.2,2.7-8.1c0.9-0.9,2.2-1.3,3.5-1.2c0.7,0,1.4,0.1,1.9,0.5c0.9,0.4,1.6,1.1,2.1,1.9
			c0.8,2.1,1.1,4.3,0.9,6.5v13.4L626,102.6z"/>
	</g>
</g>
</svg>
