<?xml version="1.0" encoding="utf-8"?>
<!-- Generator: Adobe Illustrator 26.0.3, SVG Export Plug-In . SVG Version: 6.00 Build 0)  -->
<svg version="1.1" id="final_2-color_logo" xmlns="http://www.w3.org/2000/svg" xmlns:xlink="http://www.w3.org/1999/xlink" x="0px"
	 y="0px" viewBox="0 0 432 432" style="enable-background:new 0 0 432 432;" xml:space="preserve">
<style type="text/css">
	.st0{fill:#EBB700;}
	.st1{fill:#244F9A;}
</style>
<g>
	<path class="st0" d="M415.2,223.2c0-3.2-1.2-6.4-3-9.8l-0.5-0.9l0,0h0l0,0l-0.5-0.9c-9-17-20.8-34.6-24.1-38.8l0-0.1l0-0.1
		c-0.7-1.2-1.5-3.7-1.8-6.4c-0.4-3-0.2-5.9-0.4-7.6c-0.2-1.4-0.9-2.3-1.9-3.8c-1-1.4-2.3-2.9-3.6-4.8c-1.9-2.6-3.9-5.5-5.5-7.8
		c-0.8-1.1-1.5-2.2-2-3c-0.5-0.8-0.8-1.2-0.9-1.4c-0.7-1.3-1.4-2.2-1.8-2.9c0-0.1-0.1-0.2-0.1-0.3l-0.1-0.3l0.1-0.3
		c0.2-1.1,0.5-3,0.5-5.4c0-0.1,0-0.1,0-0.2c0-0.1,0-0.1,0-0.2c0-6.6-2.7-17-14.7-23.9c-3-1.7-5.6-3.3-8-4.8l-1.1-0.7l0.9-0.9
		c2.2-2.2,3.6-5.3,3.6-8.5c0-0.1,0,0,0-0.1v0v0c0-3.4-1.4-6.6-3.7-8.8l-0.4-0.4c-33.4-32.6-79.3-52.8-129.9-52.8h0
		c-0.1,0-0.1,0-0.1,0h-0.1c0,0,0,0,0,0c-50.6,0-96.5,20.2-130.1,53l-0.1,0.1c-2.4,2.3-3.9,5.5-3.9,8.9v0.1v0.2
		c0,2.3,0.7,4.5,1.9,6.4l0.6,0.9l-1,0.5c-1.5,0.8-3.4,1.8-5.3,3c-3.1,2-6.1,4.2-7.3,6.8c-1,2.3-0.9,3.4-1.8,5.6
		c-0.8,2-2.1,4.6-3.4,7c-1.3,2.4-2.4,4.4-2.9,5.4c-0.6,1.3-0.7,2.8-0.7,4.4c0,1.8,0.2,3.5,0.3,4.6l0.1,0.6l-0.5,0.4
		c-3.8,2.8-12.1,10.4-12.1,24.4c0,1.4,0.1,2.9,0.3,4.5l0,0.4l-0.3,0.3c-4.5,5.6-24,30.2-29.9,45.4c-0.3,0.9-1.1,1.7-1.8,3.2
		c-0.7,1.4-1.3,3.2-1.4,5.6v0.1c0,0.1,0,0.2,0,0.3c0,2.9,0.9,5.9,4.2,9l1.2,1.1l0.2,0.2c0.2,0.1,0.3,0.2,0.5,0.4
		c0.3,0.2,0.8,0.6,1.5,1c4.5,2.8,13.9,9.5,18.5,20l0,0l0,0c0,0.1,0.1,0.2,0.1,0.4c0.2,0.5,0.2,0.5,0.7,1c0.4,0.3,0.2,0.1,0.5,0.2
		c0.4,0.1,0.7,0.1,1.3,0.2c1.5,0.2,3.7,0.4,4.2,0.4h0.3c0.2,0,0.4-0.1,0.6-0.2l0.6-0.2l0.5,0.5c0.2,0.2,0.3,0.4,0.5,0.5
		c2.2,2.1,6.1,4.4,13.1,4.5h0c0,0,0.1,0,0.1,0v0c0,0,0-0.1,0-0.1l-1.1-0.6c-1.2-0.9-3.2-3.2-5.4-8.8l-0.3-0.8l0.8-0.4
		c4.5-2.4,11.1-5.4,18.7-7.3l0.3-0.1l0.3,0.2c2.1,1,4.1,2.2,5.3,3.6l0.4,0.5l-0.2,0.6c0,0-0.5,1.4-1.1,3.7c-0.6,2.3-1.1,5.6-1.1,9.3
		c0,2.3,0.2,4.7,0.8,7.1l0.1,0.6l-0.5,0.4c0,0-0.3,0.2-0.7,0.5c-0.4,0.4-1.1,0.9-1.8,1.6c-1.4,1.4-2.9,3.4-3.8,5.6l-0.1,0.3
		l-0.3,0.2c-0.3,0.2-0.6,0.3-0.9,0.5l-0.9,0.5l-0.4-1c-0.4-0.9-0.8-1.7-1.1-2.6c-1.3-3.4-2-6.3-2.3-7.4l0,0l-0.1-0.4c0,0,0,0-0.1,0
		c0,0,0,0-0.1,0c-2.3,4.6-3,8.6-3,11.9v0c0,0.6,0,1.2,0.1,1.8l0.1,1.6l-1.5-0.6c-0.2-0.1-0.5-0.2-0.8-0.2h0c-0.1,0-0.3,0-0.5,0
		c-0.8,0.1-1.3,0.8-1.5,1.2c-0.3,0.5-0.3,0.8-0.3,0.9l0,0v0v0v0c0,0,0,0,0,0c0,0,0,0.1,0,0.1c0,0.1-0.1,0.3-0.1,0.6
		c-0.1,0.5-0.2,1.2-0.3,2.1c-0.2,1.8-0.4,4.2-0.4,6.7c0.1,4.6,0.5,9.9,3.9,13.5c5.2,5.2,14.4,14.6,14.9,15.2l0,0l0.1,0.1
		c0.1,0.1,1.3,1.2,3.4,2l1.2,0.4l-0.7,1.1c-1.4,2-2.2,4.4-2.2,6.9c0,0.1,0,0,0,0h0l0,0.1c0,3.4,1.4,6.6,3.7,8.8l0.4,0.4
		c28.8,28.1,67,47,109.4,51.7l0.6,0.1l0.2,0.6c3,7.9,10.6,13.5,19.6,13.5c8.9,0,16.5-5.6,19.6-13.5l0.2-0.6l0.6-0.1
		c42.6-4.6,81-23.5,110-51.8l0.1-0.1c0,0,1-1.1,2-2.8c1-1.7,2-3.8,2-6.2c0-0.1,0-0.1,0-0.1c0-2.4-0.8-4.8-2-6.8l-0.7-1.1l1.3-0.4
		c2.4-0.7,4-2,4.9-3.1c0.3-0.4,0.5-0.7,0.8-1.2c0.9-1.8,2.4-5.2,3.9-8.5s3.2-6.6,4.3-7.9c1.3-1.7,5.1-4.3,5.2-8.8c0-0.2,0-0.3,0-0.4
		c-0.1-1.8-0.8-3.4-1.5-4.8c-0.3-0.7-0.6-1.2-0.9-1.7c-0.1-0.1-0.1-0.2-0.2-0.3l-0.2-0.4l0.2-0.5c0.6-1.4,1.3-3.6,1.3-6.6v0
		c0-2.9-0.6-6.4-2.6-10.4c0,0,0,0,0,0h0c0,0,0,0,0,0v0c0,0,0,0,0,0c0,0,0,0.1,0,0.1c0,0.1,0,0.2-0.1,0.4c-0.1,0.4-0.2,0.9-0.4,1.5
		c-0.3,1.2-0.9,2.9-1.6,4.8c-0.6,1.6-1.3,3.2-2.2,4.8l-0.5,1l-0.9-0.7c-11.2-8.2-12.4-21.5-12.4-27.1c0-1.7,0.1-2.8,0.1-2.8l0.1-0.6
		l0.5-0.2c4-1.6,8.2-2.2,12.2-2.2c3.3,0,6.5,0.4,9.3,1l0.2,0l0.2,0.1c0.5,0.4,1,0.7,1.4,1.1c0.2,0.2,0.5,0.4,0.8,0.5l0.7,0.5
		l-0.4,0.8c-1.5,3.1-2.9,5.3-4.1,6.8c-1,1.2-1.9,2-2.5,2.4c-0.3,0.2-0.5,0.4-0.7,0.5c-0.1,0-0.1,0.1-0.2,0.1l-0.1,0c0,0,0,0,0,0
		h-0.1l0.1,0c0,0,0,0,0.1,0l0,0c7.2-0.6,12-2.5,15.1-4.6l0.4-0.2l0.4,0.1c0.4,0.1,0.8,0.2,1.3,0.2c0.3,0,0.6,0,0.9,0
		c0.1,0,0.1,0,0.1,0h0c2.6,0,5.3-1.1,7.3-3.4c7.4-8.3,18.7-15.9,23.5-21c1.7-1.8,2.6-4,2.8-6.2h0L415.2,223.2z"/>
	<path class="st1" d="M398,201.2c0,0-0.7,2.9-8.8-2.4c0,0,4.9,6.2,8.4,7.2C401.2,207.1,399.3,202.3,398,201.2z M390.6,189.3
		c0,0-0.1,3.5-7,1.1c0,0,3.3,5.1,8,6.1C396.6,197.6,393.3,192.2,390.6,189.3z M387.7,185c-5.2-7-7.8-9.5-9.8-22.6
		c-1.8-11.7-27.1,0-27.1,0c-12.5,3.1-17.3-0.1-19.1-2.5c0-0.1-0.5-0.4-0.2,0.2c6.9,15.2,21.9,7.3,21.9,7.3l2.8,2.8
		c-0.6-1.6-0.8-4-0.4-7.4c0.6-0.2,1.6-0.6,2.7-0.9c0.7,0.9,0.8,1.5,0.8,2.9c0.1,1.4-0.7,3.2-0.7,4.4c0,1.1,0.8,1.6,0.8,1.6
		c2.9-1.7,5-5.8,6.1-8.4c0.7,0.2,1.5,0.4,2.2,0.7c-1.4,7.2-6.2,10.4-9,9.6c-0.1,0-0.3-0.1-0.4-0.1c-8.8,4-3.6,5.1-3.6,5.1
		c7.3,0,13.9-5,13.9-5c2.4,1.2,5,7.1,5,7.1c2.7,0.3,7.3,2.7,7.3,2.7C385.6,186.8,387.7,185,387.7,185z M77.6,217.4
		c-0.2-1.1-17.2,3.4-31,14.7c0,0-3.1,2.4-2.9,3.5c0.4,2.1,2.9,0.8,3.5,0.1C58,225.1,77.8,218.5,77.6,217.4z M276.4,323l4.9,10.5
		l6.4,11.3l0,0.1l-17.2-19.1l-3.7,1.7l13.7,29.3l3.9-1.8l-5-10.8l-5.2-9.5l-1.1-1.8l0-0.1l17.4,19.4l3.6-1.7l-13.6-29.3L276.4,323z
		 M38.1,193.1c-1.6,2.6-2.9,4.8-4.2,7.3c0,0,0,0,0,0c-1.4,2.7-3.7,7.1-4.7,9.1c2.5,0.5,5.4,0,8.4-2.2c0.3-8.4,8.4-26,8.4-26
		C43.7,184.1,40.3,189.6,38.1,193.1C38.1,193.1,38.1,193.1,38.1,193.1z M52.1,240.3c0,0-2.5,2.1-2.4,3c0.3,1.8,2.3,0.6,2.8,0.1
		c8.8-9.1,24.6-14.9,24.5-15.8C76.9,226.5,63.3,230.6,52.1,240.3z M160.9,100.3l11.9-5.1L155,54.1l-11.9,5.1l0.2,0.5L160.9,100.3z
		 M251,68l10.4,29.8l11.8,4l14.4-42.5l-12.2-4.1l-8,23.6L257,49l-11.8-4l-14.4,42.5l12.2,4.1L251,68z M199.5,90.5L199.5,90.5
		c0.9,0,1.8,0,2.7-0.1c13.3-1.2,22.4-11.1,22.4-24c0-0.9,0-1.8-0.1-2.7c-1.2-12.6-12.4-20.7-24.2-20.7c-0.8,0-1.6,0-2.4,0.1
		c-12,1.1-22.5,10.6-22.5,23c0,0.7,0,1.4,0.1,2.1C176.7,81.5,186.6,90.5,199.5,90.5z M199,55.4c0.4,0,0.7,0,1.1,0h0
		c5.8,0,10.8,4.4,11.3,9.6l0,0c0,0.4,0.1,0.9,0.1,1.3c0,6.4-4.5,11.3-10.3,11.8c-0.4,0-0.7,0.1-1.1,0.1c-5.8,0-10.8-4.4-11.4-11
		c0-0.3,0-0.6,0-0.8C188.5,61,193,55.9,199,55.4z M281.3,101.9c2,5.3,5.3,10,10.1,13.3c3.3,2.3,7.3,3.8,11.4,3.8c0.5,0,1,0,1.5-0.1
		c4.8-0.5,8.4-3.8,10.9-7.4c1.6-2.3,2.3-4.6,2.3-6.7c0-3.6-1.9-6.9-4.4-10l-1.9-2.3c-0.7-0.9-1.4-1.8-1.8-2.7
		c-0.2-0.5-0.3-1-0.3-1.3c0-1.3,1-2,2.5-2c0.9,0,1.8,0.3,2.7,0.9c2.2,1.5,3.5,3.8,4.2,6.4l0.2,0.7l10.3-5.5l-0.2-0.5
		c-2-4.2-5.6-8.5-9.5-11.2l0,0c-3-2.1-6.3-3.1-9.4-3.1c-4.7,0-9.1,2.3-12.2,6.8c-1.8,2.6-2.6,5-2.6,7.1c0,3.8,2.4,6.9,5.3,10.5
		c1.2,1.4,3.2,3.8,3.1,5.6c0,0.5-0.1,0.9-0.4,1.3c-0.7,1-1.6,1.4-2.6,1.4c-1,0-2.2-0.4-3.1-1.1c-3.1-2.1-4.5-5.6-5.4-9.2l-0.2-0.7
		l-10.7,5.5L281.3,101.9z M132.2,120.8l20.4-16.7l-7.1-8.7l-10.4,8.5l-21.3-26l-10,8.2l0.4,0.5L132.2,120.8z M394.8,207.6
		c7.7,8.4,7.8,3,7.8,3C400.8,211.9,394.8,207.6,394.8,207.6z M416.2,223.3c0-3.8-1.5-7.4-3.5-11.2l0,0l0,0h0l0,0
		c-9.1-17.3-21.2-35.5-24.7-39.8c-0.6-1-1.4-3.4-1.6-6.1c-0.4-2.9-0.2-5.8-0.4-7.6c-0.2-1.7-1.1-2.8-2.1-4.2c-1-1.4-2.3-3-3.6-4.8
		c-1.9-2.6-3.9-5.5-5.5-7.8c-1.6-2.3-2.8-4.1-2.9-4.3c-0.8-1.3-1.5-2.4-1.7-2.8c0-0.1-0.1-0.2-0.1-0.3c0.2-1.2,0.5-3.2,0.5-5.6
		c0-0.1,0-0.1,0-0.2c0-6.9-2.7-17.8-15.2-24.9c-3-1.7-5.6-3.3-7.9-4.8c2.4-2.4,3.9-5.8,3.9-9.3c0,0,0,0,0,0v-0.1v0
		c0-3.7-1.5-7.2-4.1-9.6l-0.4-0.4C313.1,46.7,267,26.4,216.1,26.4h0c0,0,0,0-0.1,0h0c0,0-0.1,0-0.1,0c-50.9,0-97,20.3-130.8,53.2
		L85,79.8c-2.6,2.5-4.2,5.9-4.2,9.7l0,0c0,0,0,0,0,0.1c0,0,0,0,0,0c0,2.5,0.8,5,2.1,7.1c-1.5,0.8-3.5,1.8-5.4,3.1
		c-3.2,2-6.3,4.2-7.7,7.2c-1.1,2.5-1,3.6-1.8,5.6c-0.7,1.9-2.1,4.5-3.3,6.8c-1.3,2.3-2.4,4.3-2.9,5.4c-0.7,1.5-0.8,3.1-0.8,4.8
		c0,1.8,0.2,3.6,0.4,4.8c-4,2.9-12.5,10.8-12.5,25.2c0,1.5,0.1,3,0.3,4.6c-4.5,5.6-24,30.2-30.1,45.7c-0.4,1.1-3.2,4-3.2,9.1v0.1
		c-0.1,3.2,1,6.7,4.6,10.1l1.2,1.1l0.2,0.2c0.1,0.1,0.6,0.5,2.2,1.5c4.4,2.7,13.7,9.4,18.2,19.5c0,0.1,0.1,0.3,0.2,0.5
		c0.2,0.3,0.3,0.7,0.9,1.3c0.5,0.4,0.6,0.3,0.8,0.4c0.5,0.1,0.9,0.2,1.5,0.3c1.7,0.2,4.3,0.4,4.3,0.4l0.4,0c0.3,0,0.6-0.1,0.9-0.2
		c0.2,0.2,0.3,0.4,0.5,0.5c2.4,2.4,6.6,4.6,13.8,4.8h0c0.5,0,1-0.4,1.1-1c0.1-0.5-0.3-1-0.8-1.1l0,0c-0.3-0.1-2.9-1.4-5.8-8.8
		c4.5-2.4,10.9-5.4,18.4-7.2c2,1,3.9,2.1,4.9,3.4c0,0-3.9,9.9-1.5,20.7c0,0-4.7,3.3-6.6,8.3c-0.3,0.2-0.6,0.3-0.9,0.5
		c-0.4-0.9-0.8-1.7-1.1-2.5c-1.6-4.2-2.3-7.6-2.3-7.6c-0.1-0.4-0.5-0.8-0.9-0.8c-0.4-0.1-0.9,0.2-1.1,0.6c-2.3,4.8-3.1,9-3.1,12.4
		c0,0.6,0,1.2,0.1,1.8c-0.3-0.1-0.7-0.2-1.2-0.2c-0.2,0-0.4,0-0.7,0.1c-1.2,0.2-1.9,1.1-2.2,1.7c-0.3,0.6-0.4,1-0.4,1.2l0,0.1
		c0,0-0.9,4.6-0.9,9.8c0.1,4.7,0.5,10.3,4.2,14.2c5.4,5.4,15,15.2,15,15.3l0.1,0.1c0.2,0.1,1.5,1.4,3.7,2.2
		c-1.5,2.1-2.3,4.8-2.3,7.5c0,0,0,0,0,0.1l0,0c0,3.7,1.6,7.2,4.1,9.6l0.4,0.4c29,28.3,67.3,47.3,110,52c3.1,8.3,11.1,14.2,20.5,14.2
		c9.4,0,17.3-5.9,20.5-14.1c42.9-4.6,81.4-23.6,110.6-52.1l0.1-0.1c0-0.1,1-1.2,2.1-2.9c1-1.7,2.1-4,2.1-6.7c0-0.1,0-0.1,0-0.1
		c-0.1-2.6-0.8-5.2-2.2-7.3c2.6-0.8,4.3-2.2,5.4-3.5c0.4-0.5,0.6-0.8,0.9-1.4c1-1.9,2.4-5.2,4-8.5c1.5-3.3,3.2-6.6,4.2-7.7
		c1-1.4,5.3-4.4,5.4-9.4c0-0.2,0-0.4,0-0.5c-0.1-2-0.9-3.8-1.6-5.2c-0.3-0.7-0.7-1.3-0.9-1.7c-0.1-0.1-0.1-0.2-0.2-0.3
		c0.6-1.5,1.4-3.8,1.4-7c0-3-0.7-6.7-2.8-10.9c-0.2-0.4-0.6-0.6-1.1-0.6c-0.5,0.1-0.8,0.4-0.9,0.8c0,0-0.6,3-2,6.7
		c-0.6,1.5-1.3,3.1-2.1,4.6c-14-10.2-11.9-29-11.9-29c7.2-2.9,14.8-2.4,20.9-1.2c0.5,0.4,1,0.7,1.5,1.1c0.2,0.2,0.5,0.4,0.8,0.5
		c-1.4,3.1-2.8,5.1-4,6.5c-1,1.2-1.8,1.8-2.3,2.2c-0.3,0.2-0.5,0.3-0.6,0.4c-0.1,0-0.1,0-0.1,0.1l0,0c-0.5,0.2-0.8,0.7-0.7,1.2
		c0.1,0.5,0.5,0.8,1,0.8c0,0,0.1,0,0.1,0c7.3-0.6,12.3-2.5,15.6-4.8c0.5,0.1,1,0.2,1.4,0.2c0.3,0,0.6,0,1,0c0.1,0,0.1,0,0.1,0
		c2.9,0,5.8-1.2,8-3.7c7.2-8.1,18.5-15.8,23.4-21C415.2,229,416.2,226.2,416.2,223.3L416.2,223.3L416.2,223.3L416.2,223.3z M90,85.2
		l0.3-0.3c32.4-31.6,76.7-51.1,125.6-51.1h0.2c48.9,0,93.2,19.5,125.6,51.1l0.3,0.3c1.1,1.1,1.8,2.6,1.8,4.3c0,1.6-0.6,3.1-1.8,4.2
		l-3.4,3.3c-0.7,0.7-1,1.6-1,2.6c0,0.3,0,0.6,0.1,0.8l0,0c0.4,1.7,0.6,3.4,0.6,5.1c0,12.1-9.8,21.8-21.8,21.8
		c-1.6,0-3.2-0.2-4.7-0.5l0,0l-0.1,0c-0.3-0.1-0.6-0.1-0.9-0.1c-1,0-1.9,0.4-2.6,1.1l0,0l-3,3c-1.1,1.1-2.6,1.9-4.3,1.9
		c-1.7,0-3.2-0.7-4.3-1.9c-11.6-11.6-25.7-20.7-41.5-26.5c-12.2-4.5-25.3-7-39.1-7c-13.7,0-26.8,2.5-39,7
		c-15.8,5.8-29.9,14.9-41.5,26.5c-1.1,1.2-2.6,1.9-4.3,1.9c-1.7,0-3.2-0.8-4.3-1.9l-3-3l-0.1-0.1c-0.7-0.7-1.6-1.1-2.6-1.1
		c-0.3,0-0.6,0-0.9,0.1l-0.1,0l0,0c-1.5,0.3-3.1,0.5-4.7,0.5c-12,0-21.8-9.8-21.8-21.8c0-1.8,0.2-3.5,0.6-5.1l0,0
		c0.1-0.3,0.1-0.5,0.1-0.8c0-1-0.3-1.9-1-2.6L90,93.7c-1.1-1.1-1.8-2.6-1.8-4.2C88.2,87.8,88.9,86.3,90,85.2z M316.1,140.7
		c0,0,0.3,9.6,7,13.4C320.6,154,311.6,155.4,316.1,140.7z M319.8,209.6c0,28.7-11.6,54.6-30.4,73.4c-18.8,18.8-44.7,30.4-73.4,30.4
		s-54.6-11.6-73.4-30.4c-18.8-18.8-30.4-44.7-30.4-73.4s11.6-54.6,30.4-73.4c18.8-18.8,44.7-30.4,73.4-30.4
		c28.7,0,54.6,11.6,73.4,30.4C308.2,155,319.8,180.9,319.8,209.6z M62.1,256.9c-4.6-0.6-7.3-2.3-9-3.9c-0.2-0.1-0.1-0.2-0.3-0.3
		l0.6-0.4c0,0,1.1-0.8,3.1-2c0.4-0.3,0.9-0.5,1.4-0.9C59.4,253.1,60.9,255.4,62.1,256.9z M69.5,267.2c1,3.7,3.2,9.9,6.8,14.5
		c-0.9,0.5-2.8,1.3-4.8,1.3c-0.8,0-1.7-0.1-2.5-0.5c-0.6-1.5-1.2-3.7-1.2-6.7C67.8,273.4,68.2,270.5,69.5,267.2z M83.5,289.4
		c0,0-0.6,1.2-0.3,3.3c0,0-5.4-0.9-6.6-3c0,0,0.3,5.1,1.2,9c0,0-7.2-7.8-8.1-10.2c0,0,0.6,9.9,3.6,15.3c0,0-7-5.1-6.5-19.2l0,0
		c0.8,0.4,1.6,0.7,2.4,0.9l0,0c0.4,0.1,0.7,0.1,1.1,0.2c0.1,0,0.1,0,0.2,0c0.3,0,0.7,0.1,1,0c3.1,0,5.5-1.2,6.5-1.8
		c0.6,0.1,1.2,0.1,1.7,0.1c3.1,0,5.2-1.3,6.3-2.7c0.4-0.5,0.8-1,1-1.5c1.1,0.2,2.2,0.3,3.2,0.3c4.6,0,7.8-1.9,9.8-3.8
		c1.3-1.2,2.2-2.5,2.6-3.2c8-1.9,10-8.5,10-8.6l0.1-0.2l0-0.2c-1.2-18.1-9.2-25.9-9.4-26.1l-0.3-0.3l-0.4-0.1
		c-3.6-0.8-7.2-1.2-10.7-1.2c-0.8,0-1.6,0-2.5,0.1c-0.2,0-0.4,0-0.6,0c-0.8,0.1-1.6,0.1-2.4,0.2c0,0,0,0,0,0
		c-0.8,0.1-1.6,0.2-2.4,0.3c-0.2,0-0.4,0.1-0.6,0.1c-0.8,0.1-1.5,0.2-2.3,0.4c0,0,0,0,0,0c-0.8,0.1-1.5,0.3-2.3,0.5
		c-0.2,0-0.4,0.1-0.6,0.1c-0.7,0.2-1.4,0.3-2.2,0.5c0,0,0,0,0,0c-0.7,0.2-1.4,0.4-2.1,0.6c-0.2,0.1-0.3,0.1-0.5,0.2
		c-0.7,0.2-1.3,0.4-2,0.6c0,0,0,0,0,0c-0.7,0.2-1.3,0.5-2,0.7c-0.2,0.1-0.3,0.1-0.5,0.2c-0.6,0.2-1.2,0.5-1.8,0.7c0,0,0,0,0,0
		c-0.6,0.2-1.2,0.5-1.8,0.8c-0.1,0.1-0.3,0.1-0.4,0.2c-0.6,0.2-1.1,0.5-1.6,0.7c0,0,0,0,0,0c-0.6,0.2-1.1,0.5-1.6,0.8
		c-0.1,0.1-0.3,0.1-0.4,0.2c-0.5,0.2-0.9,0.5-1.4,0.7c0,0-0.1,0-0.1,0c-0.5,0.2-0.9,0.5-1.3,0.7c-0.1,0.1-0.2,0.1-0.4,0.2
		c-0.4,0.2-0.7,0.4-1.1,0.6c0,0-0.1,0-0.1,0.1c-2.3,1.3-4,2.4-4.7,2.9l-5.9-0.7c-0.3-0.6-0.6-1.3-1-1.9c-0.1-0.1-0.1-0.2-0.2-0.4
		c-0.3-0.6-0.7-1.2-1-1.8c-0.1-0.1-0.1-0.2-0.2-0.3c-0.3-0.6-0.7-1.1-1.1-1.6c0,0,0-0.1-0.1-0.1c-0.4-0.6-0.8-1.1-1.2-1.6
		c-0.1-0.1-0.1-0.2-0.2-0.3c-0.4-0.5-0.8-1-1.2-1.5c0-0.1-0.1-0.1-0.1-0.2c-0.4-0.5-0.8-1-1.3-1.4c0,0,0-0.1-0.1-0.1
		c-0.4-0.5-0.9-0.9-1.3-1.4l-0.2-0.2c-0.5-0.4-0.9-0.9-1.3-1.3l0,0l2.3-0.9c3-9.9,13.2-10.2,13.2-10.2c-1.2-7.5,1.8-13.5,1.8-13.5
		l-5.4,4.8c-13.3,1.1-20.9,5.6-25.1,9.5l0,0c-1-1.2-1.5-2.4-1.8-3.6c0-0.1,0-0.2-0.1-0.3c0-0.1-0.1-0.3-0.1-0.4c0-0.1,0-0.3-0.1-0.4
		c0-0.1,0-0.2,0-0.3c0-0.2,0-0.5,0-0.7c0-1.9,0.6-3.6,1.3-4.8c0.3-0.6,0.6-1.1,0.9-1.4c0.2-0.3,0.4-0.5,0.4-0.5l0.2-0.2l0.1-0.2
		c3-8,10.6-19.5,17.5-28.9c6.8-9.4,12.9-16.8,12.9-16.8l0.4-0.5l-0.1-0.6c-0.3-1.9-0.4-3.7-0.4-5.4c0-7.9,3-13.4,6-17.1
		c1.5-1.8,3-3.1,4.2-4c0.6-0.4,1-0.7,1.3-0.9s0.5-0.3,0.5-0.3l0.8-0.4l-0.6-8.6c4.7-8.2,8.4-18.2,9.3-20.6c0.8-0.4,1.6-0.8,2.3-1.3
		c0.2-0.1,0.5-0.3,0.7-0.4c0.5-0.3,1-0.6,1.5-0.9c0.3-0.2,0.5-0.3,0.8-0.5c0.4-0.3,0.8-0.5,1.3-0.8c0.2-0.2,0.5-0.3,0.7-0.4
		c0.4-0.3,0.8-0.5,1.2-0.8c0.2-0.1,0.4-0.3,0.6-0.4c0.4-0.3,0.8-0.5,1.1-0.8c0.1-0.1,0.3-0.2,0.4-0.3c0.9-0.7,1.7-1.3,2.4-1.8
		l0.8,0.8c-0.4,1.8-0.5,3.6-0.5,5.4c0,0,0,0,0,0.1c-3.1,1.6-6.5,3.1-10.2,4.4l-5.7,11.2c0,0,7.2-0.6,9.3,9.6c0,0,4.4-6.2,11.4-9.8
		c0.3,0.4,0.6,0.9,1,1.3c-3.1,2.2-6.2,5.4-7.6,10l2.7,1.2c0,0,4.7-3.8,10.3-6c1,0.8,2.1,1.4,3.3,2.1c-3.4,1.9-7.1,4.3-8.5,6.4
		l1.8,1.8c0,0,8.1-4.5,9.6,4.2s-7.8,10.2-10.5,10.2c0,0,0.3,3.3,3.6,6.6c0,0-7.2,5.7-17.4,0s-13.7-5-22.4-2.9c0,0-3.2,4.5-1.3,9.9
		c-1.9,1.9-3,1.7-5.1,7.6c-0.9,3.8-4.8,6.5-4.8,6.5s10.5,0.9,19.2-8.7c0,0,6.6,7.2,16.5-5.1c0,0,7.8,6.9,20.4-0.9
		c0,0-6,6.6-16.5,6.3c0,0,5.1,4.8,6.9,9.6c0,0-3.9-3.6-13.2-4.5c0,0,1.2,6.9,5.4,11.1c0,0-5.4-4.5-15.3-2.7c0,0,8.7,12.6,21.9,13.8
		c0,0-5.1,1.8-7.5,4.5c0,0,5.1,3.3,12.9,0.6c0,0-8.1,4.5-11.7,6c0,0,5.4,1.8,17.1-1.8c0,0.6,0,1.1,0,1.7c0,0.5,0,0.9,0,1.4
		c-0.2,2.1-0.7,5-2.1,7.7c0,0-5.4-4.8-10.8-6c0,0,6.3,8.7,2.7,18.6c0,0,2.2,3.5,11.1,3.1c0.7,0,1.3,0,1.8,0
		c2.6,11.7,7.1,22.8,13.1,32.8c-1.9,0.7-3.7,1.2-4.8,1.3l5.4,3c0,0-8.7,3-12.6,3.6c0,0,2.1,2.1,3.9,3.3c0,0-10.5,4.8-14.7,4.5
		c0,0,2.4,2.4,3.6,2.7c0,0-6.9,1.8-9,0.6l-0.6,4.8C91,290.9,85,291.5,83.5,289.4z M92.6,245.4c0.9-1,3.2-1.1,4.2-0.4
		c2.3,1.8,0.6,3.4-1.2,6.8c-2.9,5.5,1,9.4-1.9,14.9c-2.9,5.6-6.4,7.1-7.7,6.1c-1.9-1.5,0.9-4.5,1.9-7
		C89.8,260.7,85.3,253.1,92.6,245.4z M75,162.3c0,0,0.2-0.1,0.3-0.1c0.6,0.2,1.1,0.4,1.5,0.5c0.8,6.1-0.3,9-2.9,9.8
		c-2.8,0.8-7.6-2.3-9-9.6c0.6-0.2,1.3-0.4,2-0.6c0.9,2.8,2.9,7.2,5.6,8.8c0,0,0.6-0.3,0.5-1C72.8,168,72.2,163.5,75,162.3z M343,333
		c-0.2,0.3-0.8,0.9-0.9,1.2c-29.6,30.6-69.9,47.5-111.4,50.7c-0.6,7.6-6.9,13.6-14.7,13.6c-7.8,0-14.1-6-14.7-13.6
		c-41.5-3.2-81.8-20.1-111.4-50.7c-0.2-0.2-0.7-0.9-0.9-1.2c-0.8-1-1-2-1-3.4c0-2.1,1.5-3.7,2.7-4.9s2.6-2.6,2.6-2.6
		s0.6-0.7,0.8-1.4c0.2-0.7,0.1-1.4,0-1.6c-0.4-1.7-0.7-3.5-0.7-5.4c0-11.9,9.6-21.6,21.5-21.6c1.8,0,3.6,0.2,5.3,0.7
		c0.3,0.1,0.7,0.1,1.6,0c1.1-0.2,1.4-0.7,1.7-1s1.8-2,3.2-3.3c1.4-1.2,2.7-2.3,4.6-2.3c2.2,0,3.7,1.2,5.1,2.8
		c10.1,10.5,22.2,18.4,35.4,23.8c13.5,5.8,28.4,9,44.1,9c15.6,0,30.5-3.2,44-9c13.2-5.4,25.3-13.3,35.5-23.9c1.4-1.6,3-2.8,5.1-2.8
		c1.9,0,3,0.8,4.6,2.3s2.8,2.8,3.2,3.3c0.4,0.5,0.6,0.8,1.7,1c0.7,0.1,1.3,0.1,1.6,0c1.7-0.4,3.5-0.7,5.3-0.7
		c11.9,0,21.5,9.7,21.5,21.6c0,1.9-0.2,3.7-0.7,5.4c-0.1,0.3-0.2,0.9,0,1.6c0.2,0.7,0.8,1.4,0.8,1.4s1.6,1.6,2.6,2.6
		s2.7,2.9,2.7,4.9C344,330.9,343.8,332,343,333z M364.2,269.9c1,2.7,1.3,5.1,1.3,7.1c0,2.4-0.5,4.3-0.9,5.5c0,0.1-0.1,0.3-0.2,0.4
		l-1,0.3c-1,0.3-2.8,0.5-3.7,0.5c-0.8,0-1.8-0.2-2.6-0.4C361,279.6,363.2,273.5,364.2,269.9z M359.6,286.7c1.3,0,2.5-0.1,3.7-0.3
		c0.4,0.7,0.9,1.7,1.4,3.2c0.8,3.5-0.7,3.8-1.5,4.1c-8.8,3.5-9.1,15-14.2,12.9c-6.1-2.5,1.3-19.3,1.3-19.3s-11.9,4.4-14.4,2.5
		c-2.5-1.9,2.1-7.2,2.1-7.2s-10.4,2.6-12.4,1.1c-2.1-1.5,1.5-6.8,1.5-6.8s-7.1,3.4-10.2,1.7s3-7.6,3-7.6s-6.8,2.8-8.9,1.1
		c-0.5-0.4-0.6-1-0.5-1.8c2.9-4.4,5.4-9.1,7.6-13.9c0,0,0,0,0,0.1c-0.1,0.5-0.2,0.9-0.2,1.4l0,0c-0.2,1.5-0.4,3.1-0.4,4.6
		c0,2.8,0.5,5.5,2.2,7.5c2.5,2.8,8.9,6.8,16.6,10.4C343.8,283.7,352.5,286.6,359.6,286.7z M348.3,278.5c-0.2,0.2-7.9-1.8-12.2-9.7
		c-4.3-7.9,2.1-8.9-2.9-12.5c-5-3.6-5.9-8.3-1.8-9.7c2.1-0.7,3.9-0.4,7.5,1.8c3.6,2.2,2.9,5.7,3.2,16.1
		C342.6,275,348.5,278.3,348.3,278.5z M367,257.9c1.4-1.5,3.1-3.9,4.8-7.5c2.1,1.4,4.4,2.5,6.7,3.1C376,255.3,372.4,256.9,367,257.9
		z M411.4,224L411.4,224c0,0.2,0,0.5-0.1,0.7l-3.4-2.8l-1.8,1.8c-8.5-7.3-15.5-5.5-15.5-5.5l-8.5,5.5c11.5,0.7,14.2,8.9,14.4,15.6
		c0,0,0,0,0,0c-0.8,0.7-1.7,1.4-2.5,2.2c-0.1,0.1-0.2,0.2-0.3,0.2c-0.8,0.7-1.6,1.4-2.3,2.1c-0.1,0.1-0.1,0.1-0.2,0.2
		c-0.8,0.7-1.5,1.4-2.3,2.2c-0.2,0.2-0.3,0.3-0.5,0.5c-0.7,0.8-1.5,1.5-2.2,2.3c-1.4,1.6-2.9,2.1-4.5,2.1c-2.5,0-5.6-1.4-8.6-3.4
		c-0.7-0.4-1.4-0.9-2-1.4c-3.6-2.6-6.6-5.3-8.9-6.3c-2.5-1-8.7-2.5-16.2-2.5c-0.5,0-1,0-1.4,0c-0.2,0-0.5,0-0.7,0
		c-0.2,0-0.5,0-0.8,0c-0.3,0-0.6,0-0.9,0.1c-0.2,0-0.3,0-0.5,0c-0.4,0-0.7,0.1-1.1,0.1c-0.1,0-0.2,0-0.4,0c-0.4,0.1-0.8,0.1-1.2,0.2
		c-0.1,0-0.1,0-0.2,0c-0.5,0.1-0.9,0.1-1.4,0.2c0,0-0.1,0-0.1,0c-4.9,0.9-10,2.7-14.4,6.1c0.5-1.6,1-3.1,1.4-4.7
		c6.2-3,16.3-6.2,30.3-4.6c0,0-8.6-2.7-21.7-1.9l-2.2-2.7c0,0-2.1,1.1-4.8,3.2c0.3-1.2,0.5-2.4,0.7-3.5c3.3-2.1,6.8-3,6.8-3l2.4-7.9
		c-0.7-0.1-3.5-1.4-7.5-3.6c0.1-1.4,0.1-2.8,0.1-4.3c5.5,2.4,10.1,4.5,12,5.4c0,0-1.8-5.8,8.5-7c0,0-9.6-1.6-20.6-3.8
		c0-0.8-0.1-1.6-0.1-2.4c13.8,1.7,27.5,1.1,35.9-5.1c0,0-7.3,1.5-15.5,0.9c0,0,7.9-2.4,14.3-10.1c0,0-7.3,3.7-18.3,2.7
		c0,0,11-5.5,14.3-10.4c0,0-13.1,5.2-22.3,5.2c0,0,8.5-3.4,12.2-7l-11.2,0.9l3-4.6c0,0-14.7-4.3-17.7-16.5l5.4,0.7
		c0,0-4.5-16.4,5.2-21.1c-1.2-1.2-9.9-3.7-9.9-3.7s10.1-0.6,14.6,1.2c0,0-0.8-1.6-3.1-3.2c-2.2-1.6-5.2-2.7-5.2-2.7
		s11.3-0.6,14.6,2.7c0,0-3.4-6.1-6.1-8.2c0,0,6.7,2.1,10.7,6.7l2.8-0.3c0,0-0.6-6.4-3.7-11.6c0,0,6.1,4.6,8.8,11.9
		c0,0,2.2,3.1,8.1,2.4l-0.1,0.4l0.2,0.4c0,0,0.9,2.2,2.3,4.8c1.4,2.4,3.1,5.1,5.5,6.6c0.3,0.9,1,2.7,2.1,4.8
		c1.4,2.6,3.4,5.5,6.1,7.3v0.2c0,1.6,0,4.7,0.4,7.9c0.4,3.2,1,6.4,2.6,8.5c2.9,3.5,15.3,22,24.2,39.1c1.9,3.6,3,6.6,3,9
		C411.4,223.5,411.4,223.8,411.4,224z M216,115.1c-52.2,0-94.5,42.3-94.5,94.5s42.3,94.5,94.5,94.5s94.5-42.3,94.5-94.5
		S268.2,115.1,216,115.1z M270.5,265.4h-93.2V253h4.2c4.6,0,8.2-3.8,8.2-8.3l-0.1-80.1c0-4.6-3.7-8.3-8.3-8.3h-3.9V147h54.1v9.4
		l-4.3,0c-4.6,0-8.3,3.8-8.3,8.4l0,85.6h27c3.7,0,7-3.6,6.7-7.3c-0.1-1.1-0.2-2.8-0.2-4c0-7.1,4.1-13.4,10.3-16.5l6.1,6.1
		c-3.2,2.9-5.2,7.1-5.2,11.8c0,5.5,2.8,10.3,7,13.2L270.5,265.4z M50,236.1c0,0-2.8,2.3-2.7,3.3c0.3,2,2.6,0.7,3.2,0.1
		c9.8-10.1,27.6-16.5,27.4-17.5C77.7,220.9,62.5,225.3,50,236.1z M318.9,328.7l-18.4-21.9l-3.3,2.8l20.8,24.8l8.8-7.4l-2.4-2.9
		L318.9,328.7z M214.2,337.4l-6.5,32.4l4.2-0.1l1.1-6.3l6.4-0.1l1.3,6.3l4.3-0.1l-7.5-32.2L214.2,337.4z M218.8,360l-5.1,0.1
		l2.3-16.5h0.1l1.8,11.7L218.8,360z M236.7,335.8l-14.1,1.7l0.4,3.7l5-0.6l3.5,28.4l4.2-0.5l-3.5-28.4l4.8-0.6L236.7,335.8z
		 M216,374.4c-5,0-9,4-9,9s4,9,9,9c5,0,9-4,9-9S221,374.5,216,374.4z M216,390.5c-3.9,0-7.1-3.2-7.1-7.1c0-3.9,3.2-7.1,7.1-7.1
		c3.9,0,7.1,3.2,7.1,7.1C223.1,387.4,219.9,390.5,216,390.5z M255.4,331c-7.9,2.6-4.7,12.8-2.9,18.4c1.8,5.5,5.2,15.8,13.1,13.2
		s4.7-12.8,2.9-18.4C266.7,338.7,263.3,328.5,255.4,331z M264.4,358.7c-3.2,1-5.4-4.2-7.5-10.8c-2.1-6.5-3.4-12.1-0.2-13.1
		c3.2-1,5.4,4.2,7.5,10.8C266.3,352.1,267.6,357.7,264.4,358.7z M68.9,187.7C68,204.6,82.2,199,82.2,199
		C73.2,196,68.9,187.7,68.9,187.7z M287.3,316.6l11.7,30.9l3.5-2.3l-2.4-5.9l5.4-3.5l4.4,4.6l3.6-2.4l-23.4-23.3L287.3,316.6z
		 M292.1,320.9l7.8,9l3.3,3.5l-4.3,2.8L292.1,320.9L292.1,320.9z M239.8,335.3L246,367l4.2-0.8l-6.2-31.7L239.8,335.3z M218,383.6
		c1-0.4,1.8-1.3,1.7-2.7c0-1.9-1.4-3.1-3.8-3.2c-1,0-2,0.2-2.9,0.6l-0.2,0.1v10h2v-4.2h0.6c0.6,0,0.9,0.2,1.2,0.8l1.6,3.4h2.2
		l-1.9-3.9C218.4,384.2,218.2,383.9,218,383.6z M215.7,382.5h-0.8v-2.8c0.3-0.1,0.7-0.1,1.1-0.1c1.4,0,1.8,0.5,1.8,1.4
		C217.7,382.1,217.1,382.4,215.7,382.5z M353.7,213.7c-0.1,0.7,3.7,1.6,8.6,4.6c4.8,2.9,10.5,7.9,16.9,13.5c0.6,0.4-0.1,1.3-0.2,1.1
		c-16.9-13.1-33.6-15.1-33.4-12.9c0.1,0.9,3.9,0.9,8.6,2.7c6.9,2.6,16.3,7.4,23.2,12.4c0.5,0.3-0.1,0.8-0.4,0.8
		c-19.6-6.9-37.3-10.9-37.1-8.5c0.1,1,5.6,1.1,12.5,3c9.4,2.6,21.8,7.4,30,10.5c0.2-0.1,1.4,0.3,3.7-1.7c1.9-1.8,1.6-2.7,1.6-2.7
		C369.3,216.5,354.1,211.4,353.7,213.7z M127.8,303.7l-21.6,24l3.2,2.9l21.6-24L127.8,303.7z M143,315.6l-6.6,9.4l-6.6,11.2l-0.1,0
		l7.9-24.4l-3.4-2.4l-18.5,26.5l3.5,2.5l6.8-9.7l5.7-9.2l1-1.9l0.1,0l-8.1,24.7l3.3,2.3l18.5-26.5L143,315.6z M87.2,222.8
		c-2.5-7.9-8.4-9.9-8.4-9.9c6.6,12.6,1.9,21.1,1.9,21.1s7,0.8,11.4-2.8c3.4-10.5-4.5-19.4-4.5-19.4
		C88.6,216.6,87.2,222.8,87.2,222.8z M200.6,348.3l-0.8,13l-0.1,0.1l-4.1-25.4l-4.1-0.6l-4.5,32l4.2,0.6l1.6-11.8l0.9-10.8l0-2.1
		l0.1-0.1l4,25.7l3.9,0.5l4.5-32l-4.2-0.6L200.6,348.3z M180.2,332.5l-5-1.3l-8.4,31.2l4.1,1.1l4.1-15.3l0.1,0l1.5,16.8l4.3,1.1
		l-1.7-16.7c3.6,0.3,5.7-3.9,6.5-6.9C187.9,334.8,183.2,333.4,180.2,332.5z M181.2,342.3c-0.8,3.1-2.4,4.8-5.5,3.8l2.8-10.3l0.7,0.2
		C182.3,336.8,182,339.4,181.2,342.3z M165.6,346.5l1.4-3.5l-6-2.4l3.8-9.4l6.7,2.7l1.4-3.5l-10.7-4.3l-12.1,30l10.7,4.3l1.4-3.5
		l-6.7-2.7l4.1-10.2L165.6,346.5z M158.6,328.7l1.8-3.3l-12.5-6.7l-1.8,3.3l4.5,2.4l-13.4,25.2l3.8,2l13.4-25.2L158.6,328.7z"/>
</g>
</svg>
