<?xml version="1.0" encoding="utf-8"?>
<!-- Generator: Adobe Illustrator 26.0.3, SVG Export Plug-In . SVG Version: 6.00 Build 0)  -->
<svg version="1.1" id="final_2-color_logo" xmlns="http://www.w3.org/2000/svg" xmlns:xlink="http://www.w3.org/1999/xlink" x="0px"
	 y="0px" viewBox="0 0 432 432" style="enable-background:new 0 0 432 432;" xml:space="preserve">
<style type="text/css">
	.st0{fill:#FFFFFF;}
</style>
<path class="st0" d="M407.1,208.7c0,0-0.7,2.9-8.8-2.4c0,0,4.9,6.2,8.4,7.2C410.4,214.5,408.4,209.7,407.1,208.7z M399.7,196.8
	c0,0-0.1,3.5-7,1.1c0,0,3.3,5.1,8,6.1C405.7,205,402.4,199.7,399.7,196.8z M396.9,192.4c-5.2-7-7.8-9.5-9.8-22.6
	c-1.8-11.7-27.1,0-27.1,0c-12.5,3.1-17.3-0.1-19.1-2.5c0-0.1-0.5-0.4-0.2,0.2c6.9,15.2,21.9,7.3,21.9,7.3l2.8,2.8
	c-0.6-1.6-0.8-4-0.4-7.4c0.6-0.2,1.6-0.6,2.7-0.9c0.7,0.9,0.8,1.5,0.8,2.9c0.1,1.4-0.7,3.2-0.7,4.4c0,1.1,0.8,1.6,0.8,1.6
	c2.9-1.7,5-5.8,6.1-8.4c0.7,0.2,1.5,0.4,2.2,0.7c-1.4,7.2-6.2,10.4-9,9.6c-0.1,0-0.3-0.1-0.4-0.1c-8.8,4-3.6,5.1-3.6,5.1
	c7.3,0,13.9-5,13.9-5c2.4,1.2,5,7.1,5,7.1c2.7,0.3,7.3,2.7,7.3,2.7C394.7,194.3,396.9,192.4,396.9,192.4z M86.8,224.8
	c-0.2-1.1-17.2,3.4-31,14.7c0,0-3.1,2.4-2.9,3.5c0.4,2.1,2.9,0.8,3.5,0.1C67.2,232.5,87,225.9,86.8,224.8z M285.5,330.4l4.9,10.5
	l6.4,11.3l0,0.1l-17.2-19.1l-3.7,1.7l13.7,29.3l3.9-1.8l-5-10.8l-5.2-9.5l-1.1-1.8l0-0.1l17.4,19.4l3.6-1.7l-13.6-29.3L285.5,330.4z
	 M47.3,200.5c-1.6,2.6-2.9,4.8-4.2,7.3c0,0,0,0,0,0c-1.4,2.7-3.7,7.1-4.7,9.1c2.5,0.5,5.4,0,8.4-2.2c0.3-8.4,8.4-26,8.4-26
	C52.9,191.5,49.4,197,47.3,200.5C47.2,200.5,47.3,200.5,47.3,200.5z M61.3,247.7c0,0-2.5,2.1-2.4,3c0.3,1.8,2.3,0.6,2.8,0.1
	c8.8-9.1,24.6-14.9,24.5-15.8C86,234,72.4,238,61.3,247.7z M170,107.8l11.9-5.1l-17.7-41.2l-11.9,5.1l0.2,0.5L170,107.8z
	 M260.1,75.4l10.4,29.8l11.8,4l14.4-42.5l-12.2-4.1l-8,23.6l-10.4-29.8l-11.8-4l-14.4,42.5l12.2,4.1L260.1,75.4z M208.7,97.9
	L208.7,97.9c0.9,0,1.8,0,2.7-0.1c13.3-1.2,22.4-11.1,22.4-24c0-0.9,0-1.8-0.1-2.7c-1.2-12.6-12.4-20.7-24.2-20.7
	c-0.8,0-1.6,0-2.4,0.1c-12,1.1-22.5,10.6-22.5,23c0,0.7,0,1.4,0.1,2.1C185.8,88.9,195.8,97.9,208.7,97.9z M208.1,62.8
	c0.4,0,0.7,0,1.1,0h0c5.8,0,10.8,4.4,11.3,9.6l0,0c0,0.4,0.1,0.9,0.1,1.3c0,6.4-4.5,11.3-10.3,11.8c-0.4,0-0.7,0.1-1.1,0.1
	c-5.8,0-10.8-4.4-11.4-11c0-0.3,0-0.6,0-0.8C197.7,68.4,202.2,63.3,208.1,62.8z M290.5,109.3c2,5.3,5.3,10,10.1,13.3
	c3.3,2.3,7.3,3.8,11.4,3.8c0.5,0,1,0,1.5-0.1c4.8-0.5,8.4-3.8,10.9-7.4c1.6-2.3,2.3-4.6,2.3-6.7c0-3.6-1.9-6.9-4.4-10l-1.9-2.3
	c-0.7-0.9-1.4-1.8-1.8-2.7c-0.2-0.5-0.3-1-0.3-1.3c0-1.3,1-2,2.5-2c0.9,0,1.8,0.3,2.7,0.9c2.2,1.5,3.5,3.8,4.2,6.4l0.2,0.7l10.3-5.5
	l-0.2-0.5c-2-4.2-5.6-8.5-9.5-11.2l0,0c-3-2.1-6.3-3.1-9.4-3.1c-4.7,0-9.1,2.3-12.2,6.8c-1.8,2.6-2.6,5-2.6,7.1
	c0,3.8,2.4,6.9,5.3,10.5c1.2,1.4,3.2,3.8,3.1,5.6c0,0.5-0.1,0.9-0.4,1.3c-0.7,1-1.6,1.4-2.6,1.4c-1,0-2.2-0.4-3.1-1.1
	c-3.1-2.1-4.5-5.6-5.4-9.2l-0.2-0.7l-10.7,5.5L290.5,109.3z M141.4,128.2l20.4-16.7l-7.1-8.7l-10.4,8.5l-21.3-26l-10,8.2l0.4,0.5
	L141.4,128.2z M403.9,215.1c7.7,8.4,7.8,3,7.8,3C409.9,219.3,403.9,215.1,403.9,215.1z M425.4,230.7c0-3.8-1.5-7.4-3.5-11.2l0,0l0,0
	h0l0,0c-9.1-17.3-21.2-35.5-24.7-39.8c-0.6-1-1.4-3.4-1.6-6.1c-0.4-2.9-0.2-5.8-0.4-7.6c-0.2-1.7-1.1-2.8-2.1-4.2
	c-1-1.4-2.3-3-3.6-4.8c-1.9-2.6-3.9-5.5-5.5-7.8c-1.6-2.3-2.8-4.1-2.9-4.3c-0.8-1.3-1.5-2.4-1.7-2.8c0-0.1-0.1-0.2-0.1-0.3
	c0.2-1.2,0.5-3.2,0.5-5.6c0-0.1,0-0.1,0-0.2c0-6.9-2.7-17.8-15.2-24.9c-3-1.7-5.6-3.3-7.9-4.8c2.4-2.4,3.9-5.8,3.9-9.3c0,0,0,0,0,0
	v-0.1v0c0-3.7-1.5-7.2-4.1-9.6l-0.4-0.4c-33.6-32.8-79.8-53.1-130.6-53.1h0c0,0,0,0-0.1,0h0c0,0-0.1,0-0.1,0
	c-50.9,0-97,20.3-130.8,53.2l-0.1,0.1c-2.6,2.5-4.2,5.9-4.2,9.7l0,0c0,0,0,0,0,0.1c0,0,0,0,0,0c0,2.5,0.8,5,2.1,7.1
	c-1.5,0.8-3.5,1.8-5.4,3.1c-3.2,2-6.3,4.2-7.7,7.2c-1.1,2.5-1,3.6-1.8,5.6c-0.7,1.9-2.1,4.5-3.3,6.8c-1.3,2.3-2.4,4.3-2.9,5.4
	c-0.7,1.5-0.8,3.1-0.8,4.8c0,1.8,0.2,3.6,0.4,4.8c-4,2.9-12.5,10.8-12.5,25.2c0,1.5,0.1,3,0.3,4.6c-4.5,5.6-24,30.2-30.1,45.7
	c-0.4,1.1-3.2,4-3.2,9.1v0.1c-0.1,3.2,1,6.7,4.6,10.1l1.2,1.1l0.2,0.2c0.1,0.1,0.6,0.5,2.2,1.5c4.4,2.7,13.7,9.4,18.2,19.5
	c0,0.1,0.1,0.3,0.2,0.5c0.2,0.3,0.3,0.7,0.9,1.3c0.5,0.4,0.6,0.3,0.8,0.4c0.5,0.1,0.9,0.2,1.5,0.3c1.7,0.2,4.3,0.4,4.3,0.4l0.4,0
	c0.3,0,0.6-0.1,0.9-0.2c0.2,0.2,0.3,0.4,0.5,0.5c2.4,2.4,6.6,4.6,13.8,4.8h0c0.5,0,1-0.4,1.1-1c0.1-0.5-0.3-1-0.8-1.1l0,0
	c-0.3-0.1-2.9-1.4-5.8-8.8c4.5-2.4,10.9-5.4,18.4-7.2c2,1,3.9,2.1,4.9,3.4c0,0-3.9,9.9-1.5,20.7c0,0-4.7,3.3-6.6,8.3
	c-0.3,0.2-0.6,0.3-0.9,0.5c-0.4-0.9-0.8-1.7-1.1-2.5c-1.6-4.2-2.3-7.6-2.3-7.6c-0.1-0.4-0.5-0.8-0.9-0.8c-0.4-0.1-0.9,0.2-1.1,0.6
	c-2.3,4.8-3.1,9-3.1,12.4c0,0.6,0,1.2,0.1,1.8c-0.3-0.1-0.7-0.2-1.2-0.2c-0.2,0-0.4,0-0.7,0.1c-1.2,0.2-1.9,1.1-2.2,1.7
	c-0.3,0.6-0.4,1-0.4,1.2l0,0.1c0,0-0.9,4.6-0.9,9.8c0.1,4.7,0.5,10.3,4.2,14.2c5.4,5.4,15,15.2,15,15.3l0.1,0.1
	c0.2,0.1,1.5,1.4,3.7,2.2c-1.5,2.1-2.3,4.8-2.3,7.5c0,0,0,0,0,0.1l0,0c0,3.7,1.6,7.2,4.1,9.6l0.4,0.4c29,28.3,67.3,47.3,110,52
	c3.1,8.3,11.1,14.2,20.5,14.2c9.4,0,17.3-5.9,20.5-14.1c42.8-4.6,81.4-23.6,110.6-52.1l0.1-0.1c0-0.1,1-1.2,2.1-2.9
	c1-1.7,2.1-4,2.1-6.7c0-0.1,0-0.1,0-0.1c-0.1-2.6-0.8-5.2-2.2-7.3c2.6-0.8,4.3-2.2,5.4-3.5c0.4-0.5,0.6-0.8,0.9-1.4
	c1-1.9,2.4-5.2,4-8.5c1.5-3.3,3.2-6.6,4.2-7.7c1-1.4,5.3-4.4,5.4-9.4c0-0.2,0-0.4,0-0.5c-0.1-2-0.9-3.8-1.6-5.2
	c-0.3-0.7-0.7-1.3-0.9-1.7c-0.1-0.1-0.1-0.2-0.2-0.3c0.6-1.5,1.4-3.8,1.4-7c0-3-0.7-6.7-2.8-10.9c-0.2-0.4-0.6-0.6-1.1-0.6
	c-0.5,0.1-0.8,0.4-0.9,0.8c0,0-0.6,3-2,6.7c-0.6,1.5-1.3,3.1-2.1,4.6c-14-10.2-11.9-29-11.9-29c7.2-2.9,14.8-2.4,20.9-1.2
	c0.5,0.4,1,0.7,1.5,1.1c0.2,0.2,0.5,0.4,0.8,0.5c-1.4,3.1-2.8,5.1-4,6.5c-1,1.2-1.8,1.8-2.3,2.2c-0.3,0.2-0.5,0.3-0.6,0.4
	c-0.1,0-0.1,0-0.1,0.1l0,0c-0.5,0.2-0.8,0.7-0.7,1.2c0.1,0.5,0.5,0.8,1,0.8c0,0,0.1,0,0.1,0c7.3-0.6,12.3-2.5,15.6-4.8
	c0.5,0.1,1,0.2,1.4,0.2c0.3,0,0.6,0,1,0c0.1,0,0.1,0,0.1,0c2.9,0,5.8-1.2,8-3.7c7.2-8.1,18.5-15.8,23.4-21
	C424.3,236.4,425.4,233.6,425.4,230.7L425.4,230.7L425.4,230.7L425.4,230.7z M99.2,92.7l0.3-0.3c32.4-31.6,76.7-51.1,125.6-51.1h0.2
	c48.9,0,93.2,19.5,125.6,51.1l0.3,0.3c1.1,1.1,1.8,2.6,1.8,4.3c0,1.6-0.6,3.1-1.8,4.2l-3.4,3.3c-0.7,0.7-1,1.6-1,2.6
	c0,0.3,0,0.6,0.1,0.8l0,0c0.4,1.7,0.6,3.4,0.6,5.1c0,12.1-9.8,21.8-21.8,21.8c-1.6,0-3.2-0.2-4.7-0.5l0,0l-0.1,0
	c-0.3-0.1-0.6-0.1-0.9-0.1c-1,0-1.9,0.4-2.6,1.1l0,0l-3,3c-1.1,1.1-2.6,1.9-4.3,1.9c-1.7,0-3.2-0.7-4.3-1.9
	c-11.6-11.6-25.7-20.7-41.5-26.5c-12.2-4.5-25.3-7-39.1-7c-13.7,0-26.8,2.5-39,7c-15.8,5.8-29.9,14.9-41.5,26.5
	c-1.1,1.2-2.6,1.9-4.3,1.9c-1.7,0-3.2-0.8-4.3-1.9l-3-3l-0.1-0.1c-0.7-0.7-1.6-1.1-2.6-1.1c-0.3,0-0.6,0-0.9,0.1l-0.1,0l0,0
	c-1.5,0.3-3.1,0.5-4.7,0.5c-12,0-21.8-9.8-21.8-21.8c0-1.8,0.2-3.5,0.6-5.1l0,0c0.1-0.3,0.1-0.5,0.1-0.8c0-1-0.3-1.9-1-2.6l-3.4-3.3
	c-1.1-1.1-1.8-2.6-1.8-4.2C97.4,95.3,98.1,93.7,99.2,92.7z M325.2,148.1c0,0,0.3,9.6,7,13.4C329.7,161.4,320.8,162.8,325.2,148.1z
	 M329,217c0,28.7-11.6,54.6-30.4,73.4c-18.8,18.8-44.7,30.4-73.4,30.4s-54.6-11.6-73.4-30.4c-18.8-18.8-30.4-44.7-30.4-73.4
	s11.6-54.6,30.4-73.4c18.8-18.8,44.7-30.4,73.4-30.4c28.7,0,54.6,11.6,73.4,30.4C317.4,162.4,329,188.3,329,217z M71.2,264.3
	c-4.6-0.6-7.3-2.3-9-3.9c-0.2-0.1-0.1-0.2-0.3-0.3l0.6-0.4c0,0,1.1-0.8,3.1-2c0.4-0.3,0.9-0.5,1.4-0.9
	C68.6,260.5,70,262.9,71.2,264.3z M78.7,274.6c1,3.7,3.2,9.9,6.8,14.5c-0.9,0.5-2.8,1.3-4.8,1.3c-0.8,0-1.7-0.1-2.5-0.5
	c-0.6-1.5-1.2-3.7-1.2-6.7C77,280.9,77.4,278,78.7,274.6z M92.6,296.8c0,0-0.6,1.2-0.3,3.3c0,0-5.4-0.9-6.6-3c0,0,0.3,5.1,1.2,9
	c0,0-7.2-7.8-8.1-10.2c0,0,0.6,9.9,3.6,15.3c0,0-7-5.1-6.5-19.2l0,0c0.8,0.4,1.6,0.7,2.4,0.9l0,0c0.4,0.1,0.7,0.1,1.1,0.2
	c0.1,0,0.1,0,0.2,0c0.3,0,0.7,0.1,1,0c3.1,0,5.5-1.2,6.5-1.8c0.6,0.1,1.2,0.1,1.7,0.1c3.1,0,5.2-1.3,6.3-2.7c0.4-0.5,0.8-1,1-1.5
	c1.1,0.2,2.2,0.3,3.2,0.3c4.6,0,7.8-1.9,9.8-3.8c1.3-1.2,2.2-2.5,2.6-3.2c8-1.9,10-8.5,10-8.6l0.1-0.2l0-0.2
	c-1.2-18.1-9.2-25.9-9.4-26.1l-0.3-0.3l-0.4-0.1c-3.6-0.8-7.2-1.2-10.7-1.2c-0.8,0-1.6,0-2.5,0.1c-0.2,0-0.4,0-0.6,0
	c-0.8,0.1-1.6,0.1-2.4,0.2c0,0,0,0,0,0c-0.8,0.1-1.6,0.2-2.4,0.3c-0.2,0-0.4,0.1-0.6,0.1c-0.8,0.1-1.5,0.2-2.3,0.4c0,0,0,0,0,0
	c-0.8,0.1-1.5,0.3-2.3,0.5c-0.2,0-0.4,0.1-0.6,0.1c-0.7,0.2-1.4,0.3-2.2,0.5c0,0,0,0,0,0c-0.7,0.2-1.4,0.4-2.1,0.6
	c-0.2,0.1-0.3,0.1-0.5,0.2c-0.7,0.2-1.3,0.4-2,0.6c0,0,0,0,0,0c-0.7,0.2-1.3,0.5-2,0.7c-0.2,0.1-0.3,0.1-0.5,0.2
	c-0.6,0.2-1.2,0.5-1.8,0.7c0,0,0,0,0,0c-0.6,0.2-1.2,0.5-1.8,0.8c-0.1,0.1-0.3,0.1-0.4,0.2c-0.6,0.2-1.1,0.5-1.6,0.7c0,0,0,0,0,0
	c-0.6,0.2-1.1,0.5-1.6,0.8c-0.1,0.1-0.3,0.1-0.4,0.2c-0.5,0.2-0.9,0.5-1.4,0.7c0,0-0.1,0-0.1,0c-0.5,0.2-0.9,0.5-1.3,0.7
	c-0.1,0.1-0.2,0.1-0.4,0.2c-0.4,0.2-0.7,0.4-1.1,0.6c0,0-0.1,0-0.1,0.1c-2.3,1.3-4,2.4-4.7,2.9l-5.9-0.7c-0.3-0.7-0.6-1.3-1-1.9
	c-0.1-0.1-0.1-0.2-0.2-0.4c-0.3-0.6-0.7-1.2-1-1.8c-0.1-0.1-0.1-0.2-0.2-0.3c-0.3-0.6-0.7-1.1-1.1-1.6c0,0,0-0.1-0.1-0.1
	c-0.4-0.6-0.8-1.1-1.2-1.6c-0.1-0.1-0.1-0.2-0.2-0.3c-0.4-0.5-0.8-1-1.2-1.5c0-0.1-0.1-0.1-0.1-0.2c-0.4-0.5-0.8-1-1.3-1.4
	c0,0,0-0.1-0.1-0.1c-0.4-0.5-0.9-0.9-1.3-1.4l-0.2-0.2c-0.5-0.4-0.9-0.9-1.3-1.3l0,0l2.3-0.9c3-9.9,13.2-10.2,13.2-10.2
	c-1.2-7.5,1.8-13.5,1.8-13.5l-5.4,4.8c-13.3,1.1-20.9,5.6-25.1,9.5l0,0c-1-1.2-1.5-2.4-1.8-3.6c0-0.1,0-0.2-0.1-0.3
	c0-0.1-0.1-0.3-0.1-0.4c0-0.1,0-0.3-0.1-0.4c0-0.1,0-0.2,0-0.3c0-0.2,0-0.5,0-0.7c0-1.9,0.6-3.6,1.3-4.8c0.3-0.6,0.6-1.1,0.9-1.4
	c0.2-0.3,0.4-0.5,0.4-0.5l0.2-0.2l0.1-0.2c3-8,10.6-19.5,17.5-28.9c6.8-9.4,12.9-16.8,12.9-16.8l0.4-0.5l-0.1-0.6
	c-0.3-1.9-0.4-3.7-0.4-5.4c0-7.9,3-13.4,6-17.1c1.5-1.8,3-3.1,4.2-4c0.6-0.4,1-0.7,1.3-0.9s0.5-0.3,0.5-0.3l0.8-0.4l-0.6-8.6
	c4.7-8.2,8.4-18.2,9.3-20.6c0.8-0.4,1.6-0.8,2.3-1.3c0.2-0.1,0.5-0.3,0.7-0.4c0.5-0.3,1-0.6,1.5-0.9c0.3-0.2,0.5-0.3,0.8-0.5
	c0.4-0.3,0.8-0.5,1.3-0.8c0.2-0.2,0.5-0.3,0.7-0.4c0.4-0.3,0.8-0.5,1.2-0.8c0.2-0.1,0.4-0.3,0.6-0.4c0.4-0.3,0.8-0.5,1.1-0.8
	c0.1-0.1,0.3-0.2,0.4-0.3c0.9-0.7,1.7-1.3,2.4-1.8l0.8,0.8c-0.4,1.8-0.5,3.6-0.5,5.4c0,0,0,0,0,0.1c-3.1,1.6-6.5,3.1-10.2,4.4
	l-5.7,11.2c0,0,7.2-0.6,9.3,9.6c0,0,4.4-6.2,11.4-9.8c0.3,0.4,0.6,0.9,1,1.3c-3.1,2.2-6.2,5.4-7.6,10l2.7,1.2c0,0,4.7-3.8,10.3-6
	c1,0.8,2.1,1.4,3.3,2.1c-3.4,1.9-7.1,4.3-8.5,6.4l1.8,1.8c0,0,8.1-4.5,9.6,4.2s-7.8,10.2-10.5,10.2c0,0,0.3,3.3,3.6,6.6
	c0,0-7.2,5.7-17.4,0s-13.7-5-22.4-2.9c0,0-3.2,4.5-1.3,9.9c-1.9,1.9-3,1.7-5.1,7.6c-0.9,3.8-4.8,6.5-4.8,6.5s10.5,0.9,19.2-8.7
	c0,0,6.6,7.2,16.5-5.1c0,0,7.8,6.9,20.4-0.9c0,0-6,6.6-16.5,6.3c0,0,5.1,4.8,6.9,9.6c0,0-3.9-3.6-13.2-4.5c0,0,1.2,6.9,5.4,11.1
	c0,0-5.4-4.5-15.3-2.7c0,0,8.7,12.6,21.9,13.8c0,0-5.1,1.8-7.5,4.5c0,0,5.1,3.3,12.9,0.6c0,0-8.1,4.5-11.7,6c0,0,5.4,1.8,17.1-1.8
	c0,0.6,0,1.1,0,1.7c0,0.5,0,0.9,0,1.4c-0.2,2.1-0.7,5-2.1,7.7c0,0-5.4-4.8-10.8-6c0,0,6.3,8.7,2.7,18.6c0,0,2.2,3.5,11.1,3.1
	c0.7,0,1.3,0,1.8,0c2.6,11.7,7.1,22.8,13.1,32.8c-1.9,0.7-3.7,1.2-4.8,1.3l5.4,3c0,0-8.7,3-12.6,3.6c0,0,2.1,2.1,3.9,3.3
	c0,0-10.5,4.8-14.7,4.5c0,0,2.4,2.4,3.6,2.7c0,0-6.9,1.8-9,0.6l-0.6,4.8C100.1,298.3,94.1,298.9,92.6,296.8z M101.7,252.8
	c0.9-1,3.2-1.1,4.2-0.4c2.3,1.8,0.6,3.4-1.2,6.8c-2.9,5.5,1,9.4-1.9,14.9c-2.9,5.6-6.4,7.1-7.7,6.1c-1.9-1.5,0.9-4.5,1.9-7
	C99,268.1,94.4,260.5,101.7,252.8z M84.1,169.7c0,0,0.2-0.1,0.3-0.1c0.6,0.2,1.1,0.4,1.5,0.5c0.8,6.1-0.3,9-2.9,9.8
	c-2.8,0.8-7.6-2.3-9-9.6c0.6-0.2,1.3-0.4,2-0.6c0.9,2.8,2.9,7.2,5.6,8.8c0,0,0.6-0.3,0.5-1C82,175.4,81.4,170.9,84.1,169.7z
	 M352.1,340.4c-0.2,0.3-0.8,0.9-0.9,1.2c-29.6,30.6-69.9,47.5-111.4,50.7c-0.6,7.6-6.9,13.6-14.7,13.6c-7.8,0-14.1-6-14.7-13.6
	c-41.5-3.2-81.8-20.1-111.4-50.7c-0.2-0.2-0.7-0.9-0.9-1.2c-0.8-1-1-2-1-3.4c0-2.1,1.5-3.7,2.7-4.9s2.6-2.6,2.6-2.6s0.6-0.7,0.8-1.4
	c0.2-0.7,0.1-1.4,0-1.6c-0.4-1.7-0.7-3.5-0.7-5.4c0-11.9,9.6-21.6,21.5-21.6c1.8,0,3.6,0.2,5.3,0.7c0.3,0.1,0.7,0.1,1.6,0
	c1.1-0.2,1.4-0.7,1.7-1s1.8-2,3.2-3.3s2.7-2.3,4.6-2.3c2.2,0,3.7,1.2,5.1,2.8c10.1,10.5,22.2,18.4,35.4,23.8c13.5,5.8,28.4,9,44.1,9
	c15.6,0,30.5-3.2,44-9c13.2-5.4,25.3-13.3,35.5-23.9c1.4-1.6,3-2.8,5.1-2.8c1.9,0,3,0.8,4.6,2.3s2.8,2.8,3.2,3.3
	c0.4,0.5,0.6,0.8,1.7,1c0.7,0.1,1.3,0.1,1.6,0c1.7-0.4,3.5-0.7,5.3-0.7c11.9,0,21.5,9.7,21.5,21.6c0,1.9-0.2,3.7-0.7,5.4
	c-0.1,0.3-0.2,0.9,0,1.6c0.2,0.7,0.8,1.4,0.8,1.4s1.6,1.6,2.6,2.6s2.7,2.9,2.7,4.9C353.1,338.4,352.9,339.4,352.1,340.4z
	 M373.4,277.3c1,2.7,1.3,5.1,1.3,7.1c0,2.4-0.5,4.3-0.9,5.5c0,0.1-0.1,0.3-0.2,0.4l-1,0.3c-1,0.3-2.8,0.5-3.7,0.5
	c-0.8,0-1.8-0.2-2.6-0.4C370.1,287,372.3,281,373.4,277.3z M368.7,294.1c1.3,0,2.5-0.1,3.7-0.3c0.4,0.7,0.9,1.7,1.4,3.2
	c0.8,3.5-0.7,3.8-1.5,4.1c-8.8,3.5-9.1,15-14.2,12.9c-6.1-2.5,1.3-19.3,1.3-19.3s-11.9,4.4-14.4,2.5c-2.5-1.9,2.1-7.2,2.1-7.2
	s-10.4,2.6-12.4,1.1c-2.1-1.5,1.5-6.8,1.5-6.8s-7.1,3.4-10.2,1.7s3-7.6,3-7.6s-6.8,2.8-8.9,1.1c-0.5-0.4-0.6-1-0.5-1.8
	c2.9-4.4,5.4-9.1,7.6-13.9c0,0,0,0,0,0.1c-0.1,0.5-0.2,0.9-0.2,1.4l0,0c-0.2,1.5-0.4,3.1-0.4,4.6c0,2.8,0.5,5.5,2.2,7.5
	c2.5,2.8,8.9,6.8,16.6,10.4C352.9,291.1,361.7,294.1,368.7,294.1z M357.5,286c-0.2,0.2-7.9-1.8-12.2-9.7c-4.3-7.9,2.1-8.9-2.9-12.5
	c-5-3.6-5.9-8.3-1.8-9.7c2.1-0.7,3.9-0.4,7.5,1.8c3.6,2.2,2.9,5.7,3.2,16.1C351.8,282.4,357.7,285.8,357.5,286z M376.1,265.3
	c1.4-1.5,3.1-3.9,4.8-7.5c2.1,1.4,4.4,2.5,6.7,3.1C385.2,262.7,381.5,264.4,376.1,265.3z M420.5,231.4L420.5,231.4
	c0,0.2,0,0.5-0.1,0.7l-3.4-2.8l-1.8,1.8c-8.5-7.3-15.5-5.5-15.5-5.5l-8.5,5.5c11.5,0.7,14.2,8.9,14.4,15.6c0,0,0,0,0,0
	c-0.8,0.7-1.7,1.4-2.5,2.2c-0.1,0.1-0.2,0.2-0.3,0.2c-0.8,0.7-1.6,1.4-2.3,2.1c-0.1,0.1-0.1,0.1-0.2,0.2c-0.8,0.7-1.5,1.4-2.3,2.2
	c-0.2,0.2-0.3,0.3-0.5,0.5c-0.7,0.8-1.5,1.5-2.2,2.3c-1.4,1.6-2.9,2.1-4.5,2.1c-2.5,0-5.6-1.4-8.6-3.4c-0.7-0.4-1.4-0.9-2-1.4
	c-3.6-2.6-6.6-5.3-8.9-6.3c-2.5-1-8.7-2.5-16.2-2.5c-0.5,0-1,0-1.4,0c-0.2,0-0.5,0-0.7,0c-0.2,0-0.5,0-0.8,0c-0.3,0-0.6,0-0.9,0.1
	c-0.2,0-0.3,0-0.5,0c-0.4,0-0.7,0.1-1.1,0.1c-0.1,0-0.2,0-0.4,0c-0.4,0.1-0.8,0.1-1.2,0.2c-0.1,0-0.1,0-0.2,0
	c-0.5,0.1-0.9,0.1-1.4,0.2c0,0-0.1,0-0.1,0c-4.9,0.9-10,2.7-14.4,6.1c0.5-1.6,1-3.1,1.4-4.7c6.2-3,16.3-6.2,30.3-4.6
	c0,0-8.6-2.7-21.7-1.9l-2.2-2.7c0,0-2.1,1.1-4.8,3.2c0.3-1.2,0.5-2.4,0.7-3.5c3.3-2.1,6.8-3,6.8-3l2.4-7.9c-0.7-0.1-3.5-1.4-7.5-3.6
	c0.1-1.4,0.1-2.8,0.1-4.3c5.5,2.4,10.1,4.5,12,5.4c0,0-1.8-5.8,8.5-7c0,0-9.6-1.6-20.6-3.8c0-0.8-0.1-1.6-0.1-2.4
	c13.8,1.7,27.5,1.1,35.9-5.1c0,0-7.3,1.5-15.5,0.9c0,0,7.9-2.4,14.3-10.1c0,0-7.3,3.7-18.3,2.7c0,0,11-5.5,14.3-10.4
	c0,0-13.1,5.2-22.3,5.2c0,0,8.5-3.4,12.2-7l-11.2,0.9l3-4.6c0,0-14.7-4.3-17.7-16.5l5.4,0.7c0,0-4.5-16.4,5.2-21.1
	c-1.2-1.2-9.9-3.7-9.9-3.7s10.1-0.6,14.6,1.2c0,0-0.8-1.6-3.1-3.2c-2.2-1.6-5.2-2.7-5.2-2.7s11.3-0.6,14.6,2.7c0,0-3.4-6.1-6.1-8.2
	c0,0,6.7,2.1,10.7,6.7l2.8-0.3c0,0-0.6-6.4-3.7-11.6c0,0,6.1,4.6,8.8,11.9c0,0,2.2,3.1,8.1,2.4l-0.1,0.4l0.2,0.4
	c0,0,0.9,2.2,2.3,4.8c1.4,2.4,3.1,5.1,5.5,6.6c0.3,0.9,1,2.7,2.1,4.8c1.4,2.6,3.4,5.5,6.1,7.3v0.2c0,1.6,0,4.7,0.4,7.9
	c0.4,3.2,1,6.4,2.6,8.5c2.9,3.5,15.3,22,24.2,39.1c1.9,3.6,3,6.6,3,9C420.5,231,420.5,231.2,420.5,231.4z M225.1,122.5
	c-52.2,0-94.5,42.3-94.5,94.5s42.3,94.5,94.5,94.5s94.5-42.3,94.5-94.5S277.3,122.5,225.1,122.5z M279.7,272.8h-93.2v-12.4h4.2
	c4.6,0,8.2-3.8,8.2-8.3l-0.1-80.1c0-4.6-3.7-8.3-8.3-8.3h-3.9v-9.4h54.1v9.4l-4.3,0c-4.6,0-8.3,3.8-8.3,8.4l0,85.6h27
	c3.7,0,7-3.6,6.7-7.3c-0.1-1.1-0.2-2.8-0.2-4c0-7.1,4.1-13.4,10.3-16.5l6.1,6.1c-3.2,2.9-5.2,7.1-5.2,11.8c0,5.5,2.8,10.3,7,13.2
	L279.7,272.8z M59.1,243.5c0,0-2.8,2.3-2.7,3.3c0.3,2,2.6,0.7,3.2,0.1c9.8-10.1,27.6-16.5,27.4-17.5
	C86.9,228.3,71.6,232.7,59.1,243.5z M328,336.1l-18.4-21.9l-3.3,2.8l20.8,24.8l8.8-7.4l-2.4-2.9L328,336.1z M223.4,344.9l-6.5,32.4
	l4.2-0.1l1.1-6.3l6.4-0.1l1.3,6.3l4.3-0.1l-7.5-32.2L223.4,344.9z M227.9,367.5l-5.1,0.1l2.3-16.5h0.1l1.8,11.7L227.9,367.5z
	 M245.8,343.3l-14.1,1.7l0.4,3.7l5-0.6l3.5,28.4l4.2-0.5l-3.5-28.4l4.8-0.6L245.8,343.3z M225.1,381.9c-5,0-9,4-9,9s4,9,9,9
	c5,0,9-4,9-9S230.1,381.9,225.1,381.9z M225.1,398c-3.9,0-7.1-3.2-7.1-7.1c0-3.9,3.2-7.1,7.1-7.1c3.9,0,7.1,3.2,7.1,7.1
	C232.2,394.8,229.1,398,225.1,398z M264.5,338.5c-7.9,2.6-4.7,12.8-2.9,18.4c1.8,5.5,5.2,15.8,13.1,13.2s4.7-12.8,2.9-18.4
	C275.8,346.1,272.4,335.9,264.5,338.5z M273.5,366.2c-3.2,1-5.4-4.2-7.5-10.8s-3.4-12.1-0.2-13.1c3.2-1,5.4,4.2,7.5,10.8
	C275.4,359.5,276.7,365.1,273.5,366.2z M78,195.1c-0.8,16.9,13.3,11.3,13.3,11.3C82.3,203.4,78,195.1,78,195.1z M296.4,324
	l11.7,30.9l3.5-2.3l-2.4-5.9l5.4-3.5l4.4,4.6l3.6-2.4l-23.4-23.3L296.4,324z M301.2,328.4l7.8,9l3.3,3.5l-4.3,2.8L301.2,328.4
	L301.2,328.4z M249,342.7l6.2,31.7l4.2-0.8l-6.2-31.7L249,342.7z M227.1,391c1-0.4,1.8-1.3,1.7-2.7c0-1.9-1.4-3.1-3.8-3.2
	c-1,0-2,0.2-2.9,0.6l-0.2,0.1v10h2v-4.2h0.6c0.6,0,0.9,0.2,1.2,0.8l1.6,3.4h2.2l-1.9-3.9C227.5,391.6,227.3,391.3,227.1,391z
	 M224.8,389.9H224v-2.8c0.3-0.1,0.7-0.1,1.1-0.1c1.4,0,1.8,0.5,1.8,1.4C226.8,389.5,226.3,389.8,224.8,389.9z M362.8,221.2
	c-0.1,0.7,3.7,1.6,8.6,4.6c4.8,2.9,10.5,7.9,16.9,13.5c0.6,0.4-0.1,1.3-0.2,1.1c-16.9-13.1-33.6-15.1-33.4-12.9
	c0.1,0.9,3.9,0.9,8.6,2.7c6.9,2.6,16.3,7.4,23.2,12.4c0.5,0.3-0.1,0.8-0.4,0.8c-19.6-6.9-37.3-10.9-37.1-8.5c0.1,1,5.6,1.1,12.5,3
	c9.4,2.6,21.8,7.4,30,10.5c0.2-0.1,1.4,0.3,3.7-1.7c1.9-1.8,1.6-2.7,1.6-2.7C378.5,223.9,363.3,218.8,362.8,221.2z M136.9,311.1
	l-21.6,24l3.2,2.9l21.6-24L136.9,311.1z M152.1,323l-6.6,9.4l-6.6,11.2l-0.1,0l7.9-24.4l-3.4-2.4l-18.5,26.5l3.5,2.5l6.8-9.7
	l5.7-9.2l1-1.9l0.1,0l-8.1,24.7l3.3,2.3l18.5-26.5L152.1,323z M96.3,230.2c-2.5-7.9-8.4-9.9-8.4-9.9c6.6,12.6,1.9,21.1,1.9,21.1
	s7,0.8,11.4-2.8c3.4-10.5-4.5-19.4-4.5-19.4C97.7,224,96.3,230.2,96.3,230.2z M209.7,355.7l-0.8,13l-0.1,0.1l-4.1-25.4l-4.1-0.6
	l-4.5,32l4.2,0.6l1.6-11.8l0.9-10.8l0-2.1l0.1-0.1l4,25.7l3.9,0.5l4.5-32l-4.2-0.6L209.7,355.7z M189.4,340l-5-1.3l-8.4,31.2
	l4.1,1.1l4.1-15.3l0.1,0l1.5,16.8l4.3,1.1l-1.7-16.7c3.6,0.3,5.7-3.9,6.5-6.9C197,342.2,192.4,340.8,189.4,340z M190.3,349.8
	c-0.8,3.1-2.4,4.8-5.5,3.8l2.8-10.3l0.7,0.2C191.4,344.2,191.1,346.8,190.3,349.8z M174.8,353.9l1.4-3.5l-6-2.4l3.8-9.4l6.7,2.7
	l1.4-3.5l-10.7-4.3l-12.1,30l10.7,4.3l1.4-3.5l-6.7-2.7l4.1-10.2L174.8,353.9z M167.7,336.1l1.8-3.3l-12.5-6.7l-1.8,3.3l4.5,2.4
	l-13.4,25.2l3.8,2l13.4-25.2L167.7,336.1z"/>
</svg>
